<svg width="412" height="370" viewBox="0 0 412 370" fill="none" xmlns="http://www.w3.org/2000/svg">
<path d="M364.994 267.452H216.377C213.721 267.452 211.559 264.895 211.559 261.746V5.698C211.559 2.55711 213.721 0 216.377 0H364.994C367.649 0 369.812 2.55711 369.812 5.698V261.738C369.812 264.887 367.649 267.452 364.994 267.452ZM216.377 0.230223C213.836 0.230223 211.764 2.69689 211.764 5.68978V261.73C211.764 264.739 213.836 267.189 216.377 267.189H364.994C367.542 267.189 369.606 264.723 369.606 261.73V5.698C369.606 2.69689 367.526 0.230223 364.994 0.230223H216.377Z" fill="#666666"/>
<path d="M193.634 267.452H45.0257C42.3617 267.452 40.1992 264.895 40.1992 261.746V5.698C40.1992 2.55711 42.3617 0 45.0257 0H193.634C196.298 0 198.452 2.55711 198.452 5.698V261.738C198.452 264.887 196.298 267.452 193.634 267.452ZM45.0257 0.230223C42.4768 0.230223 40.4048 2.69689 40.4048 5.68978V261.73C40.4048 264.739 42.4768 267.189 45.0257 267.189H193.634C196.183 267.189 198.247 264.723 198.247 261.73V5.698C198.247 2.68867 196.183 0.238445 193.634 0.238445L45.0257 0.230223Z" fill="#666666"/>
<path d="M411.111 313.866H0V314.072H411.111V313.866Z" fill="#E0E0E0"/>
<path d="M55.7009 325.6H42.496V325.806H55.7009V325.6Z" fill="#E0E0E0"/>
<path d="M184.088 323.364H140.074V323.57H184.088V323.364Z" fill="#E0E0E0"/>
<path d="M86.3134 333.239H56.5078V333.445H86.3134V333.239Z" fill="#E0E0E0"/>
<path d="M346.606 323.264H311.094V323.469H346.606V323.264Z" fill="#E0E0E0"/>
<path d="M359.127 323.264H353.922V323.469H359.127V323.264Z" fill="#E0E0E0"/>
<path d="M304.306 328.382H259.996V328.587H304.306V328.382Z" fill="#E0E0E0"/>
<path d="M141.531 20.7874L142.74 24.3476C144.129 23.6323 144.516 22.7032 144.228 21.8809C143.899 20.8532 142.855 20.6887 141.531 20.7874Z" fill="#F5F5F5"/>
<path d="M372.747 183.761C381.144 182.807 387.178 175.227 386.224 166.83C385.271 158.433 377.69 152.399 369.294 153.353C360.897 154.307 354.863 161.887 355.817 170.284C356.77 178.681 364.351 184.715 372.747 183.761Z" fill="#EBEBEB"/>
<path d="M76.1805 256.517C78.2688 257.245 80.0945 258.575 81.4269 260.34C82.7593 262.104 83.5385 264.225 83.6661 266.432C83.7937 268.64 83.264 270.836 82.1438 272.742C81.0236 274.649 79.3633 276.18 77.3728 277.143C75.3823 278.106 73.1509 278.458 70.9607 278.153C68.7706 277.848 66.72 276.901 65.0682 275.43C63.4164 273.96 62.2376 272.033 61.6807 269.893C61.1238 267.753 61.214 265.496 61.9397 263.408C62.9153 260.606 64.9634 258.307 67.6338 257.015C70.3042 255.723 73.3783 255.544 76.1805 256.517Z" fill="#EBEBEB"/>
<path d="M57.806 165.375C66.8046 154.817 65.5402 138.963 54.9818 129.964C44.4234 120.966 28.5693 122.23 19.5707 132.789C10.5721 143.347 11.8366 159.201 22.395 168.2C32.9534 177.198 48.8074 175.934 57.806 165.375Z" fill="#EBEBEB"/>
<path d="M264.297 28.5569V78.0547H331.176V28.5569L264.297 28.5569Z" fill="#EBEBEB"/>
<path d="M269.25 32.7381V73.8574H326.32V32.7381H269.25Z" fill="white" stroke="#E0E0E0" stroke-width="0.5" stroke-miterlimit="10"/>
<path d="M264.297 78.0564L269.206 73.863V32.7437L264.297 28.5586V78.0564Z" fill="#E0E0E0"/>
<path d="M331.152 78.0491L326.219 73.8558V32.7447L331.152 28.5596C331.514 28.6911 331.152 78.0491 331.152 78.0491Z" fill="#E0E0E0"/>
<path d="M278.977 47.1582H317.383" stroke="#E0E0E0" stroke-linecap="round" stroke-linejoin="round"/>
<path d="M278.977 51.9756H317.383" stroke="#E0E0E0" stroke-linecap="round" stroke-linejoin="round"/>
<path d="M291.293 56.7939H306.792" stroke="#E0E0E0" stroke-linecap="round" stroke-linejoin="round"/>
<path d="M284.842 63.8066H279.547" stroke="#E0E0E0" stroke-linecap="round" stroke-linejoin="round"/>
<path d="M315.43 60.3418C316 60.3818 316.547 60.5876 317.002 60.9339C317.457 61.2801 317.801 61.7518 317.992 62.2909C318.182 62.83 318.211 63.413 318.075 63.9685C317.939 64.5239 317.644 65.0274 317.226 65.4173C316.807 65.8072 316.284 66.0664 315.721 66.163C315.157 66.2597 314.577 66.1896 314.053 65.9614C313.529 65.7332 313.082 65.3568 312.769 64.8785C312.456 64.4002 312.289 63.8407 312.289 63.2689C312.303 62.8704 312.395 62.4785 312.56 62.1157C312.726 61.7528 312.961 61.4261 313.253 61.1543C313.544 60.8824 313.887 60.6707 314.26 60.5313C314.634 60.3919 315.031 60.3275 315.43 60.3418Z" fill="#E0E0E0"/>
<path d="M291.293 41.7285H306.792" stroke="#E0E0E0" stroke-linecap="round" stroke-linejoin="round"/>
<path d="M377.192 364.5C377.192 367.537 300.347 370 205.553 370C110.759 370 33.9141 367.52 33.9141 364.5C33.9141 361.479 110.759 359 205.553 359C300.347 359 377.192 361.459 377.192 364.5Z" fill="#F2F2F2"/>
<path d="M232.657 113.365C246.164 112.915 256.748 101.601 256.297 88.0942C255.847 74.5876 244.533 64.0036 231.026 64.454C217.52 64.9044 206.935 76.2187 207.386 89.7253C207.836 103.232 219.151 113.816 232.657 113.365Z" fill="#FA853A"/>
<path opacity="0.1" d="M232.47 113.051C245.976 112.601 256.56 101.286 256.11 87.7797C255.659 74.2732 244.345 63.6891 230.839 64.1395C217.332 64.5899 206.748 75.9043 207.198 89.4108C207.649 102.917 218.963 113.501 232.47 113.051Z" fill="black"/>
<path opacity="0.4" d="M232.181 109.094C243.418 108.72 252.224 99.3062 251.849 88.069C251.474 76.8317 242.061 68.0258 230.823 68.4006C219.586 68.7753 210.78 78.1887 211.155 89.426C211.53 100.663 220.943 109.469 232.181 109.094Z" fill="white"/>
<path opacity="0.3" d="M219.111 68.0039L219.465 110.028C219.465 110.028 215.354 108.515 214.227 105.653C213.101 102.792 214.227 71.9424 214.227 71.9424C215.757 70.5121 217.389 69.1957 219.111 68.0039Z" fill="black"/>
<path d="M214.58 31.1464H65.5193V249.997H214.58V31.1464Z" fill="#FA853A"/>
<path opacity="0.9" d="M214.58 31.1464H65.5193V249.997H214.58V31.1464Z" fill="white"/>
<path d="M208.729 24.5507H59.6678V245.77H208.729V24.5507Z" fill="#FA853A"/>
<path opacity="0.6" d="M208.729 24.5507H59.6678V245.77H208.729V24.5507Z" fill="white"/>
<path d="M203.049 19.6396H53.9881V240.859H203.049V19.6396Z" fill="#FA853A"/>
<path opacity="0.8" d="M203.049 19.6396H53.9881V240.859H203.049V19.6396Z" fill="white"/>
<path opacity="0.3" d="M130.89 31.0547H64.1091V61.2878H130.89V31.0547Z" fill="#FEBC7D"/>
<path d="M73.7014 40.8882H67.3045V37.1142H84.7356V40.8882H78.3305V57.1271H73.7014V40.8882Z" fill="#FA853A"/>
<path d="M99.4396 52.8433H90.1485L88.3807 57.1353H83.6365L92.5494 37.1142H97.1209L106.067 57.1271H101.183L99.4396 52.8433ZM97.9843 49.3324L94.8105 41.6693L91.6367 49.3324H97.9843Z" fill="#FA853A"/>
<path d="M119.726 57.1346L114.892 50.1868L110.147 57.1346H104.836L112.236 46.9555L105.206 37.0888H110.468L115.064 43.5844L119.578 37.0888H124.586L117.621 46.7828L125.079 57.1346H119.726Z" fill="#FA853A"/>
<path d="M192.446 36.7978H134.183V40.8349H192.446V36.7978Z" fill="#455A64"/>
<path d="M192.446 45.1581H134.183V49.1953H192.446V45.1581Z" fill="#455A64"/>
<path d="M192.446 53.5234H134.183V57.5605H192.446V53.5234Z" fill="#455A64"/>
<path opacity="0.3" d="M193.412 65.1923H64.1092V75.207H193.412V65.1923Z" fill="#FFD3A9"/>
<path opacity="0.3" d="M193.412 219.322H64.1092V229.337H193.412V219.322Z" fill="#FA853A"/>
<path opacity="0.3" d="M193.445 154.306H63.7224V164.32H193.445V154.306Z" fill="#FA853A"/>
<path d="M192.256 173.755H86.074V180.513H192.256V173.755Z" fill="#FA853A"/>
<path d="M192.256 187.775H86.074V194.534H192.256V187.775Z" fill="#FA853A"/>
<path d="M192.256 202.817H86.074V209.576H192.256V202.817Z" fill="#FA853A"/>
<path d="M193.41 145.643H66.0803C65.5003 145.594 64.9172 145.594 64.3372 145.643H64.1399L64.7566 146.26V82.8172L64.1399 83.4339H191.445C192.025 83.4832 192.608 83.4832 193.188 83.4339H193.41L192.793 82.8172V146.26C192.793 146.423 192.858 146.58 192.974 146.696C193.089 146.812 193.246 146.877 193.41 146.877C193.573 146.877 193.73 146.812 193.846 146.696C193.961 146.58 194.026 146.423 194.026 146.26V82.8172C194.024 82.6543 193.959 82.4987 193.843 82.3835C193.728 82.2683 193.573 82.2027 193.41 82.2005H69.3939C67.7494 82.2005 66.0146 82.1183 64.3372 82.2005H64.1399C63.977 82.2027 63.8214 82.2683 63.7062 82.3835C63.591 82.4987 63.5254 82.6543 63.5232 82.8172V146.26C63.5254 146.423 63.591 146.578 63.7062 146.694C63.8214 146.809 63.977 146.874 64.1399 146.877H188.123C189.767 146.877 191.51 146.959 193.188 146.877H193.41C193.573 146.877 193.73 146.812 193.846 146.696C193.961 146.58 194.026 146.423 194.026 146.26C194.026 146.096 193.961 145.939 193.846 145.824C193.73 145.708 193.573 145.643 193.41 145.643Z" fill="#263238"/>
<path d="M154.625 83.8148V146.222C154.625 146.385 154.69 146.542 154.805 146.658C154.921 146.773 155.078 146.838 155.241 146.838C155.405 146.838 155.562 146.773 155.678 146.658C155.793 146.542 155.858 146.385 155.858 146.222V83.8148C155.858 83.6513 155.793 83.4944 155.678 83.3788C155.562 83.2631 155.405 83.1982 155.241 83.1982C155.078 83.1982 154.921 83.2631 154.805 83.3788C154.69 83.4944 154.625 83.6513 154.625 83.8148Z" fill="#263238"/>
<path d="M65.0657 95.4325H192.51C192.674 95.4325 192.83 95.3675 192.946 95.2519C193.062 95.1362 193.127 94.9794 193.127 94.8158C193.127 94.6523 193.062 94.4954 192.946 94.3798C192.83 94.2641 192.674 94.1992 192.51 94.1992H65.0657C64.9021 94.1992 64.7453 94.2641 64.6296 94.3798C64.514 94.4954 64.449 94.6523 64.449 94.8158C64.449 94.9794 64.514 95.1362 64.6296 95.2519C64.7453 95.3675 64.9021 95.4325 65.0657 95.4325Z" fill="#263238"/>
<path d="M65.0657 105.659H192.51C192.674 105.659 192.83 105.594 192.946 105.478C193.062 105.363 193.127 105.206 193.127 105.042C193.127 104.879 193.062 104.722 192.946 104.606C192.83 104.491 192.674 104.426 192.51 104.426H65.0657C64.9021 104.426 64.7453 104.491 64.6296 104.606C64.514 104.722 64.449 104.879 64.449 105.042C64.449 105.206 64.514 105.363 64.6296 105.478C64.7453 105.594 64.9021 105.659 65.0657 105.659Z" fill="#263238"/>
<path d="M65.0657 115.888H192.51C192.674 115.888 192.83 115.823 192.946 115.707C193.062 115.591 193.127 115.434 193.127 115.271C193.127 115.107 193.062 114.951 192.946 114.835C192.83 114.719 192.674 114.654 192.51 114.654H65.0657C64.9021 114.654 64.7453 114.719 64.6296 114.835C64.514 114.951 64.449 115.107 64.449 115.271C64.449 115.434 64.514 115.591 64.6296 115.707C64.7453 115.823 64.9021 115.888 65.0657 115.888Z" fill="#263238"/>
<path d="M65.0657 126.115H192.51C192.674 126.115 192.83 126.05 192.946 125.934C193.062 125.819 193.127 125.662 193.127 125.498C193.127 125.335 193.062 125.178 192.946 125.062C192.83 124.947 192.674 124.882 192.51 124.882H65.0657C64.9021 124.882 64.7453 124.947 64.6296 125.062C64.514 125.178 64.449 125.335 64.449 125.498C64.449 125.662 64.514 125.819 64.6296 125.934C64.7453 126.05 64.9021 126.115 65.0657 126.115Z" fill="#263238"/>
<path d="M65.0657 136.362H192.51C192.674 136.362 192.83 136.297 192.946 136.182C193.062 136.066 193.127 135.909 193.127 135.746C193.127 135.582 193.062 135.425 192.946 135.309C192.83 135.194 192.674 135.129 192.51 135.129H65.0657C64.9021 135.129 64.7453 135.194 64.6296 135.309C64.514 135.425 64.449 135.582 64.449 135.746C64.449 135.909 64.514 136.066 64.6296 136.182C64.7453 136.297 64.9021 136.362 65.0657 136.362Z" fill="#263238"/>
<path d="M78.2418 181.851H68.2024L68.5149 182.155V172.116L68.2024 172.428H78.2418L77.9376 172.116V182.155C77.9495 182.228 77.9871 182.295 78.0436 182.343C78.1001 182.391 78.1718 182.417 78.2459 182.417C78.32 182.417 78.3917 182.391 78.4482 182.343C78.5047 182.295 78.5422 182.228 78.5542 182.155V172.116C78.5521 172.034 78.5182 171.957 78.4599 171.9C78.4015 171.843 78.3232 171.811 78.2418 171.811H68.2024C68.1224 171.814 68.0462 171.846 67.9896 171.903C67.933 171.959 67.9003 172.036 67.8982 172.116V182.155C67.8982 182.236 67.93 182.315 67.9868 182.373C68.0436 182.431 68.121 182.465 68.2024 182.467H78.2418C78.3149 182.455 78.3814 182.418 78.4294 182.361C78.4774 182.305 78.5037 182.233 78.5037 182.159C78.5037 182.085 78.4774 182.013 78.4294 181.957C78.3814 181.9 78.3149 181.863 78.2418 181.851Z" fill="#FA853A"/>
<path d="M78.2418 196.408H68.2024L68.5149 196.713V186.673L68.2024 186.986H78.2418L77.9375 186.673V196.729C77.9495 196.802 77.9871 196.869 78.0436 196.917C78.1001 196.965 78.1718 196.991 78.2459 196.991C78.32 196.991 78.3917 196.965 78.4482 196.917C78.5046 196.869 78.5422 196.802 78.5542 196.729V186.673C78.5521 186.592 78.5182 186.515 78.4598 186.458C78.4015 186.401 78.3232 186.369 78.2418 186.369H68.2024C68.1224 186.371 68.0462 186.404 67.9896 186.46C67.933 186.517 67.9003 186.593 67.8982 186.673V196.729C67.8982 196.811 67.93 196.889 67.9868 196.947C68.0436 197.006 68.121 197.039 68.2024 197.042H78.2418C78.3257 197.042 78.4062 197.008 78.4656 196.949C78.525 196.889 78.5583 196.809 78.5583 196.725C78.5583 196.641 78.525 196.561 78.4656 196.501C78.4062 196.442 78.3257 196.408 78.2418 196.408Z" fill="#FA853A"/>
<path d="M78.2418 210.904H68.2024L68.5149 211.209V201.169L68.2024 201.482H78.2418L77.9376 201.169V211.209C77.9495 211.282 77.9871 211.348 78.0436 211.396C78.1001 211.444 78.1718 211.471 78.2459 211.471C78.32 211.471 78.3917 211.444 78.4482 211.396C78.5047 211.348 78.5422 211.282 78.5542 211.209V201.169C78.5521 201.088 78.5182 201.011 78.4599 200.954C78.4015 200.897 78.3232 200.865 78.2418 200.865H68.2024C68.1224 200.867 68.0462 200.9 67.9896 200.957C67.933 201.013 67.9003 201.089 67.8982 201.169V211.209C67.8982 211.29 67.93 211.368 67.9868 211.427C68.0436 211.485 68.121 211.519 68.2024 211.521H78.2418C78.3149 211.509 78.3814 211.472 78.4294 211.415C78.4774 211.359 78.5037 211.287 78.5037 211.213C78.5037 211.139 78.4774 211.067 78.4294 211.011C78.3814 210.954 78.3149 210.916 78.2418 210.904Z" fill="#FA853A"/>
<path d="M372.767 99.5205H313.493C311.622 99.5205 310.105 101.037 310.105 102.908V117.486C310.105 119.357 311.622 120.874 313.493 120.874H372.767C374.638 120.874 376.155 119.357 376.155 117.486V102.908C376.155 101.037 374.638 99.5205 372.767 99.5205Z" fill="#F86202"/>
<path opacity="0.8" d="M372.767 99.5205H313.493C311.622 99.5205 310.105 101.037 310.105 102.908V117.486C310.105 119.357 311.622 120.874 313.493 120.874H372.767C374.638 120.874 376.155 119.357 376.155 117.486V102.908C376.155 101.037 374.638 99.5205 372.767 99.5205Z" fill="white"/>
<path d="M313.795 124.676H358.236C359.326 124.676 360.372 125.109 361.143 125.88C361.914 126.651 362.347 127.697 362.347 128.787V141.942C362.347 143.033 361.914 144.078 361.143 144.849C360.372 145.62 359.326 146.054 358.236 146.054H321.828C321.828 147.525 321.828 151.554 313.819 152.385C313.819 152.385 317.273 150.822 316.722 146.054H313.795C312.704 146.054 311.659 145.62 310.888 144.849C310.117 144.078 309.684 143.033 309.684 141.942V128.787C309.684 127.697 310.117 126.651 310.888 125.88C311.659 125.109 312.704 124.676 313.795 124.676Z" fill="#F86202"/>
<path opacity="0.8" d="M313.795 124.676H358.236C359.326 124.676 360.372 125.109 361.143 125.88C361.914 126.651 362.347 127.697 362.347 128.787V141.942C362.347 143.033 361.914 144.078 361.143 144.849C360.372 145.62 359.326 146.054 358.236 146.054H321.828C321.828 147.525 321.828 151.554 313.819 152.385C313.819 152.385 317.273 150.822 316.722 146.054H313.795C312.704 146.054 311.659 145.62 310.888 144.849C310.117 144.078 309.684 143.033 309.684 141.942V128.787C309.684 127.697 310.117 126.651 310.888 125.88C311.659 125.109 312.704 124.676 313.795 124.676Z" fill="white"/>
<path d="M347.929 74.3955H314.095C312.224 74.3955 310.707 75.9122 310.707 77.7831V92.3611C310.707 94.232 312.224 95.7486 314.095 95.7486H347.929C349.8 95.7486 351.317 94.232 351.317 92.3611V77.7831C351.317 75.9122 349.8 74.3955 347.929 74.3955Z" fill="#F86202"/>
<path opacity="0.8" d="M347.929 74.3955H314.095C312.224 74.3955 310.707 75.9122 310.707 77.7831V92.3611C310.707 94.232 312.224 95.7486 314.095 95.7486H347.929C349.8 95.7486 351.317 94.232 351.317 92.3611V77.7831C351.317 75.9122 349.8 74.3955 347.929 74.3955Z" fill="white"/>
<path d="M329.291 80.5479V88.877H327.367V82.0936H325.723V80.5479H329.291Z" fill="#F86202"/>
<path d="M337.046 86.2623C337.046 87.7341 335.961 89.025 333.584 89.025C332.459 89.0438 331.353 88.7322 330.402 88.1287L331.167 86.657C331.856 87.1526 332.686 87.4148 333.535 87.4052C334.497 87.4052 335.089 87.0023 335.089 86.3198C335.089 85.6374 334.661 85.2345 333.149 85.2345H331.019L331.455 80.5479H336.528V82.0936H333.058L332.927 83.6805H333.601C336.067 83.6805 337.046 84.7823 337.046 86.2623Z" fill="#F86202"/>
<path d="M337.539 82.7514C337.582 82.3539 337.739 81.9772 337.991 81.6669C338.243 81.3566 338.58 81.1258 338.96 81.0025C339.34 80.8792 339.748 80.8685 340.135 80.9718C340.521 81.0751 340.869 81.2879 341.137 81.5846C341.405 81.8813 341.581 82.2492 341.645 82.644C341.709 83.0387 341.657 83.4434 341.495 83.8093C341.334 84.1751 341.07 84.4865 340.736 84.7058C340.402 84.9252 340.011 85.0431 339.611 85.0454C339.319 85.0471 339.031 84.9871 338.764 84.8694C338.496 84.7517 338.257 84.5788 338.062 84.3623C337.866 84.1457 337.718 83.8902 337.628 83.6126C337.538 83.335 337.508 83.0416 337.539 82.7514ZM340.475 82.7514C340.475 81.8552 340.129 81.4276 339.611 81.4276C339.093 81.4276 338.74 81.8716 338.74 82.7514C338.74 83.6312 339.093 84.0752 339.611 84.0752C340.129 84.0752 340.475 83.6476 340.475 82.7514ZM344.586 80.5479H346L340.318 88.877H338.896L344.586 80.5479ZM343.221 86.6816C343.264 86.2834 343.421 85.9062 343.674 85.5955C343.927 85.2849 344.264 85.0542 344.646 84.9314C345.027 84.8086 345.435 84.799 345.822 84.9036C346.209 85.0082 346.557 85.2226 346.824 85.5209C347.091 85.8192 347.266 86.1886 347.328 86.5843C347.39 86.9801 347.336 87.3852 347.172 87.7507C347.008 88.1163 346.742 88.4265 346.405 88.6439C346.069 88.8613 345.677 88.9765 345.276 88.9756C344.985 88.9773 344.696 88.9173 344.429 88.7996C344.162 88.6819 343.922 88.5091 343.727 88.2925C343.531 88.0759 343.384 87.8205 343.294 87.5429C343.203 87.2653 343.173 86.9718 343.204 86.6816H343.221ZM346.148 86.6816C346.148 85.7936 345.803 85.3578 345.276 85.3578C344.75 85.3578 344.405 85.7854 344.405 86.6816C344.405 87.5778 344.767 87.9972 345.276 87.9972C345.786 87.9972 346.14 87.5614 346.14 86.6816H346.148Z" fill="#F86202"/>
<path d="M322.702 84.3672H317.934V86.1267H322.702V84.3672Z" fill="#F86202"/>
<path d="M342.372 108.265H319.539V111.989H342.372V108.265Z" fill="#F86202"/>
<path d="M364.203 116.405C367.617 116.405 370.386 113.637 370.386 110.222C370.386 106.807 367.617 104.039 364.203 104.039C360.788 104.039 358.02 106.807 358.02 110.222C358.02 113.637 360.788 116.405 364.203 116.405Z" fill="#F86202"/>
<path opacity="0.8" d="M361.113 110.667L364.024 112.615L367.313 107.813" stroke="white" stroke-miterlimit="10"/>
<path d="M334.711 133.317H314.402V137.042H334.711V133.317Z" fill="#F86202"/>
<path d="M351.964 141.448C355.379 141.448 358.147 138.68 358.147 135.265C358.147 131.85 355.379 129.082 351.964 129.082C348.55 129.082 345.781 131.85 345.781 135.265C345.781 138.68 348.55 141.448 351.964 141.448Z" fill="#F86202"/>
<path opacity="0.8" d="M348.871 135.718L351.782 137.675L355.071 132.865" stroke="white" stroke-miterlimit="10"/>
<path opacity="0.8" d="M311.69 207.159C311.69 207.159 308.673 267.65 295.641 278.059H309.577C309.577 278.059 322.001 257.455 322.93 207.159H311.69Z" fill="#263238"/>
<path opacity="0.6" d="M311.69 207.159C311.69 207.159 308.673 267.65 295.641 278.059H309.577C309.577 278.059 322.001 257.455 322.93 207.159H311.69Z" fill="white"/>
<path d="M322.18 283.074H249.923V276.743C249.923 275.764 250.312 274.825 251.004 274.133C251.696 273.44 252.635 273.051 253.615 273.051H318.488C319.467 273.051 320.406 273.44 321.098 274.133C321.791 274.825 322.18 275.764 322.18 276.743V283.074Z" fill="#FA853A"/>
<path d="M322.18 283.074H249.923V276.743C249.923 275.764 250.312 274.825 251.004 274.133C251.696 273.44 252.635 273.051 253.615 273.051H318.488C319.467 273.051 320.406 273.44 321.098 274.133C321.791 274.825 322.18 275.764 322.18 276.743V283.074Z" fill="#25233C"/>
<path d="M319.423 341.374L291.566 338.99V295.1H281.773V338.94L253.818 341.407C252.63 341.525 251.528 342.08 250.726 342.964C249.924 343.848 249.479 344.999 249.477 346.192V349.909H323.764V346.192C323.772 344.993 323.331 343.833 322.528 342.942C321.725 342.05 320.617 341.491 319.423 341.374Z" fill="#263238"/>
<path opacity="0.5" d="M319.423 341.374L291.566 338.99V295.1H281.773V338.94L253.818 341.407C252.63 341.525 251.528 342.08 250.726 342.964C249.924 343.848 249.479 344.999 249.477 346.192V349.909H323.764V346.192C323.772 344.993 323.331 343.833 322.528 342.942C321.725 342.05 320.617 341.491 319.423 341.374Z" fill="white"/>
<path d="M292.392 354.46C292.394 355.728 292.02 356.967 291.317 358.021C290.614 359.076 289.614 359.898 288.444 360.384C287.274 360.87 285.986 360.998 284.743 360.752C283.5 360.505 282.358 359.896 281.461 359.001C280.564 358.105 279.954 356.964 279.706 355.721C279.458 354.479 279.584 353.19 280.069 352.019C280.553 350.849 281.374 349.848 282.428 349.144C283.481 348.439 284.72 348.063 285.987 348.063C287.684 348.063 289.312 348.737 290.513 349.937C291.714 351.136 292.39 352.763 292.392 354.46Z" fill="#263238"/>
<path d="M314.793 354.46C314.791 355.728 315.166 356.967 315.869 358.022C316.572 359.077 317.572 359.899 318.743 360.385C319.914 360.87 321.202 360.998 322.446 360.751C323.689 360.504 324.831 359.894 325.727 358.998C326.623 358.101 327.234 356.959 327.481 355.716C327.727 354.473 327.6 353.184 327.114 352.014C326.628 350.843 325.806 349.843 324.751 349.14C323.697 348.436 322.457 348.062 321.19 348.063C319.493 348.063 317.866 348.737 316.667 349.937C315.467 351.137 314.793 352.764 314.793 354.46Z" fill="#263238"/>
<path d="M280.309 279.56H293.464V307.647C293.464 308.456 293.143 309.232 292.571 309.804C291.999 310.376 291.223 310.697 290.414 310.697H283.359C282.55 310.697 281.774 310.376 281.202 309.804C280.63 309.232 280.309 308.456 280.309 307.647V279.56Z" fill="#263238"/>
<path opacity="0.6" d="M280.309 279.56H293.464V307.647C293.464 308.456 293.143 309.232 292.571 309.804C291.999 310.376 291.223 310.697 290.414 310.697H283.359C282.55 310.697 281.774 310.376 281.202 309.804C280.63 309.232 280.309 308.456 280.309 307.647V279.56Z" fill="white"/>
<path d="M248.598 283.074H323.379C324.201 283.074 324.867 282.408 324.867 281.586V279.547C324.867 278.725 324.201 278.059 323.379 278.059H248.598C247.776 278.059 247.11 278.725 247.11 279.547V281.586C247.11 282.408 247.776 283.074 248.598 283.074Z" fill="#263238"/>
<path opacity="0.6" d="M248.598 283.074H323.379C324.201 283.074 324.867 282.408 324.867 281.586V279.547C324.867 278.725 324.201 278.059 323.379 278.059H248.598C247.776 278.059 247.11 278.725 247.11 279.547V281.586C247.11 282.408 247.776 283.074 248.598 283.074Z" fill="white"/>
<path d="M320.394 267.453H297.445C290.72 267.453 285.868 261.41 286.6 253.961L297.034 195.64C297.766 188.191 303.809 182.148 310.535 182.148H333.483C340.209 182.148 345.06 188.191 344.328 195.64L333.894 253.961C333.163 261.402 327.119 267.453 320.394 267.453Z" fill="#FA853A"/>
<path d="M320.394 267.453H297.445C290.72 267.453 285.868 261.41 286.6 253.961L297.034 195.64C297.766 188.191 303.809 182.148 310.535 182.148H333.483C340.209 182.148 345.06 188.191 344.328 195.64L333.894 253.961C333.163 261.402 327.119 267.453 320.394 267.453Z" fill="#25233C"/>
<path d="M333.503 182.144H329.121C335.847 182.144 340.698 188.187 339.966 195.636L329.532 253.956C328.8 261.406 322.757 267.449 316.031 267.449H320.414C327.139 267.449 333.183 261.406 333.915 253.956L344.349 195.636C345.08 188.187 340.229 182.144 333.503 182.144Z" fill="black"/>
<path d="M335.405 161.571H312.958C309.003 161.571 305.797 164.778 305.797 168.733V175.516C305.797 179.471 309.003 182.678 312.958 182.678H335.405C339.36 182.678 342.567 179.471 342.567 175.516V168.733C342.567 164.778 339.36 161.571 335.405 161.571Z" fill="#FA853A"/>
<path d="M335.405 161.571H312.958C309.003 161.571 305.797 164.778 305.797 168.733V175.516C305.797 179.471 309.003 182.678 312.958 182.678H335.405C339.36 182.678 342.567 179.471 342.567 175.516V168.733C342.567 164.778 339.36 161.571 335.405 161.571Z" fill="black"/>
<path d="M331.35 161.571H308.904C304.949 161.571 301.742 164.778 301.742 168.733V175.516C301.742 179.471 304.949 182.678 308.904 182.678H331.35C335.306 182.678 338.512 179.471 338.512 175.516V168.733C338.512 164.778 335.306 161.571 331.35 161.571Z" fill="#FA853A"/>
<path d="M331.35 161.571H308.904C304.949 161.571 301.742 164.778 301.742 168.733V175.516C301.742 179.471 304.949 182.678 308.904 182.678H331.35C335.306 182.678 338.512 179.471 338.512 175.516V168.733C338.512 164.778 335.306 161.571 331.35 161.571Z" fill="#25233C"/>
<g opacity="0.3">
<path d="M330.199 182.442H313.754C313.681 182.454 313.614 182.492 313.566 182.548C313.519 182.605 313.492 182.677 313.492 182.751C313.492 182.825 313.519 182.897 313.566 182.953C313.614 183.009 313.681 183.047 313.754 183.059H330.199C330.272 183.047 330.338 183.009 330.386 182.953C330.434 182.897 330.46 182.825 330.46 182.751C330.46 182.677 330.434 182.605 330.386 182.548C330.338 182.492 330.272 182.454 330.199 182.442Z" fill="black"/>
</g>
<path d="M293.87 128.138C293.87 128.138 289.2 118.839 277.788 123.394C270.585 126.263 265.553 129.807 266.671 136.377C267.411 140.743 271.827 143.777 274.523 143.481C277.22 143.185 296.567 135.316 296.567 135.316C296.567 135.316 300.719 129.659 293.87 128.138Z" fill="#222222"/>
<path d="M294.842 168.957C290.731 164.385 292.934 154.979 294.546 149.092L280.889 158.613C281.124 159.331 281.308 160.065 281.44 160.808C281.727 162.149 282.188 162.642 282.13 165.117C281.956 166.585 281.522 168.011 280.848 169.327C280.848 169.327 281.242 172.879 287.195 173.158C290.134 172.63 292.82 171.154 294.842 168.957Z" fill="#FDBBB5"/>
<path opacity="0.2" d="M292.473 154.613C292.366 161.709 285.772 164.817 282.08 165.475C282.271 163.895 282.041 162.292 281.414 160.829L292.473 154.613Z" fill="#263238"/>
<path d="M294.832 141.242C295.022 149.736 295.293 154.513 291.264 159.208C285.204 166.262 274.4 163.426 271.613 155.162C269.097 147.721 269.22 135.084 277.459 131.038C279.246 130.118 281.238 129.665 283.248 129.72C285.258 129.776 287.221 130.339 288.955 131.358C290.688 132.376 292.136 133.816 293.164 135.544C294.192 137.273 294.766 139.233 294.832 141.242Z" fill="#FDBBB5"/>
<path d="M282.539 144.987C282.613 145.809 282.202 146.59 281.618 146.631C281.035 146.672 280.508 146.014 280.434 145.151C280.36 144.288 280.771 143.548 281.355 143.507C281.939 143.466 282.465 144.123 282.539 144.987Z" fill="#263238"/>
<path d="M274.948 145.545C275.022 146.409 274.611 147.19 274.027 147.19C273.443 147.19 272.909 146.573 272.843 145.71C272.777 144.846 273.18 144.106 273.764 144.065C274.348 144.024 274.874 144.682 274.948 145.545Z" fill="#263238"/>
<path d="M277.706 143.762C277.706 143.762 275.24 148.309 274.508 150.134C275.832 151.112 277.92 150.413 277.92 150.413L277.706 143.762Z" fill="#263238"/>
<path d="M284.467 141.264C284.403 141.3 284.331 141.319 284.257 141.319C284.184 141.319 284.111 141.3 284.047 141.264C283.596 140.997 283.089 140.837 282.566 140.797C282.042 140.757 281.517 140.838 281.03 141.034C280.932 141.082 280.82 141.09 280.716 141.058C280.612 141.026 280.525 140.956 280.471 140.861C280.446 140.813 280.431 140.76 280.427 140.706C280.423 140.651 280.43 140.597 280.448 140.545C280.465 140.494 280.493 140.447 280.53 140.406C280.566 140.366 280.61 140.333 280.66 140.31C281.271 140.055 281.932 139.945 282.592 139.987C283.253 140.03 283.894 140.225 284.467 140.557C284.514 140.583 284.555 140.617 284.588 140.659C284.621 140.701 284.645 140.749 284.658 140.801C284.672 140.852 284.676 140.906 284.668 140.959C284.661 141.012 284.642 141.062 284.615 141.108C284.582 141.174 284.531 141.228 284.467 141.264Z" fill="#263238"/>
<path d="M271.458 141.759C271.384 141.725 271.324 141.667 271.286 141.594C271.258 141.548 271.241 141.497 271.234 141.444C271.227 141.391 271.231 141.337 271.245 141.285C271.26 141.234 271.285 141.186 271.319 141.144C271.353 141.103 271.394 141.068 271.442 141.044C272.017 140.723 272.66 140.541 273.319 140.514C273.977 140.487 274.632 140.615 275.232 140.887C275.328 140.938 275.399 141.024 275.432 141.127C275.464 141.23 275.454 141.342 275.405 141.438C275.379 141.486 275.344 141.528 275.302 141.562C275.26 141.596 275.212 141.621 275.16 141.637C275.108 141.652 275.053 141.657 274.999 141.651C274.946 141.645 274.893 141.629 274.846 141.603C274.37 141.39 273.851 141.293 273.331 141.32C272.81 141.347 272.304 141.498 271.853 141.759C271.792 141.791 271.725 141.808 271.656 141.808C271.587 141.808 271.519 141.791 271.458 141.759Z" fill="#263238"/>
<path d="M289.383 130.144C289.383 130.144 281.983 137.758 274.238 134.42C266.492 131.082 282.805 122.802 289.383 130.144Z" fill="#222222"/>
<path d="M299.891 132.011C297.26 128.376 293.716 129.544 293.716 129.544C293.421 130.207 293.195 130.898 293.042 131.608C291.2 130.448 289.407 129.593 288.38 129.823C285.617 130.448 287.434 132.422 287.434 132.422C287.434 132.422 289.621 134.066 289.703 136.13C289.726 137.441 289.607 138.75 289.35 140.035C288.783 142.773 287.87 146.005 288.783 146.959C290.279 148.521 291.414 146.794 294.678 144.837C295.175 144.529 295.739 144.343 296.322 144.295C295.681 147.246 295.048 149.697 294.522 151.464C294.376 151.963 294.201 152.451 293.995 152.928C296.462 149.639 299.233 145.799 300.088 144.064C300.251 143.739 300.386 143.401 300.491 143.053C301.79 140.512 302.522 135.645 299.891 132.011Z" fill="#222222"/>
<path d="M298.855 147.969C298.602 149.009 298.145 149.988 297.512 150.85C296.878 151.712 296.08 152.441 295.163 152.993C292.697 154.481 291.48 151.809 291.504 149.128C291.504 146.711 291.989 143.734 294.793 143.331C295.4 143.242 296.019 143.306 296.595 143.517C297.171 143.729 297.684 144.082 298.088 144.543C298.492 145.004 298.774 145.56 298.908 146.158C299.042 146.757 299.024 147.379 298.855 147.969Z" fill="#FDBBB5"/>
<path opacity="0.2" d="M296.699 145.807C296.479 145.585 296.201 145.43 295.897 145.36C295.592 145.29 295.274 145.308 294.98 145.413C294.393 145.638 293.903 146.059 293.591 146.605C293.192 147.23 292.971 147.952 292.949 148.693" stroke="black" stroke-width="0.75" stroke-linecap="round" stroke-linejoin="round"/>
<g opacity="0.3">
<path d="M290.449 136.928C293.913 136.602 297.254 135.476 300.209 133.639C300.546 133.425 300.209 132.89 299.896 133.104C297.041 134.902 293.807 136.011 290.449 136.344C290.063 136.385 290.055 137.002 290.449 136.96V136.928Z" fill="black"/>
</g>
<g opacity="0.3">
<path d="M290.509 138.732C294.071 139.24 297.703 138.873 301.091 137.663C301.47 137.531 301.305 136.939 300.927 137.071C297.645 138.248 294.128 138.615 290.674 138.14C290.287 138.082 290.123 138.682 290.509 138.732Z" fill="black"/>
</g>
<g opacity="0.3">
<path d="M279.848 134.523C278.958 134.204 278.152 133.688 277.491 133.012C276.83 132.337 276.331 131.52 276.033 130.623C275.734 129.726 275.643 128.774 275.767 127.837C275.891 126.9 276.227 126.003 276.748 125.215C276.962 124.886 276.427 124.574 276.214 124.911C275.635 125.818 275.275 126.847 275.16 127.917C275.046 128.987 275.182 130.069 275.556 131.077C275.919 132 276.473 132.834 277.181 133.527C277.89 134.22 278.737 134.756 279.667 135.098C280.037 135.23 280.201 134.638 279.831 134.498L279.848 134.523Z" fill="black"/>
</g>
<g opacity="0.3">
<path d="M275.009 134.101C273.608 133.537 272.486 132.445 271.883 131.061C271.28 129.677 271.245 128.111 271.786 126.701C271.925 126.331 271.333 126.175 271.194 126.537C270.588 128.112 270.633 129.862 271.317 131.404C272.002 132.946 273.27 134.152 274.844 134.759C275.214 134.899 275.37 134.307 275.009 134.159V134.101Z" fill="black"/>
</g>
<path d="M280.177 154.108C280.831 153.988 281.444 153.705 281.96 153.285C282.476 152.866 282.878 152.323 283.129 151.707C283.143 151.631 283.127 151.551 283.086 151.485C283.044 151.42 282.979 151.372 282.904 151.351C282.829 151.33 282.749 151.339 282.679 151.374C282.61 151.41 282.556 151.47 282.529 151.543C282.306 152.055 281.96 152.503 281.52 152.848C281.081 153.192 280.563 153.422 280.013 153.516C279.933 153.537 279.866 153.589 279.824 153.66C279.783 153.731 279.771 153.815 279.791 153.894C279.815 153.973 279.869 154.039 279.941 154.078C280.013 154.118 280.098 154.129 280.177 154.108Z" fill="#263238"/>
<path d="M302.578 172.454L294.825 167.857L287.269 170.965L280.477 168.729L277.015 170.965L273.727 179.837C273.727 179.837 267.609 247.342 268.209 247.884C268.81 248.427 296.214 259.305 296.214 259.305L306.903 182.115L302.578 172.454Z" fill="#FA853A"/>
<path d="M302.578 172.454L294.825 167.857L287.269 170.965L280.477 168.729L277.015 170.965L273.727 179.837C273.727 179.837 267.609 247.342 268.209 247.884C268.81 248.427 296.214 259.305 296.214 259.305L306.903 182.115L302.578 172.454Z" fill="#006CBA"/>
<path d="M285.223 175.891C285.264 176.475 276.68 232.221 276.68 232.221L281.128 242.787L287.467 233.101L287.418 221.903L287.944 175.669L285.223 175.891Z" fill="#F08419"/>
<path d="M280.746 168.704L281.971 166.295L287.168 170.2L292.849 164.749L295.045 168.276L294.617 172.141L284.89 176.03L280.869 174.583L280.746 168.704Z" fill="#FA853A"/>
<path d="M280.746 168.704L281.971 166.295L287.168 170.2L292.849 164.749L295.045 168.276L294.617 172.141L284.89 176.03L280.869 174.583L280.746 168.704Z" fill="#25233C"/>
<path d="M283.957 173.798L285.807 170.97H287.18L289.203 173.798L287.821 176.265H285.486L283.957 173.798Z" fill="#F08419"/>
<path d="M258.76 175.497C256.294 178.835 251.434 209.701 251.434 209.701L239.989 199.547C239.989 199.547 231.084 206.125 231.232 206.61C231.38 207.095 245.703 223.95 251.36 227.724C257.017 231.498 261.803 225.833 261.803 225.833L264.467 173.293V171.797C262.156 172.241 260.109 173.568 258.76 175.497Z" fill="#119A49"/>
<g opacity="0.3">
<path d="M251.52 209.365C253.543 211.083 255.034 213.342 255.82 215.877C255.935 216.255 256.536 216.09 256.412 215.712C255.602 213.073 254.056 210.72 251.956 208.929C251.66 208.674 251.216 209.101 251.52 209.365Z" fill="black"/>
</g>
<path d="M239.257 203.246C238.509 202.03 231.718 198.634 231.718 198.634L227.977 200.624L228.264 200.92C229.292 201.964 232.795 205.458 233.485 205.286C234.324 205.08 239.981 204.472 239.257 203.246Z" fill="#FDBBB5"/>
<path d="M205.548 176.704C212.471 178.611 234.506 176.161 234.506 176.161L264.287 202.686L234.687 203.508C234.687 203.508 204.323 176.367 205.548 176.704Z" fill="#FA853A"/>
<path opacity="0.8" d="M205.548 176.704C212.471 178.611 234.506 176.161 234.506 176.161L264.287 202.686L234.687 203.508C234.687 203.508 204.323 176.367 205.548 176.704Z" fill="white"/>
<path d="M222.537 194.198C222.727 193.943 222.373 191.633 224.379 191.156C226.385 190.679 232.799 189.388 232.231 191.156C231.664 192.923 227.405 193.877 227.405 193.877V194.921C227.405 194.921 234.558 192.2 235.923 193.474C237.288 194.749 234.797 197.585 234.797 197.585C234.797 197.585 236.005 197.265 235.117 198.786C234.229 200.307 231.442 201.59 229.436 201.253C227.43 200.915 227.586 200.529 226.303 198.926C225.021 197.322 222.052 194.839 222.537 194.198Z" fill="#FDBBB5"/>
<g opacity="0.3">
<path d="M228.635 197.83C230.748 196.637 232.963 195.635 235.254 194.837C235.624 194.714 235.468 194.114 235.09 194.245C232.75 195.057 230.488 196.078 228.331 197.296C228.26 197.336 228.208 197.403 228.187 197.482C228.165 197.56 228.176 197.644 228.216 197.715C228.256 197.786 228.323 197.838 228.402 197.859C228.481 197.881 228.564 197.871 228.635 197.83Z" fill="black"/>
</g>
<g opacity="0.3">
<path d="M230.152 199.864C231.931 199.295 233.653 198.566 235.299 197.685C235.645 197.496 235.341 196.97 234.987 197.151C233.387 198.004 231.714 198.714 229.988 199.272C229.61 199.387 229.774 199.987 230.152 199.864Z" fill="black"/>
</g>
<path d="M272.074 244.024L273.464 240.423C280.403 244.748 289.555 242.191 298.426 240.185C298.426 240.185 297.958 262.952 297.958 262.631C297.958 262.311 272.074 244.024 272.074 244.024Z" fill="#263238"/>
<g opacity="0.3">
<path d="M261.703 182.002C260.511 195.922 260.651 209.9 259.59 223.877C259.59 224.272 260.174 224.264 260.207 223.877C261.226 209.9 261.127 195.922 262.32 182.01C262.32 181.615 261.736 181.615 261.703 182.01V182.002Z" fill="black"/>
</g>
<path d="M280.717 168.54L273.959 171.007L264.355 171.78L262.883 195.92L260.227 222.79C260.227 222.79 254.554 252.094 255.903 254.857C257.251 257.62 266.123 260.185 266.789 259.7C267.455 259.215 274.189 240.994 275.833 233.158C277.478 225.323 277.313 215.958 277.363 211.822C277.412 207.686 280.717 168.54 280.717 168.54Z" fill="#119A49"/>
<g opacity="0.3">
<path d="M273.936 170.968H273.114C272.316 172.702 271.352 174.354 270.236 175.902C268.978 177.39 267.892 179.314 268.378 181.197C268.863 183.08 270.984 184.527 271.099 186.549C271.214 188.572 269.249 190.126 268.295 191.968C266.865 194.739 267.851 198.11 269.118 200.971C271.405 206.57 274.155 211.969 277.34 217.111C277.189 215.338 277.209 213.553 277.397 211.783C277.447 207.672 280.752 168.51 280.752 168.51L273.936 170.968Z" fill="black"/>
</g>
<path d="M245.005 349.541L242.867 336.197C242.867 336.197 253.211 334.281 253.014 334.421C252.816 334.56 253.688 348.398 253.688 348.398L245.005 349.541Z" fill="#FA853A"/>
<path d="M254.048 346.536C254.13 345.352 252.403 346.018 251.079 346.668C250.131 347.143 249.046 347.27 248.013 347.03L247.618 346.939L247.314 345.064C247.042 343.42 246.146 342.442 244.592 342.713C243.827 342.853 242.257 344.275 242.232 345.402C242.208 346.279 241.934 347.131 241.444 347.859C240.953 348.587 240.266 349.161 239.461 349.513C239.461 349.513 230.688 353.78 228.213 354.726C226.742 355.285 224.629 356.197 223.617 358.014C223.26 359.122 223.091 360.28 223.116 361.443L241.55 361.196C241.55 361.196 244.181 360.604 244.937 360.489C245.665 360.516 246.377 360.71 247.018 361.057L255.01 360.654C255.067 359.922 255.289 356.543 255.355 355.72C255.692 351.905 254.048 347.605 254.048 346.536Z" fill="black"/>
<path d="M234.622 351.368C234.669 351.316 234.733 351.284 234.803 351.276C234.873 351.269 234.943 351.287 235 351.327C235.587 351.714 236.061 352.25 236.373 352.881C236.546 353.226 236.052 353.58 235.88 353.226C235.605 352.672 235.192 352.199 234.679 351.853C234.64 351.829 234.607 351.796 234.582 351.758C234.557 351.719 234.54 351.676 234.534 351.63C234.528 351.585 234.532 351.538 234.545 351.494C234.559 351.45 234.582 351.41 234.613 351.376L234.622 351.368Z" fill="white"/>
<path d="M236.687 350.317C236.741 350.273 236.81 350.248 236.88 350.248C236.951 350.248 237.019 350.273 237.073 350.317C237.659 350.704 238.13 351.241 238.438 351.871C238.611 352.217 238.126 352.578 237.945 352.225C237.678 351.666 237.263 351.191 236.744 350.852C236.707 350.825 236.675 350.791 236.652 350.751C236.628 350.712 236.613 350.668 236.608 350.622C236.602 350.576 236.607 350.53 236.62 350.486C236.634 350.442 236.657 350.401 236.687 350.367V350.317Z" fill="white"/>
<path d="M238.855 349.402C238.904 349.35 238.97 349.317 239.041 349.309C239.112 349.302 239.183 349.32 239.242 349.361C239.824 349.747 240.295 350.281 240.606 350.907C240.779 351.26 240.294 351.614 240.113 351.26C239.844 350.703 239.429 350.229 238.913 349.887C238.874 349.862 238.841 349.828 238.817 349.788C238.793 349.749 238.777 349.704 238.772 349.658C238.766 349.612 238.771 349.565 238.785 349.521C238.8 349.477 238.823 349.436 238.855 349.402Z" fill="white"/>
<path d="M195.113 320.129L200.145 306.751C200.145 306.751 210.67 310.402 210.415 310.418C210.16 310.435 203.73 323.648 203.73 323.648L195.113 320.129Z" fill="#FA853A"/>
<path d="M205.119 322.144C205.809 321.1 203.844 320.795 202.315 320.713C201.195 320.652 200.132 320.205 199.305 319.447L198.993 319.159L199.684 317.268C200.284 315.624 199.98 314.25 198.409 313.691C197.636 313.412 195.449 313.905 194.833 314.933C194.346 315.718 193.649 316.351 192.82 316.76C191.992 317.168 191.065 317.336 190.146 317.243C190.146 317.243 179.843 316.594 177.073 316.166C175.428 315.911 173.011 315.656 171.128 316.799C170.221 317.629 169.459 318.604 168.875 319.685L185.969 329.124C185.969 329.124 188.707 329.947 189.463 330.243C190.22 330.539 191.108 331.887 191.108 331.887L198.672 335.686C199.108 335.044 201.057 332.076 201.583 331.303C203.778 327.916 204.494 323.081 205.119 322.144Z" fill="black"/>
<path d="M184.678 316.428C184.749 316.407 184.825 316.412 184.893 316.442C184.961 316.472 185.016 316.525 185.048 316.592C185.389 317.251 185.545 317.99 185.5 318.73C185.5 319.141 184.842 319.215 184.867 318.796C184.904 318.143 184.771 317.491 184.481 316.905C184.458 316.862 184.445 316.814 184.442 316.765C184.439 316.717 184.447 316.668 184.465 316.623C184.483 316.577 184.511 316.536 184.546 316.503C184.581 316.469 184.624 316.444 184.67 316.428H184.678Z" fill="white"/>
<path d="M187.139 316.541C187.209 316.518 187.285 316.521 187.353 316.549C187.421 316.578 187.477 316.631 187.509 316.697C187.849 317.359 188.005 318.1 187.961 318.843C187.961 319.254 187.303 319.328 187.328 318.909C187.366 318.256 187.233 317.604 186.942 317.018C186.919 316.975 186.906 316.927 186.903 316.879C186.9 316.83 186.908 316.781 186.926 316.736C186.944 316.69 186.972 316.65 187.007 316.616C187.042 316.582 187.085 316.557 187.131 316.541H187.139Z" fill="white"/>
<path d="M189.572 316.83C189.642 316.807 189.719 316.81 189.787 316.838C189.855 316.867 189.91 316.92 189.942 316.986C190.283 317.648 190.439 318.389 190.394 319.132C190.394 319.543 189.737 319.617 189.753 319.198C189.799 318.544 189.666 317.89 189.367 317.307C189.345 317.263 189.334 317.215 189.332 317.166C189.331 317.118 189.34 317.069 189.358 317.024C189.377 316.979 189.405 316.939 189.44 316.905C189.476 316.872 189.518 316.846 189.564 316.83H189.572Z" fill="white"/>
<path d="M193.064 310.932C192.826 309.97 221.414 236.06 226.833 231.176C234.109 224.598 247.569 230.428 255.125 233.782C262.682 237.137 298.177 253.73 298.177 253.73C298.177 253.73 301.869 271.136 293.244 273.052C290.374 273.693 268.051 272.131 263.389 272.131C260.141 272.131 238.336 257.331 238.336 257.331C238.336 257.331 214.491 316.021 211.852 319.376" fill="#00336A"/>
<path d="M226.801 268.944C226.801 270.589 235.846 340.478 235.846 340.478L258.35 337.781C258.35 337.781 251.616 273.968 250.654 267.736C249.805 262.356 248.022 257.166 245.383 252.401C240.409 243.875 224.236 248.668 226.801 268.944Z" fill="#00336A"/>
<g opacity="0.3">
<path d="M250.946 265.92C250.387 260.937 249.079 255.749 246.243 251.539C245.392 250.174 244.253 249.012 242.904 248.135C240.871 247.075 238.552 246.692 236.285 247.042C233.861 247.371 231.603 248.456 229.831 250.144C228.06 251.831 226.865 254.034 226.419 256.44C225.983 258.8 226.419 261.299 226.575 263.667C227.003 269.697 227.373 275.726 227.685 281.756C227.726 282.578 228.959 282.578 228.918 281.756C228.524 274.208 227.948 266.685 227.471 259.145C227.36 257.057 227.875 254.983 228.95 253.19C230.025 251.397 231.612 249.966 233.506 249.081C235.864 248.039 238.518 247.885 240.98 248.645C242.404 249.129 243.643 250.039 244.532 251.252C247.772 255.305 249.17 260.863 249.737 265.92C249.827 266.701 251.061 266.742 250.97 265.92H250.946Z" fill="black"/>
</g>
<g opacity="0.3">
<path d="M246.944 337.344L243.145 303.262C241.78 290.935 240.41 278.615 239.034 266.304C238.36 260.236 237.683 254.173 237.003 248.116C236.921 247.335 235.687 247.294 235.77 248.116L239.576 282.255C240.941 294.572 242.312 306.905 243.688 319.255C244.356 325.284 245.031 331.314 245.71 337.344C245.792 338.166 247.026 338.166 246.944 337.344Z" fill="black"/>
</g>
<g opacity="0.3">
<path d="M269.184 241.038L283.162 247.525C283.515 247.689 283.828 247.163 283.474 246.99L269.497 240.503C269.135 240.339 268.822 240.865 269.184 241.038Z" fill="black"/>
</g>
<path d="M300.781 171.429L295.066 167.318C295.066 167.318 290.454 208.816 289.87 212.911C289.286 217.005 284.994 225.384 285.389 233.376C285.784 241.368 289.352 268.098 289.993 268.616C291.399 269.751 316.913 268.353 318.672 265.821C320.432 263.288 307.457 221.947 307.457 221.947L309.324 198.168L308.28 172.498L300.781 171.429Z" fill="#119A49"/>
<g opacity="0.3">
<path d="M295.115 167.366C295.115 167.366 290.502 208.864 289.918 212.958C289.824 213.561 289.692 214.157 289.523 214.743L300.344 195.93C301.388 194.105 302.473 191.992 301.824 189.994C301.451 189.239 301.175 188.441 301.002 187.618C300.878 185.702 303.098 184.567 303.953 182.857C304.809 181.147 304.225 179.19 303.616 177.43C302.926 175.449 302.186 173.492 301.396 171.543L300.862 171.444L295.115 167.366Z" fill="black"/>
</g>
<g opacity="0.3">
<path d="M294.448 238.306C297.564 237.964 300.63 237.26 303.583 236.21C303.953 236.078 303.797 235.486 303.419 235.618C300.518 236.648 297.508 237.341 294.448 237.681C294.054 237.722 294.054 238.339 294.448 238.298V238.306Z" fill="black"/>
</g>
<path d="M308.317 172.508C308.317 172.508 316.244 173.174 318.751 184.57C320.996 194.79 320.108 219.325 316.013 223.88C311.919 228.435 280.781 224.809 280.781 224.809L281.011 214.458L305.152 212.377L306.04 190.013L308.317 172.508Z" fill="#119A49"/>
<g opacity="0.3">
<path d="M306.929 184.221C306.93 182.39 307.134 180.564 307.538 178.778C307.912 177.38 308.48 176.04 309.223 174.798C309.252 174.728 309.255 174.651 309.231 174.579C309.207 174.507 309.157 174.447 309.092 174.409C309.027 174.371 308.95 174.358 308.876 174.372C308.802 174.386 308.735 174.426 308.689 174.486C307.921 175.77 307.331 177.153 306.937 178.597C306.524 180.437 306.314 182.318 306.312 184.204C306.324 184.278 306.362 184.344 306.419 184.392C306.475 184.44 306.547 184.466 306.621 184.466C306.695 184.466 306.767 184.44 306.823 184.392C306.88 184.344 306.917 184.278 306.929 184.204V184.221Z" fill="black"/>
</g>
<path d="M284.69 214.652C283.933 214.306 280.291 214.249 277.767 214.257C277.411 214.024 277.034 213.825 276.64 213.665C274.914 213.032 274.502 214.347 274.502 214.347C274.338 213.959 274.083 213.616 273.758 213.347C273.433 213.078 273.048 212.891 272.636 212.802C271.14 212.399 270.276 214.397 270.276 214.397C270.276 214.397 270.408 213.714 268.229 213.575C266.05 213.435 264.726 219.807 264.726 219.807C264.726 219.807 262.26 220.259 261.635 221.353C261.01 222.446 263.049 222.718 263.049 222.718C264.693 223.079 264.998 222.578 264.998 222.578C264.998 222.578 265.318 223.31 266.774 223.4C267.164 223.425 267.549 223.296 267.845 223.041C268.142 222.786 268.327 222.425 268.36 222.035C268.36 222.216 268.27 223.417 270.317 223.4C272.546 223.4 272.595 222.323 272.595 222.323C272.817 223.417 274.239 223.507 275.415 223.326C276.591 223.145 277.002 221.188 277.002 221.188C277.002 221.188 278.096 222.956 279.312 223.096C280.34 223.211 282.198 221.871 282.708 220.522C284.254 218.385 285.487 215.022 284.69 214.652Z" fill="#FDBBB5"/>
<g opacity="0.3">
<path d="M285.3 214.421C291.149 213.675 296.992 212.916 302.83 212.143C303.743 212.02 304.688 211.962 305.576 211.757C305.641 211.739 305.699 211.701 305.741 211.647C305.782 211.594 305.805 211.528 305.806 211.461L307.303 193.446L307.525 190.848C307.525 190.453 306.941 190.453 306.908 190.848L305.371 208.871L305.149 211.469L305.371 211.173C303.085 211.699 300.635 211.823 298.308 212.127L287.717 213.492L285.251 213.812C284.864 213.862 284.864 214.478 285.251 214.429L285.3 214.421Z" fill="black"/>
</g>
<g opacity="0.3">
<path d="M304.866 211.722C307.044 212.941 308.943 214.602 310.441 216.598C310.679 216.91 311.214 216.598 310.975 216.286C309.417 214.2 307.44 212.464 305.171 211.188C305.1 211.147 305.016 211.137 304.937 211.158C304.858 211.18 304.792 211.232 304.751 211.303C304.711 211.374 304.7 211.458 304.722 211.536C304.743 211.615 304.795 211.682 304.866 211.722Z" fill="black"/>
</g>
<g opacity="0.3">
<path d="M265.424 222.638C265.375 221.758 265.334 220.878 265.293 219.999C265.3 219.954 265.298 219.908 265.285 219.865C265.273 219.821 265.252 219.78 265.222 219.746C265.193 219.711 265.157 219.684 265.116 219.665C265.074 219.646 265.03 219.636 264.984 219.636C264.939 219.636 264.894 219.646 264.853 219.665C264.812 219.684 264.776 219.711 264.746 219.746C264.717 219.78 264.695 219.821 264.683 219.865C264.671 219.908 264.669 219.954 264.676 219.999C264.717 220.878 264.758 221.758 264.808 222.638C264.8 222.683 264.803 222.728 264.815 222.772C264.827 222.816 264.848 222.856 264.878 222.891C264.907 222.925 264.944 222.953 264.985 222.972C265.026 222.991 265.071 223.001 265.116 223.001C265.161 223.001 265.206 222.991 265.247 222.972C265.288 222.953 265.325 222.925 265.354 222.891C265.383 222.856 265.405 222.816 265.417 222.772C265.429 222.728 265.432 222.683 265.424 222.638Z" fill="black"/>
</g>
<g opacity="0.3">
<path d="M268.822 222.466C269.112 219.883 269.568 217.32 270.187 214.795C270.285 214.417 269.685 214.252 269.595 214.63C268.964 217.21 268.499 219.827 268.205 222.466C268.164 222.861 268.781 222.853 268.822 222.466Z" fill="black"/>
</g>
<g opacity="0.3">
<path d="M272.54 222.993C273.554 221.015 274.316 218.919 274.809 216.752C274.892 216.366 274.3 216.201 274.209 216.588C273.736 218.703 272.998 220.75 272.014 222.68C271.833 223.034 272.359 223.346 272.54 222.993Z" fill="black"/>
</g>
<g opacity="0.3">
<path d="M277.223 221.47C277.741 220.086 278.121 218.653 278.357 217.194C278.415 216.808 277.823 216.643 277.765 217.03C277.529 218.489 277.149 219.921 276.631 221.305C276.491 221.675 277.083 221.84 277.223 221.47Z" fill="black"/>
</g>
<path d="M186.766 222.673H130.797V225.69H186.766V222.673Z" fill="#FA853A"/>
<path opacity="0.9" d="M186.766 222.673H130.797V225.69H186.766V222.673Z" fill="white"/>
<path opacity="0.3" d="M186.765 222.673H158.785V225.69H186.765V222.673Z" fill="black"/>
<path d="M184.625 219.658H128.656V222.676H184.625V219.658Z" fill="#FA853A"/>
<path opacity="0.9" d="M184.625 219.658H128.656V222.676H184.625V219.658Z" fill="white"/>
<path opacity="0.3" d="M184.629 219.658H156.648V222.676H184.629V219.658Z" fill="black"/>
<g opacity="0.3">
<path d="M128.938 222.679H184.24C184.314 222.667 184.38 222.63 184.428 222.573C184.476 222.517 184.502 222.445 184.502 222.371C184.502 222.297 184.476 222.225 184.428 222.169C184.38 222.112 184.314 222.074 184.24 222.062H128.938C128.865 222.074 128.798 222.112 128.75 222.169C128.702 222.225 128.676 222.297 128.676 222.371C128.676 222.445 128.702 222.517 128.75 222.573C128.798 222.63 128.865 222.667 128.938 222.679Z" fill="black"/>
</g>
<path d="M186.703 216.61H130.734V219.628H186.703V216.61Z" fill="#FA853A"/>
<path opacity="0.9" d="M186.703 216.61H130.734V219.628H186.703V216.61Z" fill="white"/>
<path opacity="0.3" d="M186.703 216.61H158.723V219.628H186.703V216.61Z" fill="black"/>
<g opacity="0.3">
<path d="M131.016 219.664H186.286C186.359 219.652 186.425 219.614 186.473 219.557C186.521 219.501 186.548 219.429 186.548 219.355C186.548 219.281 186.521 219.209 186.473 219.153C186.425 219.096 186.359 219.059 186.286 219.047H131.016C130.943 219.059 130.876 219.096 130.828 219.153C130.78 219.209 130.754 219.281 130.754 219.355C130.754 219.429 130.78 219.501 130.828 219.557C130.876 219.614 130.943 219.652 131.016 219.664Z" fill="black"/>
</g>
<path d="M156.386 234.145L134.301 360.874H138.157L164.797 234.145H156.386Z" fill="#263238"/>
<path opacity="0.6" d="M156.386 234.145L134.301 360.874H138.157L164.797 234.145H156.386Z" fill="white"/>
<path opacity="0.3" d="M156.387 234.141C156.387 234.141 155.68 238.121 155.672 238.104C155.664 238.088 163.894 238.104 163.894 238.104L164.757 234.141L156.659 234.051" fill="black"/>
<path d="M125.893 235.375L103.809 360.871H107.665L134.305 235.375H125.893Z" fill="#263238"/>
<path opacity="0.6" d="M125.893 235.375L103.809 360.871H107.665L134.305 235.375H125.893Z" fill="white"/>
<path opacity="0.3" d="M125.895 235.382C125.895 235.382 125.196 239.354 125.18 239.337C125.163 239.321 133.402 239.337 133.402 239.337L134.265 235.382L126.166 235.292" fill="black"/>
<path d="M346.84 234.816L369.073 361.134H365.192L338.371 234.816H346.84Z" fill="#263238"/>
<path opacity="0.6" d="M346.84 234.816L369.073 361.134H365.192L338.371 234.816H346.84Z" fill="white"/>
<path d="M313.789 234.816L336.022 361.134H332.141L305.32 234.816H313.789Z" fill="#263238"/>
<path opacity="0.6" d="M313.789 234.816L336.022 361.134H332.141L305.32 234.816H313.789Z" fill="white"/>
<path d="M371.056 225.903H114.695V235.342H371.056V225.903Z" fill="#A24E3F"/>
<path opacity="0.3" d="M371.033 225.903H327.891V235.342H371.033V225.903Z" fill="black"/>
<path d="M285.052 223.05H227.562V225.903H285.052V223.05Z" fill="#263238"/>
<path opacity="0.5" d="M285.052 223.05H227.562V225.903H285.052V223.05Z" fill="white"/>
<path d="M234.659 204.848C234.856 207.372 233.253 209.419 231.074 209.419H161.917C159.721 209.419 157.806 207.372 157.584 204.848L153.472 153.96C153.423 153.463 153.453 152.96 153.563 152.472C153.695 151.631 154.116 150.863 154.754 150.3C155.392 149.737 156.207 149.415 157.057 149.389H226.206C228.402 149.389 230.317 151.436 230.539 153.96L234.659 204.848Z" fill="#263238"/>
<path opacity="0.7" d="M234.659 204.848C234.856 207.372 233.253 209.419 231.074 209.419H161.917C159.721 209.419 157.806 207.372 157.584 204.848L153.472 153.96C153.423 153.463 153.453 152.96 153.563 152.472C153.695 151.631 154.116 150.863 154.754 150.3C155.392 149.737 156.207 149.415 157.057 149.389H226.206C228.402 149.389 230.317 151.436 230.539 153.96L234.659 204.848Z" fill="white"/>
<path d="M230.827 209.417H161.917C159.721 209.417 157.806 207.369 157.584 204.845L153.472 153.958C153.423 153.46 153.453 152.958 153.563 152.47H222.473C224.652 152.47 226.584 154.517 226.798 157.041L230.909 207.929C230.954 208.426 230.926 208.927 230.827 209.417Z" fill="#263238"/>
<path opacity="0.3" d="M230.827 209.417H161.917C159.721 209.417 157.806 207.369 157.584 204.845L153.472 153.958C153.423 153.46 153.453 152.958 153.563 152.47H222.473C224.652 152.47 226.584 154.517 226.798 157.041L230.909 207.929C230.954 208.426 230.926 208.927 230.827 209.417Z" fill="white"/>
<path d="M184.453 197.552L198.357 197.609L195.668 222.654L209.317 222.868V225.812L172.539 225.902V222.991L181.403 222.819L184.453 197.552Z" fill="#263238"/>
<path opacity="0.3" d="M198.348 197.614C198.307 197.992 201.423 209.421 201.423 209.421H197.082L198.348 197.614Z" fill="black"/>
<path opacity="0.3" d="M183.014 209.416L184.444 197.552L180.851 209.416H183.014Z" fill="black"/>
<path opacity="0.6" d="M184.453 197.552L198.357 197.609L195.668 222.654L209.317 222.868V225.812L172.539 225.902V222.991L181.403 222.819L184.453 197.552Z" fill="white"/>
<path d="M356.562 222.874H300.594V225.892H356.562V222.874Z" fill="#FA853A"/>
<path opacity="0.8" d="M356.562 222.874H300.594V225.892H356.562V222.874Z" fill="white"/>
<path opacity="0.3" d="M356.574 222.874H328.594V225.892H356.574V222.874Z" fill="black"/>
<path d="M354.512 219.873H298.543V222.891H354.512V219.873Z" fill="#FA853A"/>
<path opacity="0.8" d="M354.512 219.873H298.543V222.891H354.512V219.873Z" fill="white"/>
<path opacity="0.3" d="M354.469 219.873H326.488V222.891H354.469V219.873Z" fill="black"/>
<g opacity="0.3">
<path d="M298.821 222.896H354.123C354.196 222.884 354.263 222.846 354.311 222.79C354.359 222.733 354.385 222.662 354.385 222.588C354.385 222.514 354.359 222.442 354.311 222.385C354.263 222.329 354.196 222.291 354.123 222.279H298.821C298.747 222.291 298.681 222.329 298.633 222.385C298.585 222.442 298.559 222.514 298.559 222.588C298.559 222.662 298.585 222.733 298.633 222.79C298.681 222.846 298.747 222.884 298.821 222.896Z" fill="black"/>
</g>
<path d="M356.543 216.836H300.574V219.854H356.543V216.836Z" fill="#FA853A"/>
<path opacity="0.8" d="M356.543 216.836H300.574V219.854H356.543V216.836Z" fill="white"/>
<path opacity="0.3" d="M356.515 216.836H328.535V219.854H356.515V216.836Z" fill="black"/>
<g opacity="0.3">
<path d="M300.856 219.869H356.134C356.207 219.857 356.273 219.819 356.321 219.763C356.369 219.706 356.396 219.634 356.396 219.56C356.396 219.486 356.369 219.414 356.321 219.358C356.273 219.302 356.207 219.264 356.134 219.252H300.856C300.783 219.264 300.716 219.302 300.668 219.358C300.62 219.414 300.594 219.486 300.594 219.56C300.594 219.634 300.62 219.706 300.668 219.763C300.716 219.819 300.783 219.857 300.856 219.869Z" fill="black"/>
</g>
<path d="M70.1103 322.797C67.8657 322.607 65.7563 321.645 64.1409 320.075C62.5455 318.524 61.2397 316.7 60.2847 314.69C57.612 309.398 56.3382 303.511 56.5847 297.588C56.5751 296.321 56.8212 295.065 57.3083 293.896C57.5578 293.313 57.9447 292.799 58.4358 292.399C58.9268 291.998 59.5076 291.721 60.1285 291.594C61.9949 291.322 63.6312 292.819 64.8152 294.282C70.2295 301.042 72.9399 309.572 72.4207 318.217C72.2809 320.314 71.5985 322.328 70.0774 322.781" fill="#D2D2D2"/>
<path d="M80.0429 311.211C78.2807 307.332 78.0142 302.94 79.2947 298.877C80.5854 294.853 82.9137 291.24 86.0451 288.402C89.408 285.245 93.7247 282.827 98.3291 282.803C100.294 282.803 102.44 283.321 103.632 284.866C104.825 286.412 104.808 288.871 104.241 290.885C103.225 294.17 101.438 297.164 99.028 299.617C96.6221 302.059 94.0207 304.3 91.2498 306.318C88.1911 308.67 84.8858 311.112 81.0295 311.4" fill="#D2D2D2"/>
<path d="M80.3008 323.976C80.8434 319.726 84.1488 316.206 88.0132 314.34C91.8777 312.474 96.2354 312.021 100.536 311.808C101.489 311.71 102.451 311.779 103.381 312.013C103.845 312.134 104.271 312.368 104.622 312.696C104.972 313.023 105.235 313.433 105.387 313.888C105.707 315.096 104.943 316.305 104.137 317.267C101.763 320.075 98.7934 322.319 95.4442 323.836C92.095 325.354 88.45 326.107 84.7737 326.04C83.9329 326.05 83.0972 325.908 82.307 325.621C81.9071 325.473 81.5449 325.239 81.2463 324.935C80.9478 324.631 80.7203 324.264 80.5803 323.861" fill="#D2D2D2"/>
<path d="M60.2357 294.923C65.3503 307.413 69.4393 320.299 72.4622 333.453C73.3118 337.158 74.0765 340.888 74.7562 344.643C74.8302 345.038 75.4222 344.865 75.3482 344.479C72.9395 331.198 69.4499 318.136 64.9142 305.423C63.6425 301.838 62.2721 298.275 60.8031 294.734C60.6551 294.373 60.0631 294.529 60.2111 294.899L60.2357 294.923Z" fill="#D9D9D9"/>
<path d="M75.6627 339.532C75.2702 331.814 76.1027 324.082 78.1294 316.624C80.256 309.259 83.991 302.457 89.0649 296.71C92.3367 293.103 96.0335 289.906 100.074 287.189C100.403 286.967 100.074 286.432 99.762 286.654C93.0691 290.997 87.4287 296.778 83.2513 303.575C79.0739 310.372 76.4646 318.016 75.6134 325.948C75.0465 330.466 74.8485 335.023 75.0214 339.573C75.0334 339.646 75.0709 339.712 75.1274 339.76C75.1839 339.808 75.2556 339.835 75.3297 339.835C75.4038 339.835 75.4755 339.808 75.532 339.76C75.5885 339.712 75.6261 339.646 75.638 339.573L75.6627 339.532Z" fill="#D9D9D9"/>
<path d="M75.8571 328.92C81.969 321.826 90.3258 317.038 99.5371 315.353C99.9235 315.279 99.7591 314.687 99.3726 314.761C90.0566 316.468 81.6048 321.31 75.4213 328.484C75.1582 328.78 75.594 329.224 75.8571 328.92Z" fill="#D9D9D9"/>
<path d="M63.2587 339.068V329.859H88.912V339.068C88.912 339.068 89.4053 355.348 80.3609 356.828H71.8098C62.7653 355.348 63.2587 339.068 63.2587 339.068Z" fill="#263238"/>
</svg>
