<svg width="582" height="384" viewBox="0 0 582 384" fill="none" xmlns="http://www.w3.org/2000/svg">
<path d="M168.083 128.551L293.526 99.177L295.129 106.038L316.869 85.6347L288.333 77L289.935 83.8534L160.164 114.236" stroke="url(#paint0_linear_27_172)" stroke-linecap="round" stroke-linejoin="round"/>
<path d="M352.397 219.318L417.805 204.001L418.642 207.578L429.981 196.941L415.101 192.434L415.938 196.011L348.27 211.849" stroke="url(#paint1_linear_27_172)" stroke-linecap="round" stroke-linejoin="round"/>
<path d="M385.262 169.12L369.96 164.506L371.141 169.499L133.797 225.342L135.106 230.915L372.45 175.072L373.623 180.066L385.262 169.12Z" fill="#228240"/>
<path d="M53.2268 295.534L211.606 258.269L212.779 263.256L224.419 252.31L209.117 247.703L210.297 252.697L51.0234 290.168" stroke="url(#paint2_linear_27_172)" stroke-linecap="round" stroke-linejoin="round"/>
<path d="M528.433 297.539L499.15 291.935L501.46 298.583L375.576 342.364L380.749 357.228L506.634 313.447L508.944 320.103L528.433 297.539Z" fill="#228240"/>
<path d="M358.465 321.607L343.163 317L344.337 321.993L107 377.836L108.309 383.409L345.646 327.566L346.826 332.56L358.465 321.607Z" fill="#001E6C"/>
<path d="M567.946 14.6943C567.946 14.6943 562.695 -0.843915 554.168 0.0360099C545.64 0.915935 545.855 7.69065 543.008 9.44335C540.16 11.196 537.284 5.06518 532.506 7.03249C527.727 8.9998 527.691 12.2834 526.597 14.4725C525.502 16.6616 521.131 10.5379 516.538 11.4107C511.945 12.2834 512.382 17.9708 511.287 19.2799C510.193 20.5891 507.131 18.6218 504.942 19.2799C502.753 19.9381 501 23.8727 501 23.8727H581.502C581.502 23.8727 580.63 17.3126 576.695 15.3453C572.76 13.378 571.229 17.7561 567.946 14.6943Z" fill="url(#paint3_linear_27_172)"/>
<path d="M114.645 128.27C114.645 128.27 109.394 112.739 100.867 113.612C92.3393 114.484 92.5539 121.281 89.7067 123.019C86.8595 124.757 84.0194 118.648 79.2048 120.615C74.3903 122.583 74.3903 125.866 73.2957 128.055C72.2012 130.244 67.8302 124.142 63.2374 124.993C58.6446 125.845 59.081 131.554 57.9865 132.863C56.8919 134.172 53.8301 132.205 51.641 132.863C49.4519 133.521 47.6992 137.455 47.6992 137.455H128.209C128.209 137.455 127.336 130.888 123.401 128.921C119.467 126.954 117.907 131.339 114.645 128.27Z" fill="url(#paint4_linear_27_172)"/>
<path d="M263.946 32.6937C263.946 32.6937 258.695 17.1627 250.168 18.0355C241.64 18.9082 241.855 25.7044 239.007 27.4428C236.16 29.1812 233.32 23.0718 228.506 25.0391C223.691 27.0064 223.691 30.29 222.597 32.4791C221.502 34.6682 217.131 28.5659 212.538 29.4173C207.945 30.2686 208.382 35.9773 207.287 37.2865C206.193 38.5957 203.131 36.6283 200.942 37.2865C198.753 37.9447 197 41.8793 197 41.8793H277.51C277.51 41.8793 276.637 35.312 272.702 33.3447C268.768 31.3774 267.208 35.7627 263.946 32.6937Z" fill="url(#paint5_linear_27_172)"/>
<path d="M56.7584 265.115C56.7584 265.115 52.9954 253.991 46.886 254.613C40.7766 255.235 40.934 260.1 38.8952 261.352C36.8563 262.604 34.8246 258.219 31.3764 259.628C27.9283 261.037 27.9283 263.391 27.1485 264.958C26.3687 266.524 23.2282 262.132 19.9374 262.761C16.6466 263.391 16.9614 267.461 16.1816 268.399C15.4019 269.336 13.2056 267.934 11.6389 268.399C10.0722 268.864 8.82031 271.689 8.82031 271.689H66.4733C66.4733 271.689 65.8438 266.989 63.0251 265.58C60.2065 264.171 59.1048 267.304 56.7584 265.115Z" fill="url(#paint6_linear_27_172)"/>
<path d="M220.211 373.334C220.211 373.334 216.449 362.209 210.339 362.832C204.23 363.454 204.387 368.319 202.348 369.571C200.309 370.823 198.278 366.437 194.83 367.847C191.381 369.256 191.381 371.61 190.602 373.176C189.822 374.743 186.681 370.351 183.391 370.98C180.1 371.61 180.415 375.68 179.635 376.617C178.855 377.554 176.659 376.152 175.092 376.617C173.525 377.082 172.273 379.908 172.273 379.908H229.926C229.926 379.908 229.297 375.208 226.478 373.799C223.66 372.389 222.558 375.523 220.211 373.334Z" fill="url(#paint7_linear_27_172)"/>
<path d="M331.551 266.016L351.504 273.642L1 343.206V370.784L387.094 288.951L404.728 297.149L440.991 267.64L331.551 266.016Z" fill="#001E6C" stroke="#001E6C" stroke-linecap="round" stroke-linejoin="round"/>
<path d="M441.001 267.636V264.695L404.738 294.205V297.145L441.001 267.636Z" fill="#001E6C" stroke="#001E6C" stroke-linecap="round" stroke-linejoin="round"/>
<path d="M331.57 263.064V266.012L345.427 271.699L351.522 270.69L331.57 263.064Z" fill="#001E6C" stroke="#001E6C" stroke-linecap="round" stroke-linejoin="round"/>
<path d="M331.551 263.064L351.504 270.69L1 343.116V370.694L387.094 286.007L404.728 294.205L440.991 264.696L331.551 263.064Z" fill="#F86202" stroke="#001E6C" stroke-linecap="round" stroke-linejoin="round"/>
<path d="M240.914 214.772L239.483 263.061C239.483 263.061 236.199 265.408 235.355 268.426C234.511 271.445 231.521 288.851 231.328 289.294C231.134 289.738 228.566 290.725 228.323 291.727C228.18 292.546 228.142 293.38 228.208 294.209C228.208 294.209 224.181 298.594 223.279 303.674C222.378 308.753 225.826 308.159 228.344 306.9C230.863 305.641 233.352 297.965 234.025 297.035C234.697 296.105 236.071 294.631 237.194 293.207C238.317 291.784 239.576 288.007 239.576 288.007C239.576 288.007 254.284 267.21 256.895 262.517C259.507 257.824 262.368 241.006 262.933 239.539C263.498 238.073 266.553 236.728 266.553 236.728C266.553 236.728 288.694 246.171 290.876 246.893C293.058 247.616 315.757 278.757 315.757 278.757C315.757 278.757 315.757 282.033 316.201 282.92C316.645 283.807 319.778 286.955 319.778 286.955C319.778 286.955 319.063 289.817 320.558 290.646C322.053 291.476 327.49 290.41 328.427 290.246C329.364 290.081 334.05 290.367 335.91 290.053C337.77 289.738 340.817 288.379 340.546 287.606C340.274 286.833 332.426 284.909 330.802 284.229C329.388 283.558 328.023 282.788 326.717 281.926C326.434 279.832 326.03 277.756 325.508 275.709C324.986 274.278 322.546 273.62 322.453 272.275C322.36 270.93 308.031 241.607 306.829 240.176C305.628 238.745 278.271 216.525 278.271 216.525L274.129 208.355C274.129 208.355 269.622 214.737 257.675 215.846C245.728 216.954 240.914 214.772 240.914 214.772Z" fill="#121213" stroke="#121213" stroke-linecap="round" stroke-linejoin="round"/>
<path d="M244.627 170.801C244.627 170.801 232.237 184.129 232.93 186.111C233.624 188.092 240.456 210.806 240.456 210.806C240.456 210.806 238.99 215.813 242.044 218.675C245.099 221.536 256.231 222.524 264.565 219.455C272.899 216.386 274.444 210.52 274.58 207.121C274.716 203.723 273.149 175.086 273.149 175.086L311.923 144.325L310.142 139.367L273.593 153.317C273.593 153.317 269.394 152.645 262.454 156.987C255.515 161.33 254.964 162.245 254.964 162.245L244.627 170.801Z" fill="#F08419" stroke="#001E6C" stroke-linecap="round" stroke-linejoin="round"/>
<path d="M273.102 175.094L274.253 158.805" stroke="#001E6C" stroke-linecap="round" stroke-linejoin="round"/>
<path d="M306.148 140.836L307.458 147.174" stroke="#001E6C" stroke-linecap="round" stroke-linejoin="round"/>
<path d="M253.363 180.76L256.704 183.464C256.704 183.464 259.73 186.769 260.109 186.569C260.489 186.369 261.54 184.423 262.17 182.656C262.799 180.889 261.991 178.449 261.991 178.449L261.848 173.692L259.923 173.613L259.959 180.166L258.843 181.597L254.372 179.487L253.363 180.76Z" fill="#F86202" stroke="#001E6C" stroke-linecap="round" stroke-linejoin="round"/>
<path d="M245.48 171.354C245.48 171.354 245.609 175.725 247.119 178.78C248.628 181.835 251.025 185.812 252.019 184.832C253.013 183.852 256.19 176.319 257.027 175.904C257.864 175.489 265.769 177.263 266.828 176.62C267.886 175.976 264.309 167.734 262.714 165.767C258.558 160.645 256.748 160.259 255.997 160.566C255.246 160.874 245.752 165.667 245.48 171.354Z" fill="#F86202" stroke="#001E6C" stroke-linecap="round" stroke-linejoin="round"/>
<path d="M246.047 170.453C247.814 172.416 249.727 174.243 251.77 175.918C255.347 178.894 258.673 182.707 258.845 181.598C259.017 180.49 258.48 163.921 258.33 163.048C258.247 162.544 258.072 162.059 257.815 161.618L254.374 156.746L253.973 152.332C253.973 152.332 252.936 151.524 251.348 152.697C249.76 153.87 251.892 161.024 250.704 164.007C249.517 166.99 246.047 170.453 246.047 170.453Z" fill="#FFEAD5" stroke="#001E6C" stroke-linecap="round" stroke-linejoin="round"/>
<path d="M236.289 147.031C236.289 147.031 233.907 150.844 234.143 152.41C234.379 153.977 235.101 157.418 234.808 158.849C234.515 160.28 231.474 162.919 232.326 163.671C233.177 164.422 236.346 164.143 236.346 164.143L236.94 166.01C236.94 166.01 238.864 163.148 242.091 163.685C245.317 164.221 249.509 163.034 250.139 161.496C250.768 159.958 250.139 155.587 249.18 153.863C248.222 152.139 246.319 150.944 246.555 149.027C246.791 147.109 248.379 145.579 246.018 144.377C243.657 143.175 236.289 147.031 236.289 147.031Z" fill="#FFEAD5" stroke="#001E6C" stroke-linecap="round" stroke-linejoin="round"/>
<path d="M234.648 143.21C234.648 143.21 229.691 142.544 229.977 144.197C230.263 145.849 231.408 147.266 237.56 147.638C243.712 148.01 245.486 146.808 245.486 146.808C245.486 146.808 241.287 148.954 243.047 150.385C244.371 151.373 245.781 152.24 247.261 152.975C247.261 152.975 249.75 159.084 249.686 160.264C249.621 161.445 247.632 162.411 245.88 162.618C244.127 162.826 241.587 162.196 239.441 163.198C237.295 164.199 236.687 165.909 237.36 166.689C238.032 167.468 240.336 174.601 241.773 174.622C243.211 174.644 252.018 168.549 253.162 165.844C254.307 163.14 251.167 158.476 252.089 157.045C253.012 155.614 258.528 155.486 259.379 150.499C260.23 145.513 255.724 139.661 251.832 137.916C247.94 136.17 242.532 137.551 241.294 138.123C240.695 138.378 240.12 138.687 239.577 139.046C239.577 139.046 234.999 137.952 233.468 139.475C231.937 140.999 234.648 143.21 234.648 143.21Z" fill="#121213" stroke="#121213" stroke-linecap="round" stroke-linejoin="round"/>
<path d="M239.573 157.327C239.709 158.093 239.502 158.758 239.116 158.837C238.729 158.916 238.314 158.336 238.178 157.564C238.043 156.791 238.25 156.133 238.636 156.054C239.023 155.975 239.452 156.555 239.573 157.327Z" fill="#1A004F"/>
<path d="M236.949 154.554C236.949 154.554 237.665 153.173 239.661 154.175" stroke="#001E6C" stroke-linecap="round" stroke-linejoin="round"/>
<path d="M240.152 166.899C240.152 166.899 241.776 166.978 242.892 164.639" stroke="#F86202" stroke-linecap="round" stroke-linejoin="round"/>
<path d="M252.073 158.479C252.073 158.479 250.449 154.28 252.509 153.207C254.57 152.134 256.022 153.858 255.707 156.691C255.392 159.523 254.477 160.482 253.926 160.403" fill="#FFEAD5"/>
<path d="M252.073 158.479C252.073 158.479 250.449 154.28 252.509 153.207C254.57 152.134 256.022 153.858 255.707 156.691C255.392 159.523 254.477 160.482 253.926 160.403" stroke="#001E6C" stroke-linecap="round" stroke-linejoin="round"/>
<path d="M260.426 197.562C260.426 197.562 265.684 188.848 266.192 188.412C266.7 187.976 275.206 189.306 275.206 189.306C275.206 189.306 276 189.864 275.578 191.452C275.156 193.041 275.399 196.46 274.648 196.861C273.335 197.314 272.001 197.698 270.649 198.013L270.377 197.111C270.377 197.111 268.538 199.293 267.88 199.522C267.222 199.751 264.732 200.18 264.732 200.18L261.914 202.763L260.426 197.562Z" fill="#FFEAD5" stroke="#001E6C" stroke-linecap="round" stroke-linejoin="round"/>
<path d="M237.677 179.227C237.677 179.227 231.954 184.642 231.317 186.967C230.681 189.292 230.509 220.097 231.553 222.128C232.598 224.16 236.275 221.084 236.561 220.912C236.847 220.74 261.879 202.784 261.879 202.784L260.391 197.562L243.386 204.265L244.423 190.673" fill="#F08419"/>
<path d="M237.677 179.227C237.677 179.227 231.954 184.642 231.317 186.967C230.681 189.292 230.509 220.097 231.553 222.128C232.598 224.16 236.275 221.084 236.561 220.912C236.847 220.74 261.879 202.784 261.879 202.784L260.391 197.562L243.386 204.265L244.423 190.673" stroke="#001E6C" stroke-linecap="round" stroke-linejoin="round"/>
<path d="M234.528 212.225C234.357 213.333 234.285 214.192 234.285 214.192" stroke="#001E6C" stroke-linecap="round" stroke-linejoin="round"/>
<path d="M243.359 204.262C243.359 204.262 237.128 206.615 235.926 207.76C235.343 208.563 234.964 209.496 234.824 210.478" stroke="#001E6C" stroke-linecap="round" stroke-linejoin="round"/>
<path d="M256.906 198.873L258.544 204.997" stroke="#001E6C" stroke-linecap="round" stroke-linejoin="round"/>
<path d="M325.324 136.549C325.324 136.549 327.678 136.992 327.47 137.98C327.263 138.967 324.888 142.909 324.888 142.909C324.888 142.909 319.687 141.585 319.88 140.162C319.99 139.484 320.288 138.852 320.741 138.336C321.194 137.821 321.783 137.445 322.441 137.25C323.736 136.864 325.324 136.549 325.324 136.549Z" fill="white" stroke="#001E6C" stroke-linecap="round" stroke-linejoin="round"/>
<path d="M310.094 139.382C310.094 139.382 316.01 135.934 319.208 135.719C322.406 135.505 330.339 132.858 331.434 132.579C332.528 132.3 332.779 132.765 331.92 133.931C331.062 135.097 328.958 135.662 327.943 136.077C326.927 136.492 322.377 137.615 322.119 138.366C321.979 138.772 321.956 139.21 322.055 139.628C322.154 140.046 322.37 140.427 322.677 140.727C323.343 141.321 326.362 142.115 326.183 143.124C326.004 144.132 325.661 144.375 325.074 144.368C324.487 144.361 322.391 143.496 321.39 143.317C320.388 143.138 317.934 143.696 316.847 143.431C316.075 143.229 315.319 142.968 314.586 142.651L311.875 144.347L310.094 139.382Z" fill="#FFEAD5" stroke="#001E6C" stroke-linecap="round" stroke-linejoin="round"/>
<path d="M260.106 186.569C260.106 186.569 256.686 189.96 250.205 188.622C243.723 187.284 235.532 182.384 231.311 181.812C227.091 181.239 221.804 183.865 217.411 184.23C213.019 184.595 210.73 183.4 210.73 183.4L203.848 187.757L211.76 192.564C211.76 192.564 213.412 193.551 219.894 192.464C226.375 191.376 233.336 187.621 236.398 188.651C239.46 189.681 248.609 193.344 253.259 192.228C257.909 191.112 260.106 186.569 260.106 186.569Z" fill="#F86202" stroke="#001E6C" stroke-linecap="round" stroke-linejoin="round"/>
<path d="M199.387 227.435C199.387 227.435 202.427 228.773 202.084 229.181C201.882 229.357 201.637 229.475 201.374 229.523C201.111 229.571 200.839 229.547 200.589 229.453C200.281 229.303 197.012 227.35 197.012 227.35L199.387 227.435Z" fill="white" stroke="#001E6C" stroke-linecap="round" stroke-linejoin="round"/>
<path d="M197.704 228.098C197.704 228.098 199.765 230.172 199.357 230.244C198.899 230.365 198.411 230.304 197.998 230.072C197.418 229.553 196.871 228.999 196.359 228.412L197.704 228.098Z" fill="white" stroke="#001E6C" stroke-linecap="round" stroke-linejoin="round"/>
<path d="M196.548 229.311C196.548 229.311 197.828 230.162 197.471 230.505C197.113 230.849 196.04 230.505 195.811 230.248C195.541 230.041 195.251 229.861 194.945 229.711L196.548 229.311Z" fill="white" stroke="#001E6C" stroke-linecap="round" stroke-linejoin="round"/>
<path d="M170.274 213.891L188.759 228.535C188.759 228.535 187.708 230.824 186.771 231.396L185.826 231.99C185.826 231.99 176.204 229.765 172.377 228.263C168.55 226.76 164.73 224.836 164.73 224.836C164.73 224.836 162.934 222.439 163.564 221.259C164.193 220.079 170.274 213.891 170.274 213.891Z" fill="#FFEAD5" stroke="#001E6C" stroke-linecap="round" stroke-linejoin="round"/>
<path d="M188.769 228.539C188.769 228.539 193.183 225.749 194.399 225.527C195.615 225.306 202.841 227.023 203.134 227.495C203.427 227.967 203.077 228.346 202.576 228.439C202.075 228.532 197.032 227.352 197.032 227.352C197.032 227.352 194.728 230.807 191.802 231.973C189.872 232.643 187.774 232.656 185.836 232.009C185.836 232.009 188.418 230.07 188.769 228.539Z" fill="#FFEAD5" stroke="#001E6C" stroke-linecap="round" stroke-linejoin="round"/>
<path d="M191.652 229.581C192.716 229.175 193.751 228.697 194.749 228.151C195.907 227.507 196.995 226.748 197.997 225.883C198.713 225.125 199.264 225.339 199.428 226.148C199.469 226.524 199.394 226.904 199.212 227.237C199.031 227.57 198.752 227.839 198.412 228.008C197.754 228.444 196.545 229.295 196.545 229.295C196.545 229.295 195.036 231.348 193.49 232.049C191.945 232.751 189.155 232.421 188.762 231.971" fill="#FFEAD5"/>
<path d="M191.652 229.581C192.716 229.175 193.751 228.697 194.749 228.151C195.907 227.507 196.995 226.748 197.997 225.883C198.713 225.125 199.264 225.339 199.428 226.148C199.469 226.524 199.394 226.904 199.212 227.237C199.031 227.57 198.752 227.839 198.412 228.008C197.754 228.444 196.545 229.295 196.545 229.295C196.545 229.295 195.036 231.348 193.49 232.049C191.945 232.751 189.155 232.421 188.762 231.971" stroke="#001E6C" stroke-linecap="round" stroke-linejoin="round"/>
<path d="M170.955 240.789C170.955 240.789 193.003 259.132 193.747 260.105C194.491 261.078 195.607 300.409 195.607 300.409L197.51 301.611C197.609 302.113 197.657 302.624 197.653 303.135C197.589 303.564 202.268 306.09 205.229 307.664C208.191 309.237 208.642 307.885 208.184 309.23C207.726 310.575 202.461 311.119 201.066 311.09C199.671 311.062 196.809 310.883 195.586 311.09C194.363 311.298 190.686 311.984 189.992 311.269C189.298 310.554 188.876 305.138 188.876 305.138C188.442 304.495 188.079 303.807 187.795 303.085C187.641 302.124 187.56 301.153 187.552 300.181C187.609 299.744 180.634 266.836 180.634 266.836L152.47 255.126L149.687 256.056C149.687 256.056 141.76 279.721 141.453 281.18C141.145 282.639 118.682 312.564 118.682 312.564C118.682 312.564 115.634 317.214 115.377 318.101C115.119 318.988 112.816 319.839 112.816 319.839C112.816 319.839 109.639 328.896 109.203 330.377C108.767 331.858 107.264 332.845 105.519 333.303C103.773 333.761 101.942 328.188 102.793 326.063C103.645 323.939 108.28 317.607 108.28 317.607C108.329 316.776 108.463 315.951 108.681 315.146C109.266 314.136 109.939 313.178 110.691 312.285L124.92 276.916L128.576 243.608C128.576 243.608 154.516 250.111 170.955 240.789Z" fill="#121213" stroke="#121213" stroke-linecap="round" stroke-linejoin="round"/>
<path d="M153.026 189.815C153.026 189.815 137.094 194.916 135.856 196.254C134.619 197.592 115.539 218.703 110.925 226.136C106.311 233.569 101.625 245.845 101.625 245.845L106.933 247.39C106.933 247.39 115.718 235.672 118.322 233.311C120.926 230.95 138.403 213.631 138.403 213.631L139.834 222.587L124.203 241.981C124.203 241.981 127.121 247.633 136.078 250.816C145.035 254 153.727 253.986 161.481 249.436C165.616 247.078 169.58 244.431 173.342 241.516C173.342 241.516 168.721 232.825 167.319 228.575C165.917 224.326 165.008 221.664 165.008 221.664C165.008 221.664 171.618 215.941 171.311 213.709C171.003 211.477 170.781 206.792 170.831 206.47C170.882 206.148 173.979 198.457 173.207 195.353C172.434 192.248 170.803 190.967 168.442 189.959C166.709 189.305 164.872 188.965 163.019 188.957L153.026 189.815Z" fill="#006CBA" stroke="#001E6C" stroke-linecap="round" stroke-linejoin="round"/>
<path d="M154.814 187.607C153.743 188.17 152.776 188.91 151.952 189.796C150.736 191.169 148.518 203.724 149.455 206.586C150.393 209.447 151.108 209.326 152.474 208.732C153.841 208.138 159.771 203.946 159.771 203.946C159.771 203.946 167.19 207.308 168.978 206.772C170.767 206.235 168.935 198.509 167.376 193.974C165.816 189.438 165.945 188.901 162.711 186.762C159.478 184.623 154.814 187.607 154.814 187.607Z" fill="#F86202" stroke="#001E6C" stroke-linecap="round" stroke-linejoin="round"/>
<path d="M165.389 161.175C165.389 161.175 168.665 163.615 170.067 166.712C171.47 169.81 171.498 170.733 173.423 171.334C175.347 171.935 176.878 171.334 176.856 172.385C176.835 173.437 174.317 175.676 174.317 175.676C174.317 175.676 175.247 182.522 175.333 183.545C175.418 184.568 167.964 185.62 167.964 185.62C167.964 185.62 162.577 199.169 161.969 202.739C161.597 204.887 160.664 206.898 159.265 208.57L154 190.048L154.615 182.501C154.067 181.402 153.615 180.258 153.263 179.081C152.548 176.806 155.745 173.187 157.312 171.434C159.447 168.739 161.267 165.808 162.735 162.699C163.851 160.195 165.389 161.175 165.389 161.175Z" fill="#FFEAD5" stroke="#001E6C" stroke-linecap="round" stroke-linejoin="round"/>
<path d="M167.959 185.619L164.504 185.984L166.3 189.032L167.959 185.619Z" fill="#001E6C" stroke="#001E6C" stroke-linecap="round" stroke-linejoin="round"/>
<path d="M170.339 170.637C170.561 171.388 170.432 172.068 170.053 172.19C169.673 172.311 169.201 171.775 168.987 171.031C168.772 170.287 168.901 169.6 169.273 169.471C169.645 169.342 170.124 169.922 170.339 170.637Z" fill="#1A004F"/>
<path d="M167.688 168.703C167.688 168.703 168.403 167.422 169.404 167.766" stroke="#001E6C" stroke-linecap="round" stroke-linejoin="round"/>
<path d="M170.027 176.242C170.297 176.722 170.704 177.11 171.196 177.356C171.689 177.602 172.243 177.695 172.789 177.623" stroke="#001E6C" stroke-linecap="round" stroke-linejoin="round"/>
<path d="M160.038 177.22C160.038 177.22 162.628 175.911 162.757 174.316C162.886 172.721 159.767 170.567 161.326 168.815C162.886 167.062 166.155 165.424 166.062 160.309C165.969 155.194 159.087 154.249 155.624 154.772C152.162 155.294 144.786 158.527 142.747 164.029C140.709 169.53 141.445 174.108 143.391 177.321C145.118 180.016 147.833 181.927 150.953 182.643C153.099 183.079 155.245 184.274 156.497 183.723C157.749 183.172 157.756 180.862 157.756 179.724C157.756 178.587 160.038 177.22 160.038 177.22Z" fill="#121213" stroke="#121213" stroke-linecap="round" stroke-linejoin="round"/>
<path d="M161.823 178.37C161.823 178.37 158.068 174.965 156.859 175.816C156.48 176.091 156.169 176.449 155.949 176.862C155.73 177.276 155.607 177.734 155.592 178.201C155.576 178.669 155.667 179.134 155.858 179.561C156.049 179.989 156.335 180.367 156.694 180.667C157.029 180.979 157.424 181.219 157.856 181.37C158.288 181.522 158.746 181.583 159.203 181.549C159.659 181.514 160.104 181.386 160.508 181.171C160.912 180.957 161.268 180.661 161.552 180.302" fill="#FFEAD5"/>
<path d="M161.823 178.37C161.823 178.37 158.068 174.965 156.859 175.816C156.48 176.091 156.169 176.449 155.949 176.862C155.73 177.276 155.607 177.734 155.592 178.201C155.576 178.669 155.667 179.134 155.858 179.561C156.049 179.989 156.335 180.367 156.694 180.667C157.029 180.979 157.424 181.219 157.856 181.37C158.288 181.522 158.746 181.583 159.203 181.549C159.659 181.514 160.104 181.386 160.508 181.171C160.912 180.957 161.268 180.661 161.552 180.302" stroke="#001E6C" stroke-linecap="round" stroke-linejoin="round"/>
<path d="M142.244 165.179C142.244 165.179 139.869 159.641 132.444 160.257C125.018 160.872 124.109 166.802 124.875 169.285C125.64 171.767 127.2 175.144 125.476 175.459C123.752 175.773 120.103 175.287 117.17 178.749C114.237 182.212 117.506 187.484 120.912 188.336C124.317 189.187 123.666 189.087 123.666 189.087C123.666 189.087 119.373 189.037 120.189 192.442C121.005 195.847 128.151 195.919 130.863 194.688C133.574 193.458 130.348 189.545 130.348 189.545C130.348 189.545 135.591 189.008 137.358 187.22C139.125 185.431 136.958 184.465 139.254 183.843C141.55 183.221 143.918 184.143 144.426 181.747C144.934 179.35 143.797 180.602 143.41 177.326C143.024 174.049 140.57 173.234 142.244 165.179Z" fill="#121213" stroke="#121213" stroke-linecap="round" stroke-linejoin="round"/>
<path d="M138.402 213.634L144.283 209.105" stroke="#001E6C" stroke-linecap="round" stroke-linejoin="round"/>
<path d="M106.949 247.43C106.949 247.43 106.813 251.508 106.949 252.38C107.284 253.717 107.786 255.005 108.444 256.215C109.031 257.209 110.476 258.547 109.875 259.155C109.274 259.763 108.137 258.969 107.729 258.44C107.237 257.645 106.786 256.826 106.377 255.986L105.862 264.692L104.846 265.179C104.543 264.845 104.362 264.419 104.331 263.97C104.331 263.254 103.716 257.875 103.716 257.875C103.716 257.875 101.877 265.923 101.641 266.266C101.405 266.61 100.246 266.316 100.253 265.815C100.26 265.315 100.904 258.383 100.904 258.383C100.904 258.383 98.8225 265.079 98.6795 265.401C98.5364 265.722 97.5849 266.001 97.3059 265.551C97.0269 265.1 97.5849 263.798 97.5849 263.798L99.1087 258.411L96.0039 263.383C96.0039 263.383 95.1311 263.541 95.2885 262.711C95.4459 261.881 97.9068 256.73 97.9068 256.73C97.9068 256.73 97.9569 253.711 98.2431 253.06C98.5292 252.409 101.598 245.906 101.598 245.906L106.949 247.43Z" fill="#FFEAD5" stroke="#001E6C" stroke-linecap="round" stroke-linejoin="round"/>
<g filter="url(#filter0_d_27_172)">
<g style="mix-blend-mode:multiply">
<path d="M461.422 117.886C464.422 140.102 462.488 209.432 462.011 216.481C462.011 216.59 489.706 203.091 489.706 203.091C489.706 203.091 515.481 217.365 515.478 217.289C515.302 208.109 516.052 147.23 513.48 115.895L461.422 117.886Z" fill="#AFBDC3"/>
</g>
<path d="M445.208 97.7194C446.702 127.424 450.401 170.127 432.148 231.367C432.118 231.509 475.937 211.312 475.937 211.312C475.937 211.312 510.945 235.671 510.975 235.562C522.607 191.205 519.017 137.496 515.74 94.8652L445.208 97.7194Z" fill="url(#paint8_linear_27_172)"/>
<path opacity="0.18" d="M515.738 94.8516L446.609 97.6664C446.737 106.913 446.888 117.261 446.503 128.817C446.645 138.13 446.478 148.315 445.652 159.454H445.956C448.993 159.499 450.8 159.793 451.726 160.011L451.256 161.333C451.256 161.333 450.26 164.057 454.943 163.452C457.98 163.074 459.802 163.119 460.713 163.207L460.431 164.578C460.431 164.578 459.823 167.414 464.379 166.185C467.325 165.389 469.129 165.18 470.067 165.138L469.979 166.536C469.979 166.536 469.779 169.427 474.116 167.577C476.925 166.367 478.671 165.925 479.603 165.761L479.713 167.16C479.713 167.16 479.916 170.05 483.965 167.617C486.58 166.043 488.256 165.347 489.143 165.047L489.447 166.415C489.447 166.415 490.054 169.248 493.698 166.279C496.07 164.36 497.631 163.437 498.47 163.019L498.962 164.33C498.962 164.33 499.958 167.054 503.165 163.606C505.242 161.376 506.664 160.244 507.435 159.714L508.103 160.946C508.103 160.946 509.47 163.503 512.167 159.644C513.913 157.144 515.158 155.831 515.851 155.198L516.686 156.324C516.81 156.495 516.968 156.639 517.15 156.747C517.332 156.855 517.534 156.925 517.744 156.951C517.955 156.978 518.168 156.961 518.372 156.902C518.575 156.843 518.764 156.743 518.927 156.608C518.727 135.04 517.208 113.853 515.738 94.8516Z" fill="black"/>
<path d="M528.914 107.283L541.084 108.461C541.084 108.461 543.729 108.739 542.171 104.72C540.613 100.7 540.595 99.0263 540.595 98.9295C536.188 98.4664 529.904 97.9004 529.904 97.9004L528.914 107.283Z" fill="url(#paint9_linear_27_172)"/>
<path d="M529.737 99.1278L541.949 98.6042C541.949 98.6042 544.613 98.5134 542.505 94.7512C540.397 90.989 540.145 89.3273 540.142 89.2305C535.708 89.3848 529.406 89.7026 529.406 89.7026L529.737 99.1278Z" fill="url(#paint10_linear_27_172)"/>
<path d="M490.506 47.6694L492.11 35.5928C492.11 35.5928 492.48 32.9656 488.398 34.3821C484.317 35.7986 482.628 35.7563 482.534 35.7441C481.926 40.1238 481.137 46.3618 481.137 46.3618L490.506 47.6694Z" fill="url(#paint11_linear_27_172)"/>
<path d="M483.357 46.5956L483.259 34.4131C483.259 34.4131 483.259 31.7586 479.415 33.726C475.57 35.6934 473.893 35.8871 473.793 35.8871C473.793 40.3061 473.893 46.5956 473.893 46.5956H483.357Z" fill="url(#paint12_linear_27_172)"/>
<path d="M476.127 46.5239L474.326 34.4746C474.326 34.4746 473.955 31.8474 470.423 34.3263C466.891 36.8051 465.26 37.2319 465.16 37.244C465.768 41.6237 466.755 47.8375 466.755 47.8375L476.127 46.5239Z" fill="url(#paint13_linear_27_172)"/>
<path d="M468.955 47.4552L465.49 35.763C465.49 35.763 464.755 33.2145 461.605 36.1595C458.456 39.1045 456.895 39.7522 456.801 39.7915C458.016 44.0289 459.856 50.0611 459.856 50.0611L468.955 47.4552Z" fill="url(#paint14_linear_27_172)"/>
<path d="M461.983 49.3863L456.92 38.2844C456.92 38.2844 455.839 35.863 453.127 39.2136C450.415 42.5641 448.966 43.4268 448.875 43.451C450.679 47.4886 453.336 53.1939 453.336 53.1939L461.983 49.3863Z" fill="url(#paint15_linear_27_172)"/>
<path d="M455.362 52.2344L448.802 41.9436C448.802 41.9436 447.39 39.6917 445.176 43.3903C442.962 47.089 441.644 48.1392 441.559 48.1907C443.909 51.9408 447.329 57.2193 447.329 57.2193L455.362 52.2344Z" fill="url(#paint16_linear_27_172)"/>
<path d="M449.18 55.9892L441.247 46.7214C441.247 46.7214 439.534 44.6875 437.858 48.6555C436.181 52.6235 435.021 53.8493 434.945 53.9129C437.797 57.2997 441.931 62.0517 441.931 62.0517L449.18 55.9892Z" fill="url(#paint17_linear_27_172)"/>
<path d="M443.598 60.5818L434.448 52.5035C434.448 52.5035 432.471 50.7269 431.362 54.8916C430.254 59.0564 429.279 60.4244 429.215 60.4971C432.51 63.4572 437.266 67.5917 437.266 67.5917L443.598 60.5818Z" fill="url(#paint18_linear_27_172)"/>
<path d="M438.696 65.8727L428.512 59.1413C428.512 59.1413 426.304 57.6582 425.779 61.935C425.254 66.2117 424.488 67.7039 424.434 67.7856C428.111 70.2584 433.396 73.6907 433.396 73.6907L438.696 65.8727Z" fill="url(#paint19_linear_27_172)"/>
<path d="M434.597 71.8054L423.572 66.5541C423.572 66.5541 421.179 65.3918 421.264 69.6958C421.349 73.9998 420.796 75.5888 420.754 75.6766C424.739 77.6137 430.454 80.2832 430.454 80.2832L434.597 71.8054Z" fill="url(#paint20_linear_27_172)"/>
<path d="M431.368 78.2506L419.714 74.5792C419.714 74.5792 417.182 73.7589 417.868 78.0115C418.554 82.264 418.226 83.9136 418.196 84.0044C422.411 85.3724 428.443 87.2187 428.443 87.2187L431.368 78.2506Z" fill="url(#paint21_linear_27_172)"/>
<path d="M429.063 85.082L417.006 83.0632C417.006 83.0632 414.385 82.6032 415.657 86.7165C416.93 90.8298 416.836 92.5126 416.817 92.6064C421.188 93.3752 427.417 94.371 427.417 94.371L429.063 85.082Z" fill="url(#paint22_linear_27_172)"/>
<path d="M427.739 92.163L415.518 91.8361C415.518 91.8361 412.858 91.7453 414.692 95.6407C416.526 99.5361 416.666 101.216 416.663 101.316C421.097 101.467 427.408 101.588 427.408 101.588L427.739 92.163Z" fill="url(#paint23_linear_27_172)"/>
<path d="M427.415 99.3613L415.266 100.729C415.266 100.729 412.618 101.008 414.981 104.613C417.344 108.217 417.714 109.858 417.714 109.958C422.124 109.495 428.389 108.747 428.389 108.747L427.415 99.3613Z" fill="url(#paint24_linear_27_172)"/>
<path d="M428.1 106.535L416.256 109.58C416.256 109.58 413.671 110.222 416.514 113.463C419.356 116.705 419.955 118.279 419.979 118.376C424.282 117.304 430.381 115.688 430.381 115.688L428.1 106.535Z" fill="url(#paint25_linear_27_172)"/>
<path d="M429.776 113.549L418.478 118.204C418.478 118.204 416.012 119.197 419.28 122.015C422.548 124.832 423.359 126.306 423.395 126.397C427.51 124.742 433.32 122.293 433.32 122.293L429.776 113.549Z" fill="url(#paint26_linear_27_172)"/>
<path d="M432.413 120.252L421.878 126.427C421.878 126.427 419.573 127.752 423.202 130.089C426.831 132.425 427.839 133.772 427.891 133.857C431.733 131.648 437.148 128.409 437.148 128.409L432.413 120.252Z" fill="url(#paint27_linear_27_172)"/>
<path d="M435.969 126.527L426.396 134.094C426.396 134.094 424.3 135.726 428.218 137.535C432.136 139.345 433.326 140.541 433.381 140.62C436.877 137.896 441.787 133.961 441.787 133.961L435.969 126.527Z" fill="url(#paint28_linear_27_172)"/>
<path d="M440.371 132.252L431.943 141.093C431.943 141.093 430.094 143 434.23 144.247C438.367 145.494 439.697 146.517 439.779 146.583C442.862 143.402 447.171 138.811 447.171 138.811L440.371 132.252Z" fill="url(#paint29_linear_27_172)"/>
<path d="M445.515 137.307L438.409 147.222C438.409 147.222 436.844 149.368 441.115 150.031C445.385 150.694 446.855 151.517 446.934 151.575C449.542 147.997 453.172 142.852 453.172 142.852L445.515 137.307Z" fill="url(#paint30_linear_27_172)"/>
<path d="M451.319 141.6L445.667 152.405C445.667 152.405 444.419 154.745 448.738 154.811C453.057 154.878 454.633 155.483 454.718 155.532C456.801 151.627 459.677 146.028 459.677 146.028L451.319 141.6Z" fill="url(#paint31_linear_27_172)"/>
<path d="M457.673 145.051L453.573 156.531C453.573 156.531 452.662 159.022 456.95 158.486C461.239 157.951 462.879 158.338 462.973 158.371C464.491 154.216 466.554 148.274 466.554 148.274L457.673 145.051Z" fill="url(#paint32_linear_27_172)"/>
<path d="M464.434 147.582L461.989 159.519C461.989 159.519 461.434 162.113 465.607 160.987C469.779 159.861 471.456 160.019 471.553 160.037C472.464 155.712 473.679 149.543 473.679 149.543L464.434 147.582Z" fill="url(#paint33_linear_27_172)"/>
<path d="M471.497 149.148L470.744 161.31C470.744 161.31 470.558 163.955 474.531 162.263C478.503 160.571 480.189 160.49 480.286 160.499C480.59 156.086 480.939 149.808 480.939 149.808L471.497 149.148Z" fill="url(#paint34_linear_27_172)"/>
<path d="M478.703 149.723L479.654 161.869C479.654 161.869 479.839 164.518 483.538 162.287C487.237 160.056 488.892 159.748 488.99 159.742C488.686 155.332 488.142 149.066 488.142 149.066L478.703 149.723Z" fill="url(#paint35_linear_27_172)"/>
<path d="M485.93 149.297L488.566 161.192C488.566 161.192 489.122 163.789 492.471 161.068C495.821 158.347 497.422 157.811 497.516 157.79C496.605 153.468 495.187 147.336 495.187 147.336L485.93 149.297Z" fill="url(#paint36_linear_27_172)"/>
<path d="M493.008 147.868L497.281 159.285C497.281 159.285 498.192 161.776 501.132 158.619C504.072 155.462 505.578 154.714 505.669 154.675C504.151 150.516 501.903 144.645 501.903 144.645L493.008 147.868Z" fill="url(#paint37_linear_27_172)"/>
<path d="M499.82 145.469L505.661 156.181C505.661 156.181 506.912 158.52 509.381 154.988C511.85 151.456 513.235 150.496 513.329 150.448C511.246 146.547 508.196 141.041 508.196 141.041L499.82 145.469Z" fill="url(#paint38_linear_27_172)"/>
<path d="M506.242 142.151L513.507 151.952C513.507 151.952 515.071 154.098 517.024 150.257C518.977 146.416 520.216 145.275 520.295 145.214C517.686 141.637 513.899 136.609 513.899 136.609L506.242 142.151Z" fill="url(#paint39_linear_27_172)"/>
<path d="M512.133 137.976L520.694 146.671C520.694 146.671 522.544 148.581 523.941 144.504C525.338 140.427 526.407 139.129 526.477 139.056C523.394 135.875 518.939 131.42 518.939 131.42L512.133 137.976Z" fill="url(#paint40_linear_27_172)"/>
<path d="M517.387 133.024L527.081 140.445C527.081 140.445 529.18 142.08 529.99 137.851C530.801 133.623 531.682 132.185 531.743 132.1C528.247 129.376 523.212 125.584 523.212 125.584L517.387 133.024Z" fill="url(#paint41_linear_27_172)"/>
<path d="M521.898 127.39L532.528 133.398C532.528 133.398 534.833 134.723 535.046 130.423C535.258 126.122 535.93 124.575 535.978 124.49C532.136 122.281 526.624 119.221 526.624 119.221L521.898 127.39Z" fill="url(#paint42_linear_27_172)"/>
<path d="M525.574 121.184L536.948 125.655C536.948 125.655 539.414 126.65 539.028 122.359C538.643 118.067 539.086 116.447 539.122 116.357C535.007 114.701 529.121 112.422 529.121 112.422L525.574 121.184Z" fill="url(#paint43_linear_27_172)"/>
<path d="M528.348 114.533L540.232 117.384C540.232 117.384 542.813 118.029 541.832 113.834C540.851 109.639 541.055 107.56 541.079 107.478C536.365 107.021 530.304 106.461 530.304 106.461L528.348 114.533Z" fill="url(#paint44_linear_27_172)"/>
<path d="M530.811 93.1966L542.835 90.984C542.835 90.984 545.456 90.524 542.835 87.0917C540.214 83.6594 539.74 82.0492 539.722 81.9463C535.355 82.7151 529.156 83.9015 529.156 83.9015L530.811 93.1966Z" fill="url(#paint45_linear_27_172)"/>
<path d="M529.632 86.091L541.224 82.2319C541.224 82.2319 543.757 81.4117 540.693 78.3759C537.628 75.3401 536.927 73.8086 536.896 73.7178C532.675 75.0828 526.707 77.1198 526.707 77.1198L529.632 86.091Z" fill="url(#paint46_linear_27_172)"/>
<path d="M527.466 79.2131L538.4 73.7832C538.4 73.7832 540.793 72.621 537.337 70.0392C533.881 67.4574 532.966 66.0409 532.921 65.9531C528.936 67.8902 523.309 70.7353 523.309 70.7353L527.466 79.2131Z" fill="url(#paint47_linear_27_172)"/>
<path d="M524.364 72.7069L534.444 65.8121C534.444 65.8121 536.649 64.329 532.865 62.2527C529.08 60.1764 527.981 58.8991 527.923 58.8174C524.248 61.2902 519.07 64.889 519.07 64.889L524.364 72.7069Z" fill="url(#paint48_linear_27_172)"/>
<path d="M520.382 66.6925L529.399 58.4629C529.399 58.4629 531.376 56.6862 527.34 55.1547C523.304 53.6232 522.034 52.5094 521.967 52.4307C518.672 55.4029 514.047 59.6736 514.047 59.6736L520.382 66.6925Z" fill="url(#paint49_linear_27_172)"/>
<path d="M515.597 61.289L523.381 51.9062C523.381 51.9062 525.091 49.8722 520.879 48.9158C516.666 47.9594 515.257 47.0332 515.178 46.9727C512.329 50.3565 508.348 55.2386 508.348 55.2386L515.597 61.289Z" fill="url(#paint50_linear_27_172)"/>
<path d="M510.105 56.6014L516.501 46.2198C516.501 46.2198 517.91 43.9679 513.604 43.6047C509.297 43.2415 507.776 42.5212 507.691 42.4697C505.34 46.2198 502.078 51.6043 502.078 51.6043L510.105 56.6014Z" fill="url(#paint51_linear_27_172)"/>
<path d="M504.014 52.7122L508.894 41.5436C508.894 41.5436 509.978 39.1223 505.666 39.3583C501.353 39.5944 499.737 39.092 499.649 39.0557C497.842 43.0963 495.367 48.8804 495.367 48.8804L504.014 52.7122Z" fill="url(#paint52_linear_27_172)"/>
<path d="M497.439 49.7243L500.716 37.9867C500.716 37.9867 501.448 35.4382 497.208 36.2706C492.969 37.1029 492.045 36.8759 491.945 36.8759C490.73 41.1133 489.242 47.5027 489.242 47.5027L497.439 49.7243Z" fill="url(#paint53_linear_27_172)"/>
<path opacity="0.19" d="M478.999 46.5947C468.452 46.5947 458.142 49.7118 449.372 55.5516C440.602 61.3915 433.767 69.692 429.731 79.4033C425.695 89.1146 424.639 99.8007 426.697 110.11C428.755 120.419 433.834 129.889 441.292 137.322C448.751 144.754 458.253 149.816 468.598 151.866C478.942 153.916 489.665 152.863 499.409 148.84C509.153 144.817 517.482 138.005 523.341 129.265C529.2 120.525 532.327 110.249 532.327 99.7376C532.326 85.643 526.707 72.1259 516.706 62.1597C506.706 52.1936 493.142 46.5947 478.999 46.5947ZM478.999 145.547C469.908 145.547 461.021 142.86 453.462 137.827C445.903 132.793 440.012 125.639 436.533 117.268C433.054 108.898 432.143 99.6868 433.917 90.8007C435.691 81.9146 440.068 73.7522 446.497 67.3456C452.925 60.9391 461.115 56.5762 470.032 54.8086C478.948 53.0411 488.191 53.9483 496.59 57.4155C504.989 60.8826 512.168 66.7541 517.218 74.2874C522.269 81.8207 524.965 90.6774 524.965 99.7376C524.965 111.887 520.122 123.539 511.502 132.13C502.882 140.721 491.19 145.547 478.999 145.547Z" fill="#00336A"/>
<path d="M479.001 144.036C469.91 144.036 461.023 141.35 453.464 136.316C445.905 131.283 440.013 124.128 436.534 115.758C433.055 107.387 432.145 98.1764 433.918 89.2903C435.692 80.4042 440.07 72.2417 446.498 65.8352C452.927 59.4287 461.117 55.0658 470.033 53.2982C478.95 51.5306 488.192 52.4378 496.591 55.905C504.99 59.3722 512.169 65.2437 517.22 72.777C522.271 80.3103 524.967 89.167 524.967 98.2272C524.967 104.243 523.778 110.2 521.468 115.758C519.158 121.315 515.772 126.365 511.503 130.619C507.235 134.873 502.168 138.247 496.591 140.549C491.014 142.852 485.037 144.036 479.001 144.036Z" fill="#DCDCDC"/>
<path d="M479.005 141.841C470.152 141.841 461.498 139.225 454.137 134.323C446.775 129.422 441.038 122.455 437.65 114.303C434.262 106.152 433.375 97.1823 435.102 88.5288C436.829 79.8753 441.092 71.9264 447.352 65.6874C453.612 59.4483 461.588 55.1993 470.271 53.4777C478.953 51.756 487.954 52.639 496.133 56.0151C504.313 59.3911 511.304 65.1084 516.223 72.4442C521.142 79.78 523.768 88.4047 523.768 97.2278C523.769 103.086 522.611 108.888 520.362 114.3C518.112 119.713 514.815 124.631 510.659 128.774C506.502 132.917 501.567 136.203 496.136 138.445C490.705 140.687 484.884 141.841 479.005 141.841Z" fill="#DDDDDD"/>
<path d="M479.005 139.638C470.389 139.638 461.967 137.093 454.803 132.323C447.639 127.553 442.056 120.773 438.758 112.841C435.461 104.908 434.598 96.1795 436.278 87.7581C437.958 79.3368 442.107 71.6013 448.199 65.5297C454.291 59.4581 462.052 55.3232 470.502 53.6479C478.952 51.9726 487.711 52.8321 495.671 56.1178C503.631 59.4034 510.434 64.9677 515.221 72.1068C520.007 79.2459 522.562 87.6393 522.562 96.2256C522.562 101.926 521.436 107.571 519.247 112.838C517.059 118.105 513.85 122.891 509.806 126.922C505.761 130.954 500.959 134.151 495.674 136.333C490.389 138.515 484.725 139.638 479.005 139.638Z" fill="#DEDEDE"/>
<path d="M479.001 137.443C470.624 137.443 462.434 134.968 455.468 130.33C448.502 125.692 443.072 119.099 439.866 111.386C436.659 103.672 435.82 95.1844 437.454 86.9955C439.088 78.8067 443.122 71.2847 449.046 65.3808C454.97 59.4768 462.517 55.456 470.734 53.827C478.95 52.1979 487.467 53.0337 495.207 56.2287C502.947 59.4236 509.563 64.8342 514.217 71.7763C518.872 78.7183 521.356 86.88 521.356 95.2291C521.356 100.773 520.261 106.262 518.133 111.383C516.004 116.505 512.885 121.158 508.952 125.078C505.019 128.998 500.349 132.108 495.21 134.229C490.072 136.351 484.564 137.443 479.001 137.443Z" fill="#DFDFDF"/>
<path d="M478.998 135.246C470.858 135.246 462.901 132.841 456.133 128.335C449.364 123.828 444.089 117.423 440.973 109.929C437.858 102.434 437.043 94.1873 438.63 86.231C440.218 78.2747 444.137 70.9662 449.893 65.2299C455.648 59.4936 462.981 55.587 470.965 54.0042C478.948 52.4213 487.223 53.2334 494.743 56.3376C502.264 59.4419 508.691 64.6988 513.214 71.4438C517.736 78.1887 520.15 86.1186 520.15 94.2308C520.15 105.108 515.814 115.54 508.097 123.232C500.379 130.923 489.912 135.245 478.998 135.246Z" fill="#E0E0E0"/>
<path d="M479.006 133.048C471.104 133.048 463.38 130.714 456.809 126.339C450.238 121.964 445.117 115.746 442.093 108.471C439.068 101.195 438.277 93.1893 439.818 85.4655C441.359 77.7417 445.164 70.6468 450.751 65.0781C456.339 59.5093 463.458 55.7169 471.208 54.1803C478.958 52.6438 486.991 53.4321 494.292 56.4456C501.592 59.4591 507.832 64.5625 512.222 71.1103C516.612 77.6581 518.955 85.3563 518.955 93.2314C518.955 103.791 514.747 113.918 507.255 121.385C499.763 128.852 489.602 133.047 479.006 133.048Z" fill="#E1E1E1"/>
<path d="M479.001 130.847C471.337 130.847 463.846 128.582 457.474 124.339C451.102 120.096 446.136 114.065 443.203 107.009C440.271 99.9532 439.503 92.1891 440.998 84.6986C442.493 77.208 446.184 70.3276 451.603 64.9272C457.021 59.5268 463.925 55.8491 471.441 54.3592C478.958 52.8692 486.748 53.6339 493.828 56.5566C500.908 59.4792 506.96 64.4286 511.217 70.7787C515.475 77.1289 517.747 84.5947 517.747 92.2319C517.748 97.303 516.746 102.324 514.799 107.01C512.851 111.695 509.997 115.952 506.399 119.538C502.801 123.123 498.53 125.968 493.829 127.908C489.128 129.849 484.089 130.847 479.001 130.847Z" fill="#E2E2E2"/>
<path d="M478.989 128.649C471.564 128.649 464.305 126.454 458.131 122.343C451.957 118.232 447.145 112.388 444.303 105.551C441.462 98.7142 440.718 91.1911 442.167 83.933C443.615 76.675 447.191 70.0081 452.442 64.7754C457.692 59.5426 464.382 55.9791 471.665 54.5354C478.948 53.0917 486.496 53.8326 493.357 56.6646C500.217 59.4965 506.081 64.2922 510.206 70.4453C514.331 76.5983 516.533 83.8324 516.533 91.2326C516.533 96.1461 515.562 101.012 513.675 105.551C511.789 110.091 509.023 114.215 505.537 117.69C502.051 121.164 497.912 123.92 493.357 125.801C488.802 127.681 483.92 128.649 478.989 128.649Z" fill="#E3E3E3"/>
<path d="M479.017 126.453C471.829 126.453 464.802 124.328 458.826 120.348C452.85 116.368 448.192 110.711 445.441 104.093C442.691 97.4745 441.972 90.1919 443.375 83.1661C444.778 76.1404 448.24 69.687 453.323 64.6223C458.406 59.5575 464.883 56.1088 471.933 54.7124C478.983 53.316 486.29 54.0345 492.931 56.7771C499.571 59.5197 505.246 64.1632 509.238 70.1204C513.23 76.0775 515.36 83.0807 515.358 90.2442C515.356 99.8482 511.526 109.058 504.711 115.848C497.896 122.638 488.654 126.453 479.017 126.453Z" fill="#E4E4E4"/>
<path d="M479.002 124.255C472.052 124.255 465.258 122.201 459.48 118.353C453.701 114.505 449.198 109.036 446.538 102.637C443.879 96.2381 443.183 89.197 444.538 82.4039C445.894 75.6109 449.241 69.3711 454.155 64.4736C459.069 59.5761 465.33 56.2409 472.147 54.8897C478.963 53.5385 486.028 54.232 492.449 56.8825C498.87 59.533 504.358 64.0214 508.219 69.7803C512.08 75.5391 514.141 82.3097 514.141 89.2358C514.141 93.8347 513.232 98.3886 511.467 102.637C509.701 106.886 507.113 110.747 503.85 113.999C500.587 117.251 496.713 119.83 492.449 121.59C488.186 123.35 483.616 124.255 479.002 124.255Z" fill="#E5E5E5"/>
<path d="M479.001 122.055C472.289 122.056 465.728 120.072 460.147 116.356C454.565 112.64 450.215 107.358 447.646 101.178C445.077 94.9984 444.405 88.198 445.714 81.6372C447.024 75.0764 450.256 69.0499 455.002 64.3198C459.748 59.5898 465.795 56.3687 472.379 55.0638C478.962 53.7589 485.785 54.4289 491.987 56.9891C498.188 59.5492 503.488 63.8846 507.216 69.4468C510.945 75.009 512.935 81.5482 512.934 88.2375C512.934 92.6785 512.057 97.076 510.351 101.179C508.646 105.282 506.147 109.01 502.996 112.15C499.845 115.29 496.104 117.781 491.987 119.481C487.87 121.18 483.458 122.055 479.001 122.055Z" fill="#E6E6E6"/>
<path d="M479.011 119.857C472.538 119.856 466.209 117.943 460.827 114.358C455.444 110.773 451.249 105.678 448.772 99.7169C446.295 93.756 445.647 87.1969 446.911 80.8691C448.174 74.5413 451.292 68.7289 455.87 64.1669C460.448 59.605 466.28 56.4984 472.63 55.2399C478.979 53.9814 485.561 54.6276 491.542 57.0968C497.523 59.5659 502.635 63.7472 506.231 69.1117C509.828 74.4763 511.748 80.7833 511.748 87.2351C511.748 91.5195 510.902 95.7619 509.257 99.7202C507.612 103.678 505.2 107.275 502.16 110.304C499.12 113.334 495.511 115.736 491.539 117.375C487.567 119.015 483.31 119.858 479.011 119.857Z" fill="#E7E7E7"/>
<path d="M479.001 117.66C472.764 117.662 466.667 115.82 461.481 112.369C456.294 108.917 452.252 104.01 449.864 98.2682C447.476 92.5265 446.85 86.2081 448.066 80.112C449.281 74.0158 452.284 68.4159 456.693 64.0204C461.102 59.6248 466.72 56.6312 472.837 55.4179C478.953 54.2047 485.294 54.8265 491.056 57.2046C496.818 59.5827 501.743 63.6103 505.208 68.778C508.673 73.9457 510.522 80.0214 510.522 86.2368C510.522 94.5692 507.201 102.56 501.29 108.453C495.379 114.346 487.362 117.658 479.001 117.66Z" fill="#E8E8E8"/>
<path d="M478.999 115.461C473.001 115.462 467.137 113.69 462.149 110.369C457.161 107.048 453.273 102.328 450.977 96.805C448.682 91.2822 448.08 85.2049 449.25 79.3417C450.42 73.4785 453.308 68.0927 457.55 63.8654C461.791 59.6381 467.195 56.7592 473.078 55.5927C478.961 54.4262 485.059 55.0246 490.601 57.3122C496.143 59.5997 500.88 63.4737 504.212 68.4442C507.545 73.4147 509.324 79.2584 509.324 85.2364C509.324 93.252 506.129 100.939 500.442 106.607C494.755 112.276 487.042 115.46 478.999 115.461Z" fill="#E9E9E9"/>
<path d="M478.997 113.261C473.237 113.261 467.607 111.559 462.818 108.37C458.029 105.181 454.296 100.648 452.092 95.3446C449.888 90.0413 449.311 84.2058 450.435 78.5758C451.558 72.9459 454.332 67.7745 458.405 63.7155C462.478 59.6566 467.667 56.8924 473.316 55.7725C478.965 54.6527 484.82 55.2274 490.142 57.4241C495.463 59.6208 500.011 63.3408 503.211 68.1136C506.411 72.8864 508.119 78.4977 508.119 84.2379C508.119 91.9354 505.051 99.3175 499.59 104.76C494.128 110.203 486.721 113.261 478.997 113.261Z" fill="#EAEAEA"/>
<path d="M479.005 111.064C473.484 111.064 468.086 109.432 463.494 106.375C458.903 103.317 455.324 98.9718 453.211 93.8876C451.098 88.8033 450.545 83.2087 451.622 77.8113C452.7 72.4138 455.359 67.456 459.263 63.5647C463.168 59.6733 468.143 57.0233 473.559 55.9497C478.975 54.8761 484.588 55.4271 489.69 57.5331C494.791 59.639 499.152 63.2054 502.22 67.7811C505.288 72.3568 506.925 77.7364 506.925 83.2396C506.925 90.6191 503.984 97.6964 498.748 102.914C493.512 108.133 486.41 111.064 479.005 111.064Z" fill="#EBEBEB"/>
<path d="M478.999 108.866C473.714 108.866 468.546 107.304 464.151 104.377C459.756 101.45 456.331 97.2904 454.308 92.4235C452.285 87.5566 451.756 82.2012 452.787 77.0345C453.818 71.8678 456.364 67.1219 460.101 63.3969C463.839 59.672 468.601 57.1352 473.785 56.1075C478.97 55.0798 484.343 55.6072 489.227 57.6232C494.111 59.6391 498.285 63.053 501.221 67.4331C504.158 71.8132 505.725 76.9628 505.725 82.2307C505.725 89.2948 502.91 96.0695 497.898 101.065C492.885 106.06 486.088 108.866 478.999 108.866Z" fill="#ECECEC"/>
<path d="M479.003 106.67C473.958 106.67 469.025 105.179 464.83 102.385C460.635 99.5915 457.365 95.6208 455.434 90.9751C453.503 86.3294 452.998 81.2174 453.982 76.2856C454.967 71.3538 457.396 66.8236 460.964 63.2679C464.532 59.7123 469.078 57.2908 474.026 56.3098C478.975 55.3288 484.105 55.8323 488.766 57.7566C493.428 59.6809 497.412 62.9396 500.215 67.1206C503.018 71.3016 504.515 76.2172 504.515 81.2456C504.515 87.9886 501.827 94.4554 497.042 99.2234C492.258 103.991 485.769 106.67 479.003 106.67Z" fill="#EDEDED"/>
<path d="M479.007 104.468C474.202 104.468 469.504 103.048 465.509 100.387C461.513 97.7269 458.399 93.9452 456.56 89.5207C454.721 85.0963 454.24 80.2277 455.178 75.5307C456.115 70.8337 458.429 66.5193 461.827 63.1329C465.225 59.7466 469.554 57.4405 474.267 56.5062C478.98 55.5719 483.866 56.0514 488.305 57.8841C492.745 59.7167 496.539 62.8203 499.209 66.8022C501.879 70.7841 503.304 75.4656 503.304 80.2546C503.304 86.6764 500.744 92.8353 496.187 97.3762C491.631 101.917 485.451 104.468 479.007 104.468Z" fill="#EEEEEE"/>
<path d="M478.999 102.273C474.428 102.274 469.96 100.924 466.159 98.3933C462.358 95.8629 459.396 92.2661 457.646 88.0578C455.897 83.8494 455.439 79.2186 456.331 74.7509C457.222 70.2832 459.423 66.1793 462.655 62.9583C465.887 59.7373 470.005 57.5438 474.488 56.6553C478.971 55.7667 483.618 56.2231 487.84 57.9666C492.063 59.71 495.672 62.6623 498.211 66.4501C500.75 70.2379 502.105 74.6909 502.104 79.2461C502.104 85.3533 499.67 91.2104 495.337 95.5288C491.004 99.8473 485.127 102.273 478.999 102.273Z" fill="#EEEEEE"/>
<path d="M479.007 100.074C474.674 100.075 470.439 98.7951 466.836 96.3966C463.233 93.9981 460.425 90.5886 458.766 86.5995C457.108 82.6103 456.673 78.2206 457.518 73.9855C458.363 69.7504 460.449 65.8601 463.513 62.8066C466.576 59.753 470.48 57.6735 474.729 56.8309C478.979 55.9882 483.383 56.4204 487.386 58.0727C491.389 59.725 494.811 62.5232 497.218 66.1135C499.625 69.7037 500.91 73.9248 500.91 78.2428C500.91 81.1096 500.344 83.9484 499.244 86.5972C498.143 89.2459 496.53 91.6526 494.496 93.6799C492.462 95.7072 490.047 97.3153 487.39 98.4125C484.732 99.5097 481.884 100.074 479.007 100.074Z" fill="#EFEFEF"/>
<path d="M479.007 97.8775C474.912 97.8781 470.909 96.6685 467.504 94.4016C464.099 92.1348 461.445 88.9126 459.878 85.1424C458.31 81.3723 457.9 77.2236 458.698 73.2209C459.497 69.2183 461.468 65.5416 464.364 62.6557C467.259 59.7698 470.948 57.8044 474.964 57.008C478.98 56.2116 483.143 56.6201 486.927 58.1816C490.71 59.7432 493.943 62.3878 496.218 65.781C498.494 69.1741 499.708 73.1634 499.708 77.2444C499.708 82.7161 497.527 87.9637 493.645 91.8331C489.763 95.7025 484.498 97.8767 479.007 97.8775Z" fill="#F0F0F0"/>
<path d="M479.006 95.6911C475.149 95.6911 471.38 94.5514 468.173 92.4163C464.967 90.2811 462.468 87.2463 460.992 83.6957C459.516 80.1451 459.13 76.238 459.882 72.4687C460.635 68.6994 462.492 65.237 465.219 62.5195C467.945 59.8019 471.42 57.9513 475.202 57.2015C478.984 56.4517 482.904 56.8365 486.467 58.3073C490.03 59.778 493.075 62.2686 495.217 65.4641C497.36 68.6595 498.503 72.4164 498.503 76.2596C498.503 81.4131 496.449 86.3556 492.793 89.9997C489.136 93.6438 484.177 95.6911 479.006 95.6911Z" fill="#F1F1F1"/>
<path d="M478.998 93.4794C475.38 93.4794 471.843 92.4101 468.834 90.4066C465.825 88.4032 463.48 85.5556 462.096 82.224C460.711 78.8924 460.349 75.2263 461.055 71.6895C461.761 68.1527 463.503 64.9039 466.062 62.354C468.62 59.8041 471.88 58.0675 475.429 57.364C478.978 56.6605 482.657 57.0216 486 58.4016C489.343 59.7816 492.2 62.1185 494.21 65.1169C496.22 68.1153 497.293 71.6404 497.293 75.2466C497.293 77.6409 496.82 80.0119 495.901 82.224C494.981 84.4361 493.634 86.4461 491.935 88.1392C490.236 89.8322 488.219 91.1753 486 92.0915C483.78 93.0078 481.401 93.4794 478.998 93.4794Z" fill="#F2F2F2"/>
<path d="M479.01 91.2825C475.63 91.2825 472.325 90.2834 469.514 88.4117C466.704 86.5399 464.513 83.8795 463.219 80.7669C461.925 77.6543 461.587 74.2293 462.246 70.925C462.906 67.6206 464.534 64.5854 466.924 62.2031C469.315 59.8208 472.36 58.1985 475.676 57.5412C478.992 56.8839 482.428 57.2212 485.551 58.5105C488.675 59.7998 491.344 61.9832 493.222 64.7844C495.1 67.5857 496.103 70.8791 496.103 74.2482C496.103 78.766 494.302 83.0987 491.097 86.2933C487.891 89.4878 483.544 91.2825 479.01 91.2825Z" fill="#F3F3F3"/>
<path d="M479.002 89.0836C475.859 89.0842 472.787 88.1559 470.173 86.4162C467.56 84.6766 465.523 82.2036 464.32 79.31C463.117 76.4165 462.802 73.2323 463.414 70.1603C464.027 67.0883 465.54 64.2663 467.762 62.0514C469.984 59.8364 472.816 58.3279 475.898 57.7166C478.981 57.1053 482.176 57.4188 485.079 58.6173C487.983 59.8157 490.465 61.8454 492.211 64.4497C493.957 67.0539 494.889 70.1157 494.889 73.2479C494.889 77.4472 493.215 81.4746 490.236 84.4443C487.257 87.414 483.216 89.0828 479.002 89.0836Z" fill="#F4F4F4"/>
<path d="M478.995 86.8847C476.09 86.8853 473.25 86.0272 470.834 84.4191C468.418 82.811 466.535 80.525 465.423 77.8503C464.311 75.1756 464.02 72.2323 464.587 69.3927C465.153 66.5531 466.552 63.9447 468.606 61.8975C470.661 59.8503 473.278 58.4561 476.127 57.8915C478.977 57.3268 481.93 57.6169 484.614 58.7251C487.298 59.8334 489.591 61.7099 491.205 64.1174C492.819 66.525 493.68 69.3553 493.679 72.2505C493.679 74.1723 493.299 76.0753 492.561 77.8508C491.823 79.6263 490.742 81.2395 489.378 82.5984C488.015 83.9573 486.396 85.0353 484.614 85.7707C482.833 86.5061 480.923 86.8847 478.995 86.8847Z" fill="#F5F5F5"/>
<path d="M479.007 84.6867C476.34 84.6873 473.732 83.8996 471.514 82.4232C469.296 80.9468 467.568 78.848 466.547 76.3923C465.526 73.9366 465.258 71.2343 465.778 68.6272C466.299 66.0201 467.583 63.6252 469.469 61.7456C471.355 59.866 473.758 58.5861 476.374 58.0676C478.99 57.5492 481.702 57.8156 484.166 58.8331C486.63 59.8506 488.736 61.5735 490.217 63.784C491.699 65.9944 492.489 68.593 492.488 71.2512C492.489 73.0157 492.14 74.763 491.463 76.3932C490.786 78.0235 489.793 79.5048 488.541 80.7524C487.289 82.0001 485.802 82.9898 484.167 83.6648C482.531 84.3399 480.778 84.6871 479.007 84.6867Z" fill="#F6F6F6"/>
<path d="M479.005 82.4896C476.576 82.4896 474.202 81.7715 472.182 80.4262C470.162 79.0809 468.589 77.1689 467.66 74.932C466.731 72.6951 466.489 70.2339 466.964 67.8597C467.439 65.4856 468.61 63.3052 470.328 61.5944C472.047 59.8836 474.236 58.7194 476.619 58.2489C479.002 57.7785 481.471 58.023 483.715 58.9515C485.958 59.88 487.875 61.4508 489.222 63.4651C490.57 65.4795 491.287 67.8469 491.284 70.2677C491.28 73.5106 489.985 76.6192 487.682 78.9108C485.38 81.2024 482.259 82.4896 479.005 82.4896Z" fill="#F7F7F7"/>
<path d="M478.998 80.2924C476.808 80.2924 474.666 79.6451 472.845 78.4323C471.024 77.2195 469.604 75.4957 468.765 73.4789C467.927 71.4621 467.708 69.2428 468.135 67.1016C468.562 64.9605 469.616 62.9936 471.165 61.4497C472.714 59.9059 474.687 58.8543 476.835 58.428C478.984 58.0018 481.211 58.22 483.235 59.055C485.259 59.89 486.989 61.3043 488.206 63.1192C489.424 64.934 490.074 67.0679 490.074 69.251C490.075 70.7008 489.788 72.1365 489.232 73.4761C488.676 74.8157 487.86 76.0329 486.831 77.0582C485.803 78.0836 484.581 78.8969 483.237 79.4518C481.893 80.0068 480.453 80.2924 478.998 80.2924Z" fill="#F8F8F8"/>
<path d="M479.01 78.0908C477.057 78.0908 475.148 77.5137 473.525 76.4325C471.901 75.3513 470.636 73.8145 469.888 72.0165C469.141 70.2185 468.945 68.24 469.326 66.3313C469.707 64.4226 470.648 62.6693 472.029 61.2932C473.409 59.917 475.169 58.9799 477.084 58.6002C478.999 58.2205 480.984 58.4154 482.789 59.1601C484.593 59.9049 486.135 61.1661 487.22 62.7842C488.305 64.4024 488.884 66.3048 488.884 68.251C488.884 70.8606 487.843 73.3634 485.992 75.2088C484.14 77.0541 481.629 78.0908 479.01 78.0908Z" fill="#F9F9F9"/>
<path d="M479.007 75.8948C477.292 75.8948 475.616 75.3883 474.191 74.4393C472.765 73.4904 471.654 72.1415 470.997 70.5632C470.341 68.9849 470.168 67.2481 470.502 65.5722C470.835 63.8963 471.66 62.3565 472.871 61.1476C474.083 59.9386 475.627 59.1146 477.308 58.7798C478.989 58.445 480.732 58.6144 482.316 59.2666C483.901 59.9188 485.256 61.0245 486.21 62.4439C487.164 63.8634 487.675 65.5329 487.677 67.2415C487.679 68.3773 487.456 69.5022 487.021 70.552C486.586 71.6018 485.947 72.5559 485.142 73.3596C484.337 74.1633 483.38 74.8009 482.328 75.2359C481.275 75.6709 480.146 75.8948 479.007 75.8948Z" fill="#FAFAFA"/>
<path d="M478.998 73.697C477.521 73.6976 476.077 73.2616 474.848 72.4441C473.62 71.6267 472.662 70.4645 472.097 69.1046C471.531 67.7447 471.382 66.2481 471.67 64.8042C471.958 63.3602 472.669 62.0338 473.713 60.9926C474.758 59.9514 476.088 59.2423 477.537 58.9549C478.986 58.6675 480.488 58.8147 481.852 59.3779C483.217 59.9411 484.384 60.8951 485.205 62.1191C486.025 63.3431 486.463 64.7822 486.463 66.2543C486.463 68.2277 485.677 70.1203 484.277 71.516C482.877 72.9117 480.978 73.6962 478.998 73.697Z" fill="#FBFBFB"/>
<path d="M479.007 71.4989C477.767 71.4995 476.556 71.1338 475.525 70.4481C474.494 69.7623 473.691 68.7874 473.216 67.6464C472.741 66.5055 472.617 65.25 472.858 64.0385C473.1 62.8271 473.696 61.7142 474.572 60.8407C475.448 59.9671 476.565 59.3721 477.78 59.1309C478.996 58.8898 480.256 59.0132 481.401 59.4858C482.546 59.9583 483.524 60.7586 484.213 61.7855C484.902 62.8124 485.269 64.0197 485.269 65.2548C485.269 66.9104 484.609 68.4981 483.435 69.669C482.261 70.8399 480.668 71.4981 479.007 71.4989Z" fill="#FCFCFC"/>
<path d="M479.005 69.2998C478.004 69.2998 477.026 69.0041 476.194 68.45C475.362 67.8959 474.713 67.1084 474.33 66.187C473.948 65.2656 473.847 64.2517 474.043 63.2736C474.238 62.2955 474.72 61.397 475.427 60.6918C476.135 59.9866 477.036 59.5063 478.018 59.3117C478.999 59.1172 480.017 59.217 480.941 59.5987C481.866 59.9803 482.656 60.6266 483.212 61.4559C483.768 62.2851 484.065 63.26 484.065 64.2573C484.065 65.5947 483.532 66.8773 482.583 67.8229C481.634 68.7686 480.347 69.2998 479.005 69.2998Z" fill="#FDFDFD"/>
<path d="M479.002 67.1009C478.239 67.1009 477.493 66.8755 476.859 66.4531C476.224 66.0307 475.73 65.4304 475.438 64.728C475.146 64.0256 475.07 63.2527 475.219 62.5071C475.367 61.7614 475.735 61.0765 476.274 60.5389C476.814 60.0014 477.501 59.6353 478.249 59.4869C478.997 59.3386 479.773 59.4148 480.478 59.7057C481.182 59.9966 481.785 60.4893 482.209 61.1214C482.632 61.7536 482.859 62.4967 482.859 63.257C482.858 64.2762 482.451 65.2535 481.728 65.9742C481.005 66.6949 480.024 67.1001 479.002 67.1009Z" fill="#FEFEFE"/>
<path d="M478.994 64.9049C478.469 64.9049 477.956 64.7498 477.52 64.4591C477.083 64.1684 476.743 63.7553 476.542 63.2719C476.341 62.7886 476.288 62.2567 476.391 61.7435C476.493 61.2304 476.746 60.759 477.117 60.3891C477.489 60.0191 477.961 59.7672 478.476 59.6651C478.991 59.563 479.525 59.6154 480.01 59.8156C480.495 60.0158 480.91 60.3549 481.201 60.7899C481.493 61.2249 481.649 61.7364 481.649 62.2596C481.649 62.9612 481.369 63.634 480.871 64.1301C480.373 64.6262 479.698 64.9049 478.994 64.9049Z" fill="white"/>
<path opacity="0.3" d="M479.01 57.777C489.8 57.7784 500.183 61.8811 508.043 69.2487C515.902 76.6163 520.646 86.6939 521.307 97.4269C521.359 96.5734 521.389 95.7108 521.389 94.8451C521.436 89.2689 520.375 83.7385 518.267 78.5732C516.158 73.4078 513.045 68.7096 509.105 64.7499C505.165 60.7901 500.477 57.647 495.312 55.5021C490.147 53.3572 484.607 52.2529 479.012 52.2529C473.416 52.2529 467.876 53.3572 462.711 55.5021C457.546 57.647 452.859 60.7901 448.919 64.7499C444.979 68.7096 441.865 73.4078 439.757 78.5732C437.648 83.7385 436.587 89.2689 436.634 94.8451C436.634 95.7108 436.662 96.5734 436.713 97.4269C437.375 86.6941 442.119 76.6169 449.978 69.2495C457.838 61.8821 468.22 57.7791 479.01 57.777Z" fill="white"/>
<path d="M478.995 47.4033C468.909 47.4039 459.049 50.3852 450.663 55.9703C442.277 61.5553 435.741 69.4932 431.881 78.7802C428.022 88.0672 427.012 98.2862 428.98 108.145C430.948 118.004 435.806 127.06 442.938 134.167C450.07 141.275 459.157 146.115 469.05 148.076C478.943 150.037 489.196 149.03 498.515 145.183C507.833 141.336 515.798 134.822 521.402 126.464C527.005 118.106 529.996 108.28 529.996 98.2278C529.996 91.5532 528.677 84.9439 526.114 78.7774C523.551 72.6109 519.794 67.0079 515.058 62.2884C510.322 57.5689 504.7 53.8252 498.512 51.2712C492.324 48.7172 485.692 47.4029 478.995 47.4033ZM478.995 142.036C470.302 142.033 461.804 139.461 454.577 134.646C447.35 129.83 441.719 122.987 438.394 114.982C435.069 106.977 434.201 98.1689 435.899 89.6719C437.596 81.1749 441.784 73.3703 447.932 67.2451C454.081 61.1199 461.913 56.949 470.44 55.2599C478.967 53.5708 487.804 54.4392 495.836 57.7554C503.867 61.0716 510.732 66.6867 515.561 73.8906C520.391 81.0946 522.968 89.5639 522.968 98.2278C522.968 103.982 521.831 109.68 519.621 114.996C517.411 120.312 514.171 125.142 510.088 129.21C506.004 133.279 501.157 136.505 495.822 138.706C490.487 140.907 484.769 142.038 478.995 142.036Z" fill="#AFBDC3"/>
<path d="M479.005 46.2451C468.689 46.2475 458.605 49.2983 450.029 55.0118C441.452 60.7253 434.769 68.8449 430.823 78.3439C426.876 87.8429 425.845 98.2947 427.859 108.378C429.873 118.461 434.842 127.722 442.137 134.991C449.433 142.26 458.727 147.21 468.845 149.215C478.963 151.219 489.45 150.189 498.981 146.254C508.511 142.319 516.657 135.657 522.388 127.108C528.119 118.56 531.178 108.51 531.178 98.2288C531.178 91.4012 529.828 84.6405 527.206 78.3327C524.584 72.025 520.741 66.2938 515.896 61.4665C511.051 56.6392 505.299 52.8104 498.97 50.1987C492.64 47.587 485.856 46.2435 479.005 46.2451ZM479.005 143.036C470.115 143.033 461.427 140.403 454.037 135.479C446.647 130.555 440.888 123.558 437.489 115.373C434.089 107.187 433.201 98.181 434.937 89.4925C436.673 80.8041 440.955 72.8238 447.242 66.5605C453.529 60.2973 461.538 56.0325 470.256 54.3053C478.975 52.5781 488.012 53.466 496.224 56.8569C504.437 60.2478 511.456 65.9894 516.394 73.3556C521.332 80.7218 523.968 89.3819 523.968 98.2409C523.968 104.125 522.805 109.951 520.545 115.387C518.285 120.823 514.973 125.761 510.798 129.921C506.622 134.081 501.665 137.38 496.21 139.631C490.755 141.881 484.909 143.038 479.005 143.036Z" fill="#E8E8E8"/>
<path opacity="0.26" d="M448.548 58.3244C456.428 52.8466 465.678 49.6534 475.27 49.0997C484.862 48.5459 494.42 50.6533 502.882 55.1876C511.345 59.7219 518.38 66.5056 523.206 74.785C528.033 83.0644 530.462 92.5153 530.223 102.088C531.303 88.8446 527.213 75.697 518.807 65.3844C510.401 55.0717 498.326 48.3893 485.099 46.7295C471.871 45.0696 458.511 48.5604 447.802 56.4745C437.093 64.3886 429.861 76.1155 427.613 89.2119C430.487 76.6768 437.953 65.6621 448.548 58.3244Z" fill="white"/>
<path opacity="0.09" d="M452.593 62.0132C459.425 57.2642 467.444 54.4958 475.76 54.0156C484.076 53.5354 492.363 55.3622 499.7 59.2931C507.037 63.2239 513.137 69.1049 517.322 76.2826C521.507 83.4604 523.613 91.6539 523.407 99.953C524.3 88.4945 520.732 77.1334 513.445 68.2261C506.157 59.3188 495.709 53.5489 484.267 52.1132C472.825 50.6775 461.268 53.6861 451.992 60.5151C442.717 67.344 436.435 77.4692 434.449 88.7905C436.937 77.9231 443.407 68.3734 452.593 62.0132Z" fill="#00336A"/>
<path opacity="0.16" d="M504.647 135C497.815 139.751 489.795 142.52 481.479 143.001C473.163 143.481 464.875 141.655 457.538 137.724C450.201 133.793 444.101 127.911 439.916 120.733C435.731 113.554 433.625 105.36 433.833 97.0605C432.931 108.523 436.494 119.891 443.782 128.805C451.069 137.718 461.521 143.493 472.967 144.929C484.414 146.366 495.976 143.354 505.253 136.519C514.53 129.683 520.809 119.55 522.788 108.223C520.299 119.089 513.83 128.638 504.647 135Z" fill="white"/>
<path opacity="0.19" d="M509.461 138.306C501.581 143.785 492.331 146.979 482.74 147.533C473.148 148.088 463.59 145.981 455.127 141.447C446.665 136.914 439.629 130.13 434.802 121.851C429.976 113.572 427.547 104.121 427.786 94.5488C426.752 107.767 430.864 120.874 439.269 131.151C447.675 141.428 459.727 148.085 472.927 149.741C486.126 151.397 499.459 147.925 510.158 140.045C520.856 132.165 528.1 120.483 530.386 107.421C527.514 119.954 520.052 130.968 509.461 138.306Z" fill="#AFBDC3"/>
<path opacity="0.13" d="M479.029 77.5023C461.047 77.4448 446.423 82.9503 446.441 76.9817C446.46 71.013 461.077 59.3118 479.056 59.3723C497.036 59.4328 511.574 71.2249 511.553 77.1966C511.531 83.1683 497.008 77.5628 479.029 77.5023Z" fill="white"/>
<path d="M473.321 74.5053C472.804 73.8954 472.145 73.4214 471.401 73.1251C470.483 72.7343 469.493 72.5414 468.495 72.5591C467.312 72.5243 466.14 72.8054 465.103 73.3733C464.235 73.8431 463.57 74.6143 463.235 75.5404C462.923 76.4424 462.766 77.7983 462.764 79.6083V86.488C462.764 87.8773 462.861 88.8882 463.068 89.5147C463.278 90.1777 463.614 90.7943 464.058 91.3307C464.545 91.925 465.193 92.3672 465.926 92.605C466.878 92.8997 467.872 93.0367 468.868 93.0106C469.695 93.0211 470.516 92.8901 471.298 92.6231C472.02 92.366 472.66 91.9245 473.157 91.3428C473.645 90.7978 473.992 90.1422 474.168 89.433C474.366 88.3561 474.448 87.2614 474.414 86.1672V79.6204C474.445 78.5281 474.37 77.4355 474.189 76.3576C474.042 75.6832 473.746 75.0502 473.321 74.5053ZM469.473 87.729C469.473 88.6945 469.415 89.318 469.3 89.5934C469.241 89.7309 469.139 89.8456 469.009 89.9204C468.879 89.9951 468.729 90.0259 468.58 90.0081C468.439 90.0282 468.295 90.0051 468.168 89.9419C468.04 89.8786 467.935 89.7782 467.866 89.6539C467.753 89.4178 467.697 88.7278 467.699 87.5837V77.9648C467.699 76.9559 467.759 76.3082 467.878 76.0216C467.938 75.8835 468.041 75.7681 468.172 75.6924C468.303 75.6167 468.454 75.5846 468.604 75.6009C468.75 75.5801 468.899 75.6075 469.028 75.6792C469.157 75.7508 469.259 75.8626 469.318 75.9974C469.421 76.2618 469.473 76.9176 469.473 77.9648V87.729ZM452.502 76.1064V78.4037H452.991C454.131 78.4037 454.866 78.4824 455.196 78.6398C455.345 78.7013 455.478 78.7969 455.583 78.9188C455.689 79.0408 455.764 79.1857 455.803 79.3419C455.908 80.2551 455.944 81.1747 455.912 82.0932V92.6655H460.848V72.9495H457.938C456.699 74.5416 454.887 75.5939 452.502 76.1064ZM504.171 82.5805C503.467 82.2263 502.684 82.0585 501.896 82.0932C501.162 82.0677 500.432 82.2204 499.77 82.5381C499.262 82.7721 498.854 83.1773 498.616 83.6822C498.382 84.3735 498.279 85.1023 498.313 85.8312V89.3846C498.283 90.0227 498.38 90.6603 498.598 91.2611C498.836 91.7481 499.226 92.1453 499.71 92.3931C500.258 92.7099 501.051 92.8683 502.088 92.8683C502.846 92.9032 503.599 92.7327 504.268 92.3749C504.759 92.1261 505.149 91.7154 505.371 91.2127C505.564 90.5694 505.649 89.8982 505.62 89.2272V85.8312C505.655 85.1254 505.558 84.4193 505.334 83.7488C505.09 83.24 504.68 82.8284 504.171 82.5805ZM502.486 90.0202C502.505 90.3256 502.476 90.6322 502.397 90.9282C502.343 91.0553 502.203 91.1189 501.984 91.1189C501.766 91.1189 501.602 91.0614 501.544 90.9463C501.463 90.6159 501.434 90.2748 501.459 89.9354V84.9777C501.437 84.654 501.468 84.329 501.55 84.0152C501.611 83.885 501.751 83.8215 501.972 83.8215C502.194 83.8215 502.352 83.885 502.404 84.0091C502.478 84.3262 502.506 84.6526 502.486 84.9777V90.0202ZM500.335 72.5712L492.576 93.0378H494.459L502.191 72.5712H500.335ZM486.735 74.5053C486.22 73.8946 485.56 73.4205 484.816 73.1251C483.898 72.7343 482.908 72.5414 481.91 72.5591C480.727 72.5238 479.557 72.805 478.52 73.3733C477.651 73.843 476.986 74.6141 476.649 75.5404C476.336 76.4424 476.179 77.7983 476.179 79.6083V86.488C476.179 87.8773 476.276 88.8882 476.482 89.5147C476.692 90.1777 477.029 90.7943 477.472 91.3307C477.96 91.925 478.608 92.3672 479.34 92.605C480.293 92.8996 481.289 93.0366 482.286 93.0106C483.112 93.0212 483.934 92.8902 484.716 92.6231C485.437 92.366 486.078 91.9245 486.574 91.3428C487.062 90.7969 487.41 90.1417 487.589 89.433C487.783 88.3557 487.865 87.2612 487.832 86.1672V79.6204C487.862 78.5281 487.787 77.4355 487.607 76.3576C487.459 75.683 487.161 75.05 486.735 74.5053ZM482.897 87.729C482.897 88.6945 482.839 89.318 482.727 89.5934C482.653 89.7149 482.55 89.8163 482.428 89.8886C482.305 89.961 482.167 90.002 482.025 90.008C481.882 90.014 481.741 89.9848 481.613 89.923C481.484 89.8612 481.374 89.7688 481.29 89.6539C481.181 89.4178 481.126 88.7278 481.126 87.5837V77.9648C481.126 76.9559 481.185 76.3082 481.302 76.0216C481.363 75.8838 481.466 75.7687 481.596 75.693C481.727 75.6174 481.878 75.5851 482.028 75.6009C482.174 75.5804 482.324 75.608 482.453 75.6795C482.582 75.7511 482.685 75.8627 482.745 75.9974C482.846 76.2618 482.897 76.9176 482.897 77.9648V87.729ZM495.121 82.8408C495.601 82.5892 495.981 82.1811 496.196 81.6846C496.391 81.0394 496.475 80.3661 496.445 79.693V76.3213C496.477 75.6103 496.374 74.8997 496.141 74.2268C495.894 73.7209 495.485 73.3118 494.978 73.0646C494.292 72.7546 493.549 72.5908 492.796 72.5835C492.043 72.5762 491.296 72.7256 490.605 73.0222C490.097 73.2531 489.688 73.6565 489.451 74.1602C489.214 74.8551 489.111 75.5883 489.147 76.3213V79.8625C489.117 80.5046 489.214 81.1463 489.432 81.7512C489.669 82.2361 490.057 82.6312 490.538 82.8771C491.084 83.1798 491.877 83.3463 492.922 83.3463C493.684 83.3792 494.441 83.2044 495.112 82.8408H495.121ZM492.366 81.4364C492.283 81.1021 492.254 80.7569 492.278 80.4134V75.4435C492.254 75.1233 492.288 74.8014 492.378 74.4932C492.423 74.4236 492.487 74.3683 492.562 74.3339C492.638 74.2996 492.721 74.2876 492.803 74.2995C493.04 74.2995 493.186 74.36 493.238 74.4811C493.311 74.7963 493.338 75.1206 493.317 75.4435V80.4981C493.338 80.8038 493.307 81.1107 493.226 81.4062C493.185 81.4762 493.124 81.5324 493.051 81.5675C492.978 81.6026 492.896 81.615 492.816 81.6029C492.564 81.6059 492.412 81.5484 492.357 81.4364H492.366ZM479.067 55.9092C470.695 55.9074 462.511 58.3799 455.549 63.0139C448.587 67.648 443.16 74.2355 439.955 81.9433C436.75 89.6511 435.911 98.133 437.543 106.316C439.175 114.5 443.205 122.017 449.125 127.917C455.044 133.818 462.586 137.836 470.797 139.464C479.008 141.093 487.519 140.258 495.254 137.065C502.988 133.873 509.6 128.466 514.251 121.529C518.902 114.592 521.385 106.436 521.385 98.0924C521.385 86.9047 516.926 76.1752 508.988 68.2644C501.05 60.3535 490.284 55.9092 479.058 55.9092H479.067ZM440.278 96.1311C440.783 86.2212 445.09 76.8836 452.307 70.0477C459.524 63.2118 469.1 59.4 479.056 59.4C489.013 59.4 498.589 63.2118 505.806 70.0477C513.023 76.8836 517.329 86.2212 517.835 96.1311H440.278Z" fill="url(#paint54_linear_27_172)"/>
<path d="M450.151 108.857C449.637 108.864 449.126 108.769 448.65 108.576C448.209 108.396 447.812 108.124 447.487 107.777C447.154 107.419 446.899 106.996 446.737 106.536C446.385 105.488 446.385 104.354 446.737 103.306C446.898 102.848 447.152 102.427 447.484 102.071C447.807 101.728 448.201 101.459 448.638 101.281C449.108 101.095 449.611 101.001 450.117 101.006C450.544 101.003 450.97 101.061 451.381 101.179C451.747 101.282 452.092 101.449 452.401 101.672C452.687 101.876 452.928 102.137 453.109 102.438C453.292 102.744 453.403 103.087 453.434 103.443H452.383C452.368 103.211 452.3 102.985 452.185 102.783C452.071 102.586 451.913 102.417 451.724 102.289C451.511 102.149 451.276 102.046 451.028 101.987C450.736 101.914 450.436 101.878 450.135 101.881C449.77 101.876 449.408 101.944 449.069 102.081C448.751 102.217 448.469 102.424 448.243 102.686C448.001 102.966 447.818 103.293 447.706 103.645C447.451 104.491 447.451 105.393 447.706 106.239C447.819 106.592 448.002 106.92 448.243 107.202C448.47 107.463 448.754 107.67 449.072 107.807C449.409 107.951 449.772 108.024 450.138 108.019C450.633 108.031 451.124 107.939 451.581 107.75C451.983 107.573 452.332 107.294 452.592 106.941V105.782H450.585V104.874H453.576V108.748H452.85L452.592 107.949C452.072 108.557 451.258 108.859 450.151 108.857Z" fill="#00336A"/>
<path d="M458.089 108.854C457.685 108.862 457.281 108.815 456.89 108.715C456.592 108.637 456.311 108.507 456.06 108.33C455.847 108.178 455.668 107.983 455.535 107.758C455.408 107.539 455.311 107.304 455.246 107.059C455.18 106.808 455.138 106.552 455.122 106.293C455.107 106.033 455.098 105.773 455.098 105.521V101.139H456.106V105.506C456.096 105.924 456.141 106.341 456.24 106.747C456.305 107.023 456.436 107.278 456.622 107.492C456.786 107.668 456.997 107.795 457.23 107.858C457.789 107.987 458.371 107.987 458.93 107.858C459.173 107.8 459.393 107.674 459.565 107.495C459.751 107.28 459.88 107.023 459.942 106.747C460.036 106.343 460.079 105.928 460.069 105.512V101.139H461.084V105.524C461.089 105.996 461.043 106.467 460.947 106.929C460.873 107.309 460.712 107.668 460.476 107.976C460.238 108.272 459.923 108.498 459.565 108.63C459.091 108.794 458.591 108.87 458.089 108.854Z" fill="#00336A"/>
<path d="M469.036 108.724H467.894L467.01 106.417H463.821L462.98 108.724H461.926L464.835 101.139H465.932L469.036 108.724ZM466.715 105.612L465.373 102.101L464.097 105.612H466.715Z" fill="#00336A"/>
<path d="M476.235 108.724H475.139L474.425 106.687C474.361 106.514 474.273 106.351 474.164 106.202C474.06 106.057 473.934 105.929 473.791 105.821C473.646 105.712 473.485 105.627 473.314 105.57C473.135 105.51 472.947 105.48 472.758 105.482H470.887V108.724H469.879V101.139H473.253C473.457 101.139 473.651 101.139 473.836 101.154C474.014 101.162 474.19 101.183 474.365 101.217C474.528 101.248 474.686 101.297 474.838 101.363C474.995 101.429 475.139 101.52 475.267 101.632C475.496 101.834 475.676 102.086 475.792 102.368C475.91 102.65 475.971 102.954 475.971 103.26C475.974 103.508 475.934 103.755 475.853 103.99C475.776 104.205 475.661 104.405 475.513 104.58C475.359 104.756 475.176 104.905 474.972 105.019C474.75 105.141 474.508 105.226 474.258 105.27V105.288C474.787 105.452 475.194 105.912 475.473 106.662L476.235 108.724ZM470.887 104.574H473.15C473.42 104.577 473.689 104.554 473.955 104.504C474.153 104.47 474.341 104.393 474.507 104.28C474.651 104.178 474.762 104.036 474.826 103.872C474.897 103.678 474.93 103.473 474.926 103.266C474.942 103.085 474.913 102.902 474.842 102.733C474.772 102.565 474.662 102.416 474.523 102.298C474.161 102.069 473.735 101.962 473.308 101.995H470.896L470.887 104.574Z" fill="#00336A"/>
<path d="M483.815 108.724H482.673L481.792 106.417H478.6L477.759 108.724H476.699L479.618 101.139H480.711L483.815 108.724ZM481.498 105.612L480.146 102.101L478.871 105.612H481.498Z" fill="#00336A"/>
<path d="M490.646 108.724H489.614L485.62 102.74V108.724H484.66V101.139H485.705L489.686 107.135V101.139H490.649L490.646 108.724Z" fill="#00336A"/>
<path d="M497.762 102.047H495.241V108.733H494.233V102.047H491.73V101.139H497.762V102.047Z" fill="#00336A"/>
<path d="M504.528 108.724H498.84V101.139H504.355V102.047H499.851V104.353H504.061V105.261H499.851V107.837H504.528V108.724Z" fill="#00336A"/>
<path d="M511.626 108.724H505.938V101.139H511.453V102.047H506.946V104.353H511.158V105.261H506.946V107.837H511.626V108.724Z" fill="#00336A"/>
<path d="M479.05 112.104L481.094 116.235L485.671 116.898L482.358 120.115L483.141 124.655L479.05 122.512L474.957 124.655L475.74 120.115L472.43 116.898L477.003 116.235L479.05 112.104Z" fill="#00336A"/>
<path d="M466.928 115.074L468.1 117.438L470.721 117.816L468.826 119.66L469.272 122.26L466.928 121.031L464.586 122.26L465.036 119.66L463.141 117.816L465.759 117.438L466.928 115.074Z" fill="#EBEBEB"/>
<path d="M491.154 115.074L492.326 117.438L494.947 117.816L493.052 119.66L493.498 122.26L491.154 121.031L488.812 122.26L489.258 119.66L487.363 117.816L489.984 117.438L491.154 115.074Z" fill="#EBEBEB"/>
<path d="M461.35 119.023C461.35 119.438 461.869 119.774 457.939 119.774C454.009 119.774 447.121 119.438 447.121 119.023C447.121 118.609 454.012 118.27 457.939 118.27C461.866 118.27 461.35 118.605 461.35 119.023Z" fill="#EBEBEB"/>
<path d="M496.363 119.023C496.363 119.438 495.841 119.774 499.77 119.774C503.7 119.774 510.588 119.438 510.588 119.023C510.588 118.609 503.697 118.27 499.77 118.27C495.844 118.27 496.363 118.605 496.363 119.023Z" fill="#EBEBEB"/>
</g>
<defs>
<filter id="filter0_d_27_172" x="414" y="33" width="130" height="206.562" filterUnits="userSpaceOnUse" color-interpolation-filters="sRGB">
<feFlood flood-opacity="0" result="BackgroundImageFix"/>
<feColorMatrix in="SourceAlpha" type="matrix" values="0 0 0 0 0 0 0 0 0 0 0 0 0 0 0 0 0 0 127 0" result="hardAlpha"/>
<feOffset dy="4"/>
<feComposite in2="hardAlpha" operator="out"/>
<feColorMatrix type="matrix" values="0 0 0 0 0 0 0 0 0 0.2 0 0 0 0 0.415686 0 0 0 0.12 0"/>
<feBlend mode="normal" in2="BackgroundImageFix" result="effect1_dropShadow_27_172"/>
<feBlend mode="normal" in="SourceGraphic" in2="effect1_dropShadow_27_172" result="shape"/>
</filter>
<linearGradient id="paint0_linear_27_172" x1="238.517" y1="77" x2="238.517" y2="128.551" gradientUnits="userSpaceOnUse">
<stop stop-color="#CCD2E3"/>
<stop offset="1" stop-color="#FFFCF9"/>
</linearGradient>
<linearGradient id="paint1_linear_27_172" x1="389.125" y1="192.434" x2="389.125" y2="219.318" gradientUnits="userSpaceOnUse">
<stop stop-color="#CCD2E3"/>
<stop offset="1" stop-color="#FFFCF9"/>
</linearGradient>
<linearGradient id="paint2_linear_27_172" x1="137.721" y1="247.703" x2="137.721" y2="295.534" gradientUnits="userSpaceOnUse">
<stop stop-color="#CCD2E3"/>
<stop offset="1" stop-color="#FFFCF9"/>
</linearGradient>
<linearGradient id="paint3_linear_27_172" x1="541.251" y1="0" x2="541.251" y2="23.8727" gradientUnits="userSpaceOnUse">
<stop stop-color="#FFEBD7"/>
<stop offset="1" stop-color="#FFFCF9"/>
</linearGradient>
<linearGradient id="paint4_linear_27_172" x1="87.954" y1="113.576" x2="87.954" y2="137.455" gradientUnits="userSpaceOnUse">
<stop stop-color="#FFEBD7"/>
<stop offset="1" stop-color="#FFFCF9"/>
</linearGradient>
<linearGradient id="paint5_linear_27_172" x1="237.255" y1="18" x2="237.255" y2="41.8793" gradientUnits="userSpaceOnUse">
<stop stop-color="#FFEBD7"/>
<stop offset="1" stop-color="#FFFCF9"/>
</linearGradient>
<linearGradient id="paint6_linear_27_172" x1="37.6468" y1="254.588" x2="37.6468" y2="271.689" gradientUnits="userSpaceOnUse">
<stop stop-color="#FFEBD7"/>
<stop offset="1" stop-color="#FFFCF9"/>
</linearGradient>
<linearGradient id="paint7_linear_27_172" x1="201.1" y1="362.807" x2="201.1" y2="379.908" gradientUnits="userSpaceOnUse">
<stop stop-color="#FFEBD7"/>
<stop offset="1" stop-color="#FFFCF9"/>
</linearGradient>
<linearGradient id="paint8_linear_27_172" x1="475.358" y1="218.067" x2="477.747" y2="111.194" gradientUnits="userSpaceOnUse">
<stop stop-color="#00336A"/>
<stop offset="0.45" stop-color="#034184"/>
<stop offset="0.59" stop-color="#034184"/>
<stop offset="0.85" stop-color="#00336A"/>
<stop offset="0.98" stop-color="#AFBDC3"/>
</linearGradient>
<linearGradient id="paint9_linear_27_172" x1="536.694" y1="98.5199" x2="535.701" y2="107.999" gradientUnits="userSpaceOnUse">
<stop stop-color="#00336A"/>
<stop offset="0.45" stop-color="#064E9B"/>
<stop offset="0.59" stop-color="#064E9B"/>
<stop offset="0.85" stop-color="#00336A"/>
<stop offset="0.98" stop-color="#00336A"/>
</linearGradient>
<linearGradient id="paint10_linear_27_172" x1="536.219" y1="89.3675" x2="536.551" y2="98.8898" gradientUnits="userSpaceOnUse">
<stop stop-color="#F86202"/>
<stop offset="0.45" stop-color="#FB7119"/>
<stop offset="0.59" stop-color="#FF7D29"/>
<stop offset="0.85" stop-color="#F86202"/>
<stop offset="0.98" stop-color="#F86202"/>
</linearGradient>
<linearGradient id="paint11_linear_27_172" x1="486.515" y1="34.1526" x2="487.318" y2="47.3067" gradientUnits="userSpaceOnUse">
<stop stop-color="#F86202"/>
<stop offset="0.45" stop-color="#FB7119"/>
<stop offset="0.59" stop-color="#FF7D29"/>
<stop offset="0.85" stop-color="#F86202"/>
<stop offset="0.98" stop-color="#F86202"/>
</linearGradient>
<linearGradient id="paint12_linear_27_172" x1="478.477" y1="33.1882" x2="479.383" y2="46.2215" gradientUnits="userSpaceOnUse">
<stop stop-color="#F86202"/>
<stop offset="0.45" stop-color="#FB7119"/>
<stop offset="0.59" stop-color="#FF7D29"/>
<stop offset="0.85" stop-color="#F86202"/>
<stop offset="0.98" stop-color="#F86202"/>
</linearGradient>
<linearGradient id="paint13_linear_27_172" x1="470.532" y1="33.4635" x2="471.44" y2="47.4449" gradientUnits="userSpaceOnUse">
<stop stop-color="#F86202"/>
<stop offset="0.45" stop-color="#FB7119"/>
<stop offset="0.59" stop-color="#FF7D29"/>
<stop offset="0.85" stop-color="#F86202"/>
<stop offset="0.98" stop-color="#F86202"/>
</linearGradient>
<linearGradient id="paint14_linear_27_172" x1="462.754" y1="34.9513" x2="463.66" y2="49.6547" gradientUnits="userSpaceOnUse">
<stop stop-color="#F86202"/>
<stop offset="0.45" stop-color="#FB7119"/>
<stop offset="0.59" stop-color="#FF7D29"/>
<stop offset="0.85" stop-color="#F86202"/>
<stop offset="0.98" stop-color="#F86202"/>
</linearGradient>
<linearGradient id="paint15_linear_27_172" x1="455.295" y1="37.6566" x2="456.184" y2="52.7812" gradientUnits="userSpaceOnUse">
<stop stop-color="#F86202"/>
<stop offset="0.45" stop-color="#FB7119"/>
<stop offset="0.59" stop-color="#FF7D29"/>
<stop offset="0.85" stop-color="#F86202"/>
<stop offset="0.98" stop-color="#F86202"/>
</linearGradient>
<linearGradient id="paint16_linear_27_172" x1="448.319" y1="41.4855" x2="449.185" y2="56.8053" gradientUnits="userSpaceOnUse">
<stop stop-color="#F86202"/>
<stop offset="0.45" stop-color="#FB7119"/>
<stop offset="0.59" stop-color="#FF7D29"/>
<stop offset="0.85" stop-color="#F86202"/>
<stop offset="0.98" stop-color="#F86202"/>
</linearGradient>
<linearGradient id="paint17_linear_27_172" x1="441.917" y1="46.4196" x2="442.747" y2="61.6438" gradientUnits="userSpaceOnUse">
<stop stop-color="#F86202"/>
<stop offset="0.45" stop-color="#FB7119"/>
<stop offset="0.59" stop-color="#FF7D29"/>
<stop offset="0.85" stop-color="#F86202"/>
<stop offset="0.98" stop-color="#F86202"/>
</linearGradient>
<linearGradient id="paint18_linear_27_172" x1="436.26" y1="52.341" x2="437.041" y2="67.1967" gradientUnits="userSpaceOnUse">
<stop stop-color="#F86202"/>
<stop offset="0.45" stop-color="#FB7119"/>
<stop offset="0.59" stop-color="#FF7D29"/>
<stop offset="0.85" stop-color="#F86202"/>
<stop offset="0.98" stop-color="#F86202"/>
</linearGradient>
<linearGradient id="paint19_linear_27_172" x1="431.419" y1="59.0974" x2="432.141" y2="73.3155" gradientUnits="userSpaceOnUse">
<stop stop-color="#F86202"/>
<stop offset="0.45" stop-color="#FB7119"/>
<stop offset="0.59" stop-color="#FF7D29"/>
<stop offset="0.85" stop-color="#F86202"/>
<stop offset="0.98" stop-color="#F86202"/>
</linearGradient>
<linearGradient id="paint20_linear_27_172" x1="427.534" y1="66.6031" x2="428.187" y2="79.9338" gradientUnits="userSpaceOnUse">
<stop stop-color="#F86202"/>
<stop offset="0.45" stop-color="#FB7119"/>
<stop offset="0.59" stop-color="#FF7D29"/>
<stop offset="0.85" stop-color="#F86202"/>
<stop offset="0.98" stop-color="#F86202"/>
</linearGradient>
<linearGradient id="paint21_linear_27_172" x1="424.42" y1="74.6915" x2="424.977" y2="86.9026" gradientUnits="userSpaceOnUse">
<stop stop-color="#F86202"/>
<stop offset="0.45" stop-color="#FB7119"/>
<stop offset="0.59" stop-color="#FF7D29"/>
<stop offset="0.85" stop-color="#F86202"/>
<stop offset="0.98" stop-color="#F86202"/>
</linearGradient>
<linearGradient id="paint22_linear_27_172" x1="422.045" y1="83.2046" x2="422.484" y2="94.0943" gradientUnits="userSpaceOnUse">
<stop stop-color="#F86202"/>
<stop offset="0.45" stop-color="#FB7119"/>
<stop offset="0.59" stop-color="#FF7D29"/>
<stop offset="0.85" stop-color="#F86202"/>
<stop offset="0.98" stop-color="#F86202"/>
</linearGradient>
<linearGradient id="paint23_linear_27_172" x1="421.796" y1="92.4078" x2="420.945" y2="101.172" gradientUnits="userSpaceOnUse">
<stop stop-color="#00336A"/>
<stop offset="0.45" stop-color="#064E9B"/>
<stop offset="0.59" stop-color="#064E9B"/>
<stop offset="0.85" stop-color="#00336A"/>
<stop offset="0.98" stop-color="#00336A"/>
</linearGradient>
<linearGradient id="paint24_linear_27_172" x1="422.143" y1="99.9827" x2="421.188" y2="109.5" gradientUnits="userSpaceOnUse">
<stop stop-color="#00336A"/>
<stop offset="0.45" stop-color="#064E9B"/>
<stop offset="0.59" stop-color="#064E9B"/>
<stop offset="0.85" stop-color="#00336A"/>
<stop offset="0.98" stop-color="#00336A"/>
</linearGradient>
<linearGradient id="paint25_linear_27_172" x1="423.782" y1="107.229" x2="422.655" y2="117.851" gradientUnits="userSpaceOnUse">
<stop stop-color="#00336A"/>
<stop offset="0.45" stop-color="#064E9B"/>
<stop offset="0.59" stop-color="#064E9B"/>
<stop offset="0.85" stop-color="#00336A"/>
<stop offset="0.98" stop-color="#00336A"/>
</linearGradient>
<linearGradient id="paint26_linear_27_172" x1="426.49" y1="114.302" x2="425.209" y2="125.815" gradientUnits="userSpaceOnUse">
<stop stop-color="#00336A"/>
<stop offset="0.45" stop-color="#064E9B"/>
<stop offset="0.59" stop-color="#064E9B"/>
<stop offset="0.85" stop-color="#00336A"/>
<stop offset="0.98" stop-color="#00336A"/>
</linearGradient>
<linearGradient id="paint27_linear_27_172" x1="430.206" y1="121.05" x2="428.794" y2="133.228" gradientUnits="userSpaceOnUse">
<stop stop-color="#00336A"/>
<stop offset="0.45" stop-color="#064E9B"/>
<stop offset="0.59" stop-color="#064E9B"/>
<stop offset="0.85" stop-color="#00336A"/>
<stop offset="0.98" stop-color="#00336A"/>
</linearGradient>
<linearGradient id="paint28_linear_27_172" x1="434.863" y1="127.354" x2="433.346" y2="139.955" gradientUnits="userSpaceOnUse">
<stop stop-color="#00336A"/>
<stop offset="0.45" stop-color="#064E9B"/>
<stop offset="0.59" stop-color="#064E9B"/>
<stop offset="0.85" stop-color="#00336A"/>
<stop offset="0.98" stop-color="#00336A"/>
</linearGradient>
<linearGradient id="paint29_linear_27_172" x1="440.382" y1="133.092" x2="438.783" y2="145.894" gradientUnits="userSpaceOnUse">
<stop stop-color="#00336A"/>
<stop offset="0.45" stop-color="#064E9B"/>
<stop offset="0.59" stop-color="#064E9B"/>
<stop offset="0.85" stop-color="#00336A"/>
<stop offset="0.98" stop-color="#00336A"/>
</linearGradient>
<linearGradient id="paint30_linear_27_172" x1="446.642" y1="138.143" x2="444.996" y2="150.874" gradientUnits="userSpaceOnUse">
<stop stop-color="#00336A"/>
<stop offset="0.45" stop-color="#064E9B"/>
<stop offset="0.59" stop-color="#064E9B"/>
<stop offset="0.85" stop-color="#00336A"/>
<stop offset="0.98" stop-color="#00336A"/>
</linearGradient>
<linearGradient id="paint31_linear_27_172" x1="453.523" y1="142.417" x2="451.86" y2="154.832" gradientUnits="userSpaceOnUse">
<stop stop-color="#00336A"/>
<stop offset="0.45" stop-color="#064E9B"/>
<stop offset="0.59" stop-color="#064E9B"/>
<stop offset="0.85" stop-color="#00336A"/>
<stop offset="0.98" stop-color="#00336A"/>
</linearGradient>
<linearGradient id="paint32_linear_27_172" x1="460.884" y1="145.843" x2="459.189" y2="157.861" gradientUnits="userSpaceOnUse">
<stop stop-color="#00336A"/>
<stop offset="0.45" stop-color="#064E9B"/>
<stop offset="0.59" stop-color="#064E9B"/>
<stop offset="0.85" stop-color="#00336A"/>
<stop offset="0.98" stop-color="#00336A"/>
</linearGradient>
<linearGradient id="paint33_linear_27_172" x1="468.594" y1="148.385" x2="466.665" y2="160.495" gradientUnits="userSpaceOnUse">
<stop stop-color="#00336A"/>
<stop offset="0.45" stop-color="#064E9B"/>
<stop offset="0.59" stop-color="#064E9B"/>
<stop offset="0.85" stop-color="#00336A"/>
<stop offset="0.98" stop-color="#00336A"/>
</linearGradient>
<linearGradient id="paint34_linear_27_172" x1="476.513" y1="149.951" x2="474.317" y2="161.959" gradientUnits="userSpaceOnUse">
<stop stop-color="#00336A"/>
<stop offset="0.45" stop-color="#064E9B"/>
<stop offset="0.59" stop-color="#064E9B"/>
<stop offset="0.85" stop-color="#00336A"/>
<stop offset="0.98" stop-color="#00336A"/>
</linearGradient>
<linearGradient id="paint35_linear_27_172" x1="484.524" y1="149.894" x2="482.211" y2="162.265" gradientUnits="userSpaceOnUse">
<stop stop-color="#00336A"/>
<stop offset="0.45" stop-color="#064E9B"/>
<stop offset="0.59" stop-color="#064E9B"/>
<stop offset="0.85" stop-color="#00336A"/>
<stop offset="0.98" stop-color="#00336A"/>
</linearGradient>
<linearGradient id="paint36_linear_27_172" x1="492.487" y1="148.214" x2="490.165" y2="161.389" gradientUnits="userSpaceOnUse">
<stop stop-color="#00336A"/>
<stop offset="0.45" stop-color="#064E9B"/>
<stop offset="0.59" stop-color="#064E9B"/>
<stop offset="0.85" stop-color="#00336A"/>
<stop offset="0.98" stop-color="#00336A"/>
</linearGradient>
<linearGradient id="paint37_linear_27_172" x1="500.173" y1="145.558" x2="497.869" y2="159.299" gradientUnits="userSpaceOnUse">
<stop stop-color="#00336A"/>
<stop offset="0.45" stop-color="#064E9B"/>
<stop offset="0.59" stop-color="#064E9B"/>
<stop offset="0.85" stop-color="#00336A"/>
<stop offset="0.98" stop-color="#00336A"/>
</linearGradient>
<linearGradient id="paint38_linear_27_172" x1="507.465" y1="141.973" x2="505.209" y2="156.035" gradientUnits="userSpaceOnUse">
<stop stop-color="#00336A"/>
<stop offset="0.45" stop-color="#064E9B"/>
<stop offset="0.59" stop-color="#064E9B"/>
<stop offset="0.85" stop-color="#00336A"/>
<stop offset="0.98" stop-color="#00336A"/>
</linearGradient>
<linearGradient id="paint39_linear_27_172" x1="514.195" y1="137.544" x2="512.011" y2="151.667" gradientUnits="userSpaceOnUse">
<stop stop-color="#00336A"/>
<stop offset="0.45" stop-color="#064E9B"/>
<stop offset="0.59" stop-color="#064E9B"/>
<stop offset="0.85" stop-color="#00336A"/>
<stop offset="0.98" stop-color="#00336A"/>
</linearGradient>
<linearGradient id="paint40_linear_27_172" x1="520.25" y1="132.34" x2="518.172" y2="146.271" gradientUnits="userSpaceOnUse">
<stop stop-color="#00336A"/>
<stop offset="0.45" stop-color="#064E9B"/>
<stop offset="0.59" stop-color="#064E9B"/>
<stop offset="0.85" stop-color="#00336A"/>
<stop offset="0.98" stop-color="#00336A"/>
</linearGradient>
<linearGradient id="paint41_linear_27_172" x1="525.511" y1="126.474" x2="523.569" y2="139.957" gradientUnits="userSpaceOnUse">
<stop stop-color="#00336A"/>
<stop offset="0.45" stop-color="#064E9B"/>
<stop offset="0.59" stop-color="#064E9B"/>
<stop offset="0.85" stop-color="#00336A"/>
<stop offset="0.98" stop-color="#00336A"/>
</linearGradient>
<linearGradient id="paint42_linear_27_172" x1="529.866" y1="120.063" x2="528.087" y2="132.852" gradientUnits="userSpaceOnUse">
<stop stop-color="#00336A"/>
<stop offset="0.45" stop-color="#064E9B"/>
<stop offset="0.59" stop-color="#064E9B"/>
<stop offset="0.85" stop-color="#00336A"/>
<stop offset="0.98" stop-color="#00336A"/>
</linearGradient>
<linearGradient id="paint43_linear_27_172" x1="533.241" y1="113.204" x2="531.648" y2="125.085" gradientUnits="userSpaceOnUse">
<stop stop-color="#00336A"/>
<stop offset="0.45" stop-color="#064E9B"/>
<stop offset="0.59" stop-color="#064E9B"/>
<stop offset="0.85" stop-color="#00336A"/>
<stop offset="0.98" stop-color="#00336A"/>
</linearGradient>
<linearGradient id="paint44_linear_27_172" x1="536.105" y1="107.104" x2="535.034" y2="116.929" gradientUnits="userSpaceOnUse">
<stop stop-color="#00336A"/>
<stop offset="0.45" stop-color="#064E9B"/>
<stop offset="0.59" stop-color="#064E9B"/>
<stop offset="0.85" stop-color="#00336A"/>
<stop offset="0.98" stop-color="#00336A"/>
</linearGradient>
<linearGradient id="paint45_linear_27_172" x1="536.427" y1="82.102" x2="536.828" y2="92.9243" gradientUnits="userSpaceOnUse">
<stop stop-color="#F86202"/>
<stop offset="0.45" stop-color="#FB7119"/>
<stop offset="0.59" stop-color="#FF7D29"/>
<stop offset="0.85" stop-color="#F86202"/>
<stop offset="0.98" stop-color="#F86202"/>
</linearGradient>
<linearGradient id="paint46_linear_27_172" x1="534.299" y1="73.889" x2="534.764" y2="85.7897" gradientUnits="userSpaceOnUse">
<stop stop-color="#F86202"/>
<stop offset="0.45" stop-color="#FB7119"/>
<stop offset="0.59" stop-color="#FF7D29"/>
<stop offset="0.85" stop-color="#F86202"/>
<stop offset="0.98" stop-color="#F86202"/>
</linearGradient>
<linearGradient id="paint47_linear_27_172" x1="531.095" y1="66.1367" x2="531.616" y2="78.8885" gradientUnits="userSpaceOnUse">
<stop stop-color="#F86202"/>
<stop offset="0.45" stop-color="#FB7119"/>
<stop offset="0.59" stop-color="#FF7D29"/>
<stop offset="0.85" stop-color="#F86202"/>
<stop offset="0.98" stop-color="#F86202"/>
</linearGradient>
<linearGradient id="paint48_linear_27_172" x1="526.913" y1="59.0096" x2="527.48" y2="72.3651" gradientUnits="userSpaceOnUse">
<stop stop-color="#F86202"/>
<stop offset="0.45" stop-color="#FB7119"/>
<stop offset="0.59" stop-color="#FF7D29"/>
<stop offset="0.85" stop-color="#F86202"/>
<stop offset="0.98" stop-color="#F86202"/>
</linearGradient>
<linearGradient id="paint49_linear_27_172" x1="521.803" y1="52.6281" x2="522.407" y2="66.3396" gradientUnits="userSpaceOnUse">
<stop stop-color="#F86202"/>
<stop offset="0.45" stop-color="#FB7119"/>
<stop offset="0.59" stop-color="#FF7D29"/>
<stop offset="0.85" stop-color="#F86202"/>
<stop offset="0.98" stop-color="#F86202"/>
</linearGradient>
<linearGradient id="paint50_linear_27_172" x1="515.879" y1="47.1708" x2="516.506" y2="60.9329" gradientUnits="userSpaceOnUse">
<stop stop-color="#F86202"/>
<stop offset="0.45" stop-color="#FB7119"/>
<stop offset="0.59" stop-color="#FF7D29"/>
<stop offset="0.85" stop-color="#F86202"/>
<stop offset="0.98" stop-color="#F86202"/>
</linearGradient>
<linearGradient id="paint51_linear_27_172" x1="509.25" y1="42.6653" x2="509.891" y2="56.2478" gradientUnits="userSpaceOnUse">
<stop stop-color="#F86202"/>
<stop offset="0.45" stop-color="#FB7119"/>
<stop offset="0.59" stop-color="#FF7D29"/>
<stop offset="0.85" stop-color="#F86202"/>
<stop offset="0.98" stop-color="#F86202"/>
</linearGradient>
<linearGradient id="paint52_linear_27_172" x1="502.052" y1="39.2447" x2="502.694" y2="52.3683" gradientUnits="userSpaceOnUse">
<stop stop-color="#F86202"/>
<stop offset="0.45" stop-color="#FB7119"/>
<stop offset="0.59" stop-color="#FF7D29"/>
<stop offset="0.85" stop-color="#F86202"/>
<stop offset="0.98" stop-color="#F86202"/>
</linearGradient>
<linearGradient id="paint53_linear_27_172" x1="494.886" y1="36.292" x2="495.642" y2="49.3689" gradientUnits="userSpaceOnUse">
<stop stop-color="#F86202"/>
<stop offset="0.45" stop-color="#FB7119"/>
<stop offset="0.59" stop-color="#FF7D29"/>
<stop offset="0.85" stop-color="#F86202"/>
<stop offset="0.98" stop-color="#F86202"/>
</linearGradient>
<linearGradient id="paint54_linear_27_172" x1="478.193" y1="57.0769" x2="482.146" y2="138.153" gradientUnits="userSpaceOnUse">
<stop stop-color="#F86202"/>
<stop offset="0.45" stop-color="#FB7119"/>
<stop offset="0.59" stop-color="#FF7D29"/>
<stop offset="0.85" stop-color="#F86202"/>
<stop offset="0.98" stop-color="#F86202"/>
</linearGradient>
</defs>
</svg>
