<svg width="526" height="338" viewBox="0 0 526 338" fill="none" xmlns="http://www.w3.org/2000/svg">
<path d="M33.4321 263.897C33.4321 280.732 25.302 294.671 25.302 294.671C25.302 294.671 17.1719 280.732 17.1719 263.897C17.1719 247.062 25.302 233.121 25.302 233.121C25.302 233.121 33.4321 247.062 33.4321 263.897Z" fill="#AFBDC3"/>
<path d="M54.6965 265.837C53.1822 282.603 43.8423 295.753 43.8423 295.753C43.8423 295.753 37.0014 281.137 38.5157 264.371C40.03 247.605 49.3832 234.455 49.3832 234.455C49.3832 234.455 56.2108 249.074 54.6965 265.837Z" fill="#AFBDC3"/>
<path d="M22.3995 267.348C25.4916 281.313 20.9328 294.457 20.9328 294.457C20.9328 294.457 11.254 284.466 8.16184 270.498C5.0697 256.53 9.62584 243.389 9.62584 243.389C9.62584 243.389 19.3073 253.38 22.3995 267.348Z" fill="#D9D9D9"/>
<path d="M42.7543 270.036C40.5782 284.176 31.5664 294.773 31.5664 294.773C31.5664 294.773 26.1631 281.955 28.3419 267.817C30.5207 253.68 39.5272 243.08 39.5272 243.08C39.5272 243.08 44.9305 255.909 42.7543 270.036Z" fill="#D9D9D9"/>
<path d="M62.4221 270.347C60.2459 284.484 51.2369 295.085 51.2369 295.085C51.2369 295.085 45.8309 282.266 48.0097 268.126C50.1885 253.986 59.1976 243.389 59.1976 243.389C59.1976 243.389 64.6115 256.207 62.4221 270.347Z" fill="#D9D9D9"/>
<path d="M61.4203 281.361H8.72656V327.789H61.4203V281.361Z" fill="#999999"/>
<path d="M61.4203 291.072H8.72656V294.657H61.4203V291.072Z" fill="#F2F2F2"/>
<path d="M61.4203 296.984H8.72656V298.777H61.4203V296.984Z" fill="#F2F2F2"/>
<path d="M494.662 328.762H175.731C166.087 320.026 168.091 301.494 178.805 294.081C185.32 289.581 194.26 288.63 199.372 282.586C203.918 277.212 204.008 269.325 202.43 262.466C200.852 255.606 197.861 249.075 196.995 242.081C195.433 229.516 201.559 216.279 212.183 209.319C222.807 202.359 237.381 202.042 248.299 208.507C255.325 212.668 262.259 219.668 270.185 217.701C276.086 216.237 279.678 210.082 280.814 204.109C281.95 198.137 281.32 191.952 282.257 185.943C284.64 170.696 298.16 157.909 313.515 156.395C328.87 154.881 344.635 164.777 349.943 179.266C353.649 189.416 352.527 200.649 354.369 211.3C356.212 221.95 362.955 233.397 373.719 234.393C378.908 234.872 384.168 232.783 389.28 233.787C398.467 235.587 402.848 246.012 405.03 255.117C407.211 264.221 409.612 274.708 417.912 279.028C424.43 282.425 432.753 280.556 438.562 276.074C444.37 271.592 448.121 264.939 451.084 258.214C455.69 247.749 458.857 236.574 464.887 226.861C470.918 217.148 480.745 208.779 492.174 208.456C503.603 208.133 515.219 218.9 512.572 230.025C511.248 235.608 506.867 240.085 505.557 245.684C503.889 252.811 507.479 259.98 509.191 267.086C513.951 286.806 504.116 310.818 494.662 328.762Z" fill="url(#paint0_linear_14_192)"/>
<path d="M492.034 203.01H411.129L386.773 328.256H461.61L473.078 317.433C473.078 317.433 481.619 253.101 481.619 252.365C481.619 251.629 489.183 223.437 489.183 223.437L492.034 203.01Z" fill="#EF8456"/>
<path d="M482.817 327.972C482.817 327.972 507.035 228.514 494.833 205.434C482.632 182.354 462.133 328.274 462.133 328.274L482.817 327.972Z" fill="#01184A"/>
<path d="M424.304 203.167C427.698 203.506 431.143 202.854 434.325 201.626C436.322 200.901 438.178 199.836 439.813 198.478C441.602 196.93 442.96 194.936 444.067 192.842C448.928 183.637 449.012 172.457 446.185 162.434C445.126 158.698 444.62 155.021 443.008 151.495C441.539 148.299 441.862 144.582 440.999 141.17C439.424 135.06 434.208 130.514 428.569 127.684C415.433 121.111 399.485 123.011 387.535 131.563C381.65 131.7 375.839 133.18 371.793 137.458C367.736 141.813 365.461 147.532 365.418 153.483C365.382 155.055 365.578 156.623 366.001 158.137C366.647 160.313 367.899 162.254 369.135 164.16C371.412 167.673 373.736 171.242 376.929 173.955C378.385 175.189 380.006 176.23 381.361 177.574C383.259 179.462 384.538 181.863 385.817 184.225C395.641 190.298 406.667 195.662 417.029 200.771C418.874 201.668 422.268 202.963 424.304 203.167Z" fill="#263238"/>
<path d="M447.57 215.588L399.088 227.316L390.142 224.404C390.142 224.404 378.997 224.933 372.243 233.474C365.49 242.014 331.738 298.155 331.738 298.155L371.394 327.671H474.496C474.496 327.671 482.174 324.682 483.648 314.434C485.123 304.186 494.955 224.727 447.57 215.588ZM381.03 313.383L365.718 301.565L376.76 287.775L381.03 282.53V313.383Z" fill="#455A64"/>
<path d="M393.953 223.574L390.059 224.429L395.179 229.149C400.462 234.023 407.408 236.695 414.595 236.619C421.783 236.543 428.67 233.724 433.849 228.739L447.491 215.608L441.797 214.869C441.797 214.869 430.413 218.531 430.082 218.692C429.751 218.853 403.971 223.656 403.971 223.656L393.953 223.574Z" fill="#01184A"/>
<path d="M384.712 149.672C384.712 149.672 364.682 206.157 402.259 214.21V221.168L394.036 223.566C406.526 235.408 426.461 234.264 437.432 221.004C439.063 219.07 440.546 217.017 441.869 214.862L433.082 213.48L428.547 197.206C428.547 197.206 433.734 182.359 430.562 170.523C430.562 170.523 425.437 173.512 421.826 170.827C418.215 168.143 413.711 158.872 409.685 158.747C405.658 158.623 395.654 160.579 391.444 157.222C388.815 155.077 386.543 152.529 384.712 149.672Z" fill="#FFDEC1"/>
<path d="M391.731 327.747L394.333 325.346L350.773 265.385L348.168 267.786L391.731 327.747Z" fill="#2B5480"/>
<path d="M291.285 267.786L293.888 265.385H350.746L348.141 267.786H291.285Z" fill="#386799"/>
<path d="M391.703 327.707L348.141 267.746H291.285L334.845 327.707H391.703Z" fill="#00336A"/>
<path d="M345.15 306.565C347.518 304.196 346.845 299.682 343.645 296.482C340.445 293.282 335.931 292.608 333.562 294.977C331.194 297.346 331.867 301.86 335.067 305.059C338.267 308.259 342.781 308.933 345.15 306.565Z" fill="#FFD3A9"/>
<path d="M336.235 328.132C336.235 328.132 328.152 329.598 324.507 321.055C320.861 312.512 309.152 301.533 310.489 298.849C311.826 296.164 329.158 312.271 329.158 312.271C329.158 312.271 339.554 302.447 341.204 303.302C342.853 304.157 334.585 317.211 334.585 317.211C334.585 317.211 348.129 307.267 350.753 308.549C353.376 309.83 341.423 321.362 341.423 321.362C341.423 321.362 357.226 311.514 359.426 313.388C361.626 315.263 358.144 317.823 358.144 317.823C358.144 317.823 360.281 316.968 361.258 318.005C362.235 319.043 357.043 328.862 336.235 328.132Z" fill="#FDA08E"/>
<path d="M358.066 317.89C353.914 321.513 348.881 323.978 343.474 325.038C343.433 325.048 343.395 325.066 343.361 325.091C343.328 325.117 343.3 325.148 343.279 325.185C343.258 325.221 343.245 325.261 343.24 325.303C343.236 325.345 343.239 325.387 343.251 325.427C343.286 325.507 343.349 325.571 343.428 325.607C343.507 325.644 343.597 325.65 343.68 325.626C349.197 324.537 354.33 322.015 358.564 318.313C358.9 318.02 358.37 317.63 358.066 317.89Z" fill="#E97A6F"/>
<path d="M386.69 178.089C387.132 177.023 386.626 175.801 385.56 175.36C384.494 174.918 383.272 175.424 382.831 176.49C382.389 177.556 382.895 178.778 383.961 179.219C385.027 179.661 386.249 179.155 386.69 178.089Z" fill="#00336A"/>
<path d="M408.682 178.089C409.124 177.023 408.618 175.801 407.552 175.36C406.486 174.918 405.264 175.424 404.823 176.49C404.381 177.556 404.887 178.778 405.953 179.219C407.019 179.661 408.241 179.155 408.682 178.089Z" fill="#00336A"/>
<path d="M402.172 214.231C402.172 214.231 414.186 216.185 419.981 213.379C419.981 213.379 413.463 219.786 402.172 217.284V214.231Z" fill="#FFD3A9"/>
<path d="M380.981 282.555V251.318L376.711 287.802L380.981 282.555Z" fill="#354B55"/>
<path d="M426.562 309.34L447.061 300.974L449.868 255.219C449.868 255.219 446.37 296.542 426.562 309.34Z" fill="#354B55"/>
<path d="M446.895 300.684L398.477 320.109L398.668 320.586L447.086 301.161L446.895 300.684Z" fill="#AFBDC3"/>
<path d="M397.094 198.656C397.758 201.039 399.929 205.886 406.468 204.43C406.349 197.589 413.529 194.698 413.529 194.698C413.415 194.341 413.288 194.015 413.161 193.719C409.849 195.5 401.475 199.652 397.094 198.656Z" fill="#AFBDC3"/>
<path d="M396.836 197.437C396.896 197.856 396.985 198.27 397.101 198.676C401.477 199.672 409.856 195.52 413.168 193.739C412.947 193.215 412.681 192.711 412.374 192.232L396.836 197.437Z" fill="white"/>
<path d="M406.486 204.478C407.015 204.358 407.537 204.21 408.05 204.033C414.568 201.809 414.433 197.486 413.546 194.746C413.546 194.746 406.367 197.637 406.486 204.478Z" fill="#E97A6F"/>
<path d="M388.013 163.438C386.715 163.38 385.421 163.618 384.229 164.134C383.036 164.649 381.977 165.429 381.13 166.414C380.717 166.89 381.614 167.348 381.998 166.909C382.74 166.06 383.665 165.39 384.703 164.949C385.741 164.508 386.865 164.307 387.992 164.362C388.055 164.368 388.119 164.361 388.18 164.341C388.24 164.322 388.296 164.29 388.343 164.247C388.391 164.205 388.429 164.153 388.456 164.096C388.483 164.038 388.497 163.975 388.499 163.912C388.5 163.848 388.489 163.785 388.465 163.726C388.441 163.667 388.405 163.613 388.359 163.569C388.313 163.525 388.259 163.49 388.2 163.468C388.14 163.445 388.077 163.435 388.013 163.438Z" fill="#01184A"/>
<path d="M413.934 166.665C412.728 165.47 411.287 164.538 409.702 163.931C408.116 163.323 406.422 163.053 404.726 163.136C404.096 163.168 404.035 164.102 404.697 164.068C406.264 163.99 407.83 164.241 409.293 164.806C410.757 165.371 412.086 166.236 413.195 167.345C413.621 167.763 414.387 167.115 413.934 166.665Z" fill="#01184A"/>
<path d="M395.322 189.219C395.295 189.596 395.18 189.962 394.987 190.287C394.793 190.611 394.526 190.886 394.207 191.089C393.413 191.618 392.431 191.758 391.488 191.756C390.732 191.795 389.978 191.639 389.299 191.303C388.99 191.122 388.749 190.844 388.614 190.512C388.479 190.181 388.458 189.814 388.552 189.468C388.751 188.534 389.304 187.721 389.781 186.906C390.31 185.998 390.817 185.078 391.303 184.144C392.258 182.304 393.124 180.42 393.903 178.492C394.783 176.318 395.545 174.097 396.185 171.839C396.402 171.074 395.126 170.844 394.903 171.575C393.661 175.965 391.952 180.209 389.804 184.234C389.275 185.225 388.703 186.188 388.144 187.147C387.615 188.039 387.115 189.071 387.191 190.133C387.356 192.328 389.709 192.926 391.536 192.931C392.74 192.931 394.038 192.711 395.033 191.991C395.503 191.676 395.892 191.255 396.171 190.762C396.449 190.269 396.609 189.719 396.637 189.153C396.656 188.393 395.343 188.444 395.322 189.219Z" fill="#666666"/>
<path d="M429.725 171.069C429.725 171.069 430.731 162.701 436.078 165.092C441.426 167.482 436.65 185.614 431.313 184.791C425.976 183.968 429.725 171.069 429.725 171.069Z" fill="#FFEBD7"/>
<path d="M434.449 170.395C432.05 172.828 430.285 175.812 429.308 179.087C429.08 179.849 430.367 180.079 430.589 179.351C430.983 178.032 431.515 176.759 432.178 175.552L432.26 175.634C432.649 176.059 433.011 176.508 433.343 176.979C433.447 177.113 433.597 177.205 433.764 177.238C433.93 177.271 434.104 177.242 434.251 177.157C434.321 177.118 434.382 177.066 434.43 177.003C434.479 176.939 434.514 176.867 434.533 176.79C434.552 176.712 434.555 176.632 434.542 176.553C434.528 176.475 434.499 176.4 434.455 176.333C433.972 175.653 433.431 175.017 432.837 174.432C433.58 173.266 434.445 172.182 435.416 171.197C436.006 170.599 434.992 169.847 434.449 170.395Z" fill="#D3B497"/>
<path d="M434.203 182.215C434.203 182.559 434.1 182.896 433.909 183.183C433.717 183.469 433.445 183.693 433.127 183.824C432.808 183.956 432.458 183.99 432.12 183.923C431.782 183.856 431.472 183.689 431.228 183.445C430.985 183.202 430.819 182.891 430.752 182.553C430.685 182.215 430.72 181.864 430.852 181.546C430.984 181.228 431.208 180.956 431.495 180.765C431.782 180.574 432.119 180.472 432.463 180.473C432.692 180.473 432.918 180.518 433.13 180.605C433.341 180.693 433.533 180.821 433.694 180.983C433.856 181.145 433.984 181.337 434.071 181.548C434.158 181.76 434.203 181.986 434.203 182.215Z" fill="#006CBA"/>
<path d="M525.69 327.195H0V329.292H525.69V327.195Z" fill="#01184A"/>
<path d="M18.6839 150.33C15.7373 150.327 12.9125 149.154 10.8301 147.069C8.74777 144.984 7.57812 142.158 7.57813 139.211V11.9848C7.58163 8.80732 8.84543 5.76097 11.0922 3.51414C13.3391 1.26731 16.3854 0.00350369 19.5629 0H265.886C269.063 0.00560464 272.107 1.27034 274.352 3.51694C276.597 5.76354 277.86 8.80869 277.863 11.9848V139.224C277.863 142.173 276.692 145.002 274.607 147.087C272.521 149.172 269.693 150.344 266.744 150.344L18.6839 150.33Z" fill="#01184A"/>
<path d="M265.921 3.16016H19.5971C18.4397 3.15912 17.2935 3.38617 16.224 3.82834C15.1545 4.27051 14.1826 4.91914 13.3638 5.73713C12.5451 6.55513 11.8956 7.52646 11.4525 8.5956C11.0093 9.66475 10.7812 10.8107 10.7813 11.9681V139.208C10.7812 141.312 11.6162 143.33 13.1028 144.819C14.5894 146.308 16.6061 147.146 18.7102 147.15H266.789C268.896 147.15 270.916 146.313 272.405 144.824C273.895 143.334 274.732 141.314 274.732 139.208V11.9681C274.732 10.8111 274.504 9.66537 274.062 8.59641C273.619 7.52746 272.97 6.55623 272.152 5.73823C271.333 4.92024 270.362 4.27151 269.293 3.82915C268.224 3.38679 267.078 3.15946 265.921 3.16016Z" fill="#FFEACD"/>
<path d="M19.5971 3.16016H265.921C267.077 3.16016 268.223 3.38801 269.291 3.83068C270.359 4.27335 271.33 4.92218 272.148 5.7401C272.966 6.55803 273.614 7.52903 274.056 8.59764C274.499 9.66625 274.726 10.8115 274.726 11.9681V26.2138H10.7813V11.9681C10.7809 10.8106 11.0087 9.66449 11.4518 8.59519C11.8948 7.52589 12.5442 6.55442 13.363 5.73635C14.1818 4.91829 15.1539 4.26969 16.2236 3.82764C17.2933 3.38559 18.4396 3.15877 19.5971 3.16016Z" fill="#13417C"/>
<path d="M10.7812 26.2324H274.726V139.226C274.726 141.333 273.889 143.353 272.4 144.842C270.91 146.332 268.89 147.169 266.784 147.169H18.7234C16.617 147.169 14.5969 146.332 13.1075 144.842C11.618 143.353 10.7812 141.333 10.7812 139.226V26.2324Z" fill="white"/>
<path d="M24.6293 18.0966C26.4935 18.0966 28.0048 16.5854 28.0048 14.7211C28.0048 12.8569 26.4935 11.3457 24.6293 11.3457C22.7651 11.3457 21.2539 12.8569 21.2539 14.7211C21.2539 16.5854 22.7651 18.0966 24.6293 18.0966Z" fill="#AFBDC3"/>
<path d="M38.3871 18.0966C40.2513 18.0966 41.7626 16.5854 41.7626 14.7211C41.7626 12.8569 40.2513 11.3457 38.3871 11.3457C36.5229 11.3457 35.0117 12.8569 35.0117 14.7211C35.0117 16.5854 36.5229 18.0966 38.3871 18.0966Z" fill="white"/>
<path d="M52.1215 18.0966C53.9857 18.0966 55.4969 16.5854 55.4969 14.7211C55.4969 12.8569 53.9857 11.3457 52.1215 11.3457C50.2573 11.3457 48.7461 12.8569 48.7461 14.7211C48.7461 16.5854 50.2573 18.0966 52.1215 18.0966Z" fill="white"/>
<path d="M256.932 37.3223H30.6992V50.0483H256.932V37.3223Z" fill="#F2F2F2"/>
<path d="M199.378 37.3223H30.6992V50.0483H199.378V37.3223Z" fill="#AFBDC3"/>
<path d="M262.797 63.9141H208.98V72.7326H262.797V63.9141Z" fill="#EF8456"/>
<path d="M262.797 83.9355H208.98V88.3461H262.797V83.9355Z" fill="#EF8456"/>
<path d="M262.797 94.9219H208.98V99.3325H262.797V94.9219Z" fill="#EF8456"/>
<path d="M262.797 105.908H208.98V110.319H262.797V105.908Z" fill="#EF8456"/>
<path d="M262.797 116.896H208.98V121.307H262.797V116.896Z" fill="#EF8456"/>
<path d="M237.429 127.936H208.98V132.346H237.429V127.936Z" fill="#EF8456"/>
<path d="M262.797 63.9141H208.98V72.7326H262.797V63.9141Z" fill="#EF8456"/>
<path d="M262.797 83.9355H208.98V88.3461H262.797V83.9355Z" fill="#EF8456"/>
<path d="M262.797 94.9219H208.98V99.3325H262.797V94.9219Z" fill="#EF8456"/>
<path d="M262.797 105.908H208.98V110.319H262.797V105.908Z" fill="#EF8456"/>
<path d="M262.797 116.896H208.98V121.307H262.797V116.896Z" fill="#EF8456"/>
<path d="M237.429 127.936H208.98V132.346H237.429V127.936Z" fill="#EF8456"/>
<path d="M45.0238 85.4199H37.2695V133.732H45.0238V85.4199Z" fill="#E46449"/>
<path d="M60.2191 98.1055H52.4648V133.774H60.2191V98.1055Z" fill="#EF8456"/>
<path d="M75.5511 106.379H67.7969V133.745H75.5511V106.379Z" fill="#E46449"/>
<path d="M90.8167 92.3984H83.0625V133.73H90.8167V92.3984Z" fill="#76BA41"/>
<path d="M106.063 73.5664H98.3086V133.771H106.063V73.5664Z" fill="#228240"/>
<path d="M71.8392 99.1842L49.2675 75.3523H37.2695V74.0286H49.8394L50.0326 74.2377L71.6009 97.0054L81.8278 79.8793H86.6885L99.6025 63.709L100.635 64.535L87.3265 81.203H82.5797L71.8392 99.1842Z" fill="#228240"/>
<path d="M104.056 69.7131L106.031 56.6641L93.7422 61.4771L104.056 69.7131Z" fill="#228240"/>
<path d="M196.468 96.9137C196.465 104.209 194.299 111.339 190.245 117.403C186.19 123.467 180.428 128.193 173.688 130.983C166.948 133.773 159.532 134.501 152.377 133.076C145.223 131.652 138.652 128.137 133.494 122.978C128.337 117.819 124.825 111.247 123.403 104.092C121.981 96.9369 122.712 89.5209 125.504 82.7816C128.297 76.0423 133.024 70.2822 139.09 66.2297C145.156 62.1772 152.287 60.0142 159.581 60.0142C164.434 59.9892 169.242 60.9267 173.73 62.7725C178.217 64.6182 182.294 67.3354 185.724 70.767C189.155 74.1986 191.87 78.2764 193.714 82.7644C195.559 87.2525 196.494 92.0616 196.468 96.9137Z" fill="#E46449"/>
<path d="M159.506 128.087C176.717 128.087 190.669 114.135 190.669 96.9244C190.669 79.7137 176.717 65.7617 159.506 65.7617C142.296 65.7617 128.344 79.7137 128.344 96.9244C128.344 114.135 142.296 128.087 159.506 128.087Z" fill="#EF8456"/>
<path d="M164.048 141.086H42.4456C41.4694 141.086 40.5027 141.278 39.6008 141.652C38.6988 142.025 37.8793 142.573 37.189 143.263C36.4987 143.954 35.9512 144.773 35.5776 145.675C35.204 146.577 35.0117 147.544 35.0117 148.52V211.369C35.0117 213.341 35.7949 215.232 37.189 216.626C38.5832 218.02 40.474 218.803 42.4456 218.803H56.7415V238.076L78.9187 218.803H164.048C166.02 218.803 167.911 218.02 169.305 216.626C170.699 215.232 171.482 213.341 171.482 211.369V148.52C171.482 147.544 171.29 146.577 170.916 145.675C170.543 144.773 169.995 143.954 169.305 143.263C168.614 142.573 167.795 142.025 166.893 141.652C165.991 141.278 165.024 141.086 164.048 141.086Z" fill="#F2F2F2"/>
<path d="M116.19 164.5C116.465 162.806 115.316 161.209 113.622 160.933C111.927 160.657 110.33 161.807 110.054 163.501C109.778 165.195 110.928 166.792 112.622 167.068C114.317 167.344 115.914 166.194 116.19 164.5Z" fill="#EF8456"/>
<path d="M128.385 164.598C128.732 162.917 127.651 161.272 125.97 160.925C124.289 160.577 122.645 161.658 122.297 163.339C121.95 165.02 123.031 166.665 124.712 167.012C126.393 167.36 128.037 166.279 128.385 164.598Z" fill="#EF8456"/>
<path d="M139.761 166.219C140.975 165.005 140.975 163.038 139.761 161.824C138.547 160.61 136.579 160.61 135.366 161.824C134.152 163.038 134.152 165.005 135.366 166.219C136.579 167.433 138.547 167.433 139.761 166.219Z" fill="#EF8456"/>
<path d="M152.807 164.498C153.083 162.804 151.933 161.207 150.239 160.931C148.544 160.655 146.947 161.805 146.671 163.499C146.396 165.193 147.545 166.79 149.24 167.066C150.934 167.342 152.531 166.192 152.807 164.498Z" fill="#EF8456"/>
<path d="M161.366 172.234H106.883V176.025H161.366V172.234Z" fill="#EF8456"/>
<path d="M161.295 179.688H101.543V183.479H161.295V179.688Z" fill="#EF8456"/>
<path d="M161.295 187.123H101.543V190.914H161.295V187.123Z" fill="#EF8456"/>
<path d="M144.65 194.516H101.543V198.307H144.65V194.516Z" fill="#EF8456"/>
<path d="M116.19 164.5C116.465 162.806 115.316 161.209 113.622 160.933C111.927 160.657 110.33 161.807 110.054 163.501C109.778 165.195 110.928 166.792 112.622 167.068C114.317 167.344 115.914 166.194 116.19 164.5Z" fill="#00336A"/>
<path d="M128.385 164.598C128.732 162.917 127.651 161.272 125.97 160.925C124.289 160.577 122.645 161.658 122.297 163.339C121.95 165.02 123.031 166.665 124.712 167.012C126.393 167.36 128.037 166.279 128.385 164.598Z" fill="#00336A"/>
<path d="M139.761 166.219C140.975 165.005 140.975 163.038 139.761 161.824C138.547 160.61 136.579 160.61 135.366 161.824C134.152 163.038 134.152 165.005 135.366 166.219C136.579 167.433 138.547 167.433 139.761 166.219Z" fill="#00336A"/>
<path d="M152.807 164.498C153.083 162.804 151.933 161.207 150.239 160.931C148.544 160.655 146.947 161.805 146.671 163.499C146.396 165.193 147.545 166.79 149.24 167.066C150.934 167.342 152.531 166.192 152.807 164.498Z" fill="#EF8456"/>
<path d="M161.366 172.234H106.883V176.025H161.366V172.234Z" fill="#98B0BA"/>
<path d="M161.295 179.688H101.543V183.479H161.295V179.688Z" fill="#98B0BA"/>
<path d="M161.295 187.123H101.543V190.914H161.295V187.123Z" fill="#98B0BA"/>
<path d="M144.65 194.516H101.543V198.307H144.65V194.516Z" fill="#98B0BA"/>
<g filter="url(#filter0_d_14_192)">
<path d="M511.562 29.8262H426.634C425.444 29.8262 424.266 30.0605 423.167 30.5158C422.068 30.9711 421.069 31.6384 420.228 32.4796C419.386 33.3209 418.719 34.3196 418.264 35.4187C417.809 36.5178 417.574 37.6959 417.574 38.8856V96.2813C417.574 97.4713 417.808 98.6496 418.263 99.749C418.718 100.848 419.385 101.847 420.227 102.689C421.068 103.531 422.067 104.198 423.166 104.654C424.265 105.109 425.444 105.343 426.634 105.343H466.225V112.581L474.721 105.343H511.562C512.752 105.343 513.93 105.109 515.029 104.654C516.128 104.198 517.127 103.531 517.969 102.689C518.81 101.847 519.477 100.848 519.932 99.749C520.387 98.6496 520.621 97.4713 520.621 96.2813V38.8856C520.621 36.4829 519.667 34.1786 517.968 32.4796C516.269 30.7806 513.964 29.8262 511.562 29.8262Z" fill="#FFEBD7"/>
</g>
<path d="M442.062 58.8337H459.98C459.98 63.5857 458.092 68.1431 454.732 71.5033C451.371 74.8635 446.814 76.7513 442.062 76.7513C437.31 76.7513 432.753 74.8635 429.392 71.5033C426.032 68.1431 424.145 63.5857 424.145 58.8337C424.145 49.0065 432.232 40.916 442.062 40.916C445.207 40.9163 448.297 41.7445 451.021 43.3172L442.062 58.8337Z" fill="#13417C"/>
<path d="M444.793 57.4546L453.752 41.9355C456.475 43.5091 458.737 45.7715 460.309 48.4955C461.882 51.2195 462.71 54.3093 462.711 57.4546H444.793Z" fill="#E46449"/>
<path d="M492.515 58.8436H510.433C510.431 61.5908 509.797 64.3007 508.581 66.764C507.365 69.2273 505.598 71.3779 503.418 73.0496C501.238 74.7212 498.703 75.8692 496.008 76.4048C493.314 76.9404 490.532 76.8492 487.879 76.1384C485.225 75.4275 482.77 74.1159 480.705 72.3051C478.639 70.4942 477.017 68.2326 475.965 65.6949C474.912 63.1573 474.457 60.4117 474.635 57.6702C474.813 54.9288 475.619 52.265 476.991 49.8848L492.515 58.8436Z" fill="#E46449"/>
<path d="M493.29 57.3961L477.773 48.4373C479.347 45.7149 481.609 43.4541 484.333 41.8817C487.056 40.3093 490.145 39.4805 493.29 39.4785C503.12 39.4785 511.207 47.569 511.207 57.3961H493.29Z" fill="#13417C"/>
<path d="M455.843 81.1641H428.289V84.5607H455.843V81.1641Z" fill="#13417C"/>
<path d="M455.843 87.3242H428.289V90.7208H455.843V87.3242Z" fill="#13417C"/>
<path d="M455.843 93.4844H428.289V96.881H455.843V93.4844Z" fill="#13417C"/>
<path d="M506.32 81.1641H478.766V84.5607H506.32V81.1641Z" fill="#13417C"/>
<path d="M506.32 87.3242H478.766V90.7208H506.32V87.3242Z" fill="#13417C"/>
<path d="M506.32 93.4844H478.766V96.881H506.32V93.4844Z" fill="#13417C"/>
<path d="M503.103 322.612H486.16V286.102H503.103C505.792 286.104 508.369 287.174 510.27 289.074C512.171 290.975 513.24 293.553 513.243 296.241V312.472C513.24 315.161 512.171 317.738 510.27 319.639C508.369 321.54 505.792 322.609 503.103 322.612ZM491.72 317.052H503.103C504.318 317.051 505.482 316.568 506.34 315.709C507.199 314.851 507.682 313.687 507.683 312.472V296.241C507.682 295.027 507.199 293.863 506.34 293.004C505.482 292.145 504.318 291.663 503.103 291.661H491.72V317.052Z" fill="#D9D9D9"/>
<path d="M497.803 281.762H457.793V327.374H497.803V281.762Z" fill="#D9D9D9"/>
<path d="M338.09 154.901V148.086H333.817C333.653 147.609 333.456 147.144 333.226 146.694L336.247 143.673L331.434 138.863L328.413 141.884C327.961 141.655 327.492 141.461 327.01 141.301V137.018H320.207V141.29C319.725 141.45 319.256 141.645 318.803 141.873L315.783 138.852L310.988 143.663L314.001 146.694C313.775 147.147 313.581 147.616 313.421 148.097H309.148V154.901H313.421C313.581 155.382 313.775 155.851 314.001 156.304L310.988 159.317L315.801 164.127L318.822 161.106C319.275 161.335 319.744 161.529 320.225 161.689V165.959H327.029V161.689C327.51 161.529 327.979 161.335 328.432 161.106L331.453 164.127L336.266 159.317L333.226 156.296C333.453 155.843 333.646 155.374 333.806 154.893L338.09 154.901ZM323.619 154.901C322.946 154.901 322.287 154.702 321.727 154.328C321.167 153.955 320.73 153.423 320.472 152.801C320.214 152.179 320.146 151.494 320.277 150.834C320.408 150.173 320.732 149.566 321.208 149.09C321.684 148.613 322.291 148.289 322.951 148.157C323.612 148.026 324.296 148.093 324.919 148.351C325.541 148.608 326.073 149.045 326.447 149.604C326.821 150.164 327.021 150.823 327.021 151.496C327.021 151.943 326.934 152.386 326.763 152.799C326.592 153.212 326.341 153.587 326.026 153.903C325.71 154.22 325.334 154.47 324.922 154.642C324.509 154.813 324.066 154.901 323.619 154.901Z" fill="#999999"/>
<path d="M354.352 142.21V138.001H351.705C351.606 137.703 351.487 137.413 351.348 137.132L353.217 135.261L350.238 132.285L348.369 134.154C348.089 134.013 347.799 133.893 347.501 133.794V131.146H343.289V133.794C342.991 133.894 342.701 134.014 342.421 134.154L340.552 132.285L337.576 135.261L339.445 137.132C339.304 137.413 339.184 137.703 339.085 138.001H336.438V142.21H339.085C339.184 142.508 339.304 142.798 339.445 143.078L337.576 144.947L340.552 147.926L342.421 146.057C342.701 146.197 342.991 146.316 343.289 146.414V149.061H347.501V146.414C347.799 146.317 348.089 146.197 348.369 146.057L350.238 147.926L353.217 144.947L351.348 143.078C351.486 142.797 351.606 142.507 351.705 142.21H354.352ZM345.399 144.352C344.561 144.352 343.742 144.103 343.046 143.638C342.349 143.172 341.806 142.511 341.486 141.737C341.165 140.963 341.081 140.111 341.244 139.29C341.408 138.468 341.811 137.713 342.404 137.121C342.996 136.528 343.751 136.125 344.573 135.961C345.394 135.798 346.246 135.882 347.02 136.202C347.794 136.523 348.455 137.066 348.921 137.763C349.386 138.459 349.635 139.278 349.635 140.116C349.635 140.673 349.526 141.224 349.314 141.739C349.101 142.253 348.789 142.721 348.396 143.115C348.003 143.508 347.535 143.821 347.021 144.034C346.507 144.247 345.956 144.357 345.399 144.357V144.352Z" fill="#EC623E"/>
<path d="M331.67 88.9355L312.23 110.639H321.353V129.637H341.987V110.639H351.107L331.67 88.9355Z" fill="#AFBDC3"/>
<path d="M277.841 103.648H150.769C146.303 103.648 142.684 107.268 142.684 111.734V274.088C142.684 278.554 146.303 282.174 150.769 282.174H277.841C282.306 282.174 285.926 278.554 285.926 274.088V111.734C285.926 107.268 282.306 103.648 277.841 103.648Z" fill="#00336A"/>
<path d="M175.051 146.361H153.901C151.863 146.361 150.211 148.014 150.211 150.052V171.202C150.211 173.24 151.863 174.892 153.901 174.892H175.051C177.09 174.892 178.742 173.24 178.742 171.202V150.052C178.742 148.014 177.09 146.361 175.051 146.361Z" fill="white"/>
<path d="M208.317 146.361H187.167C185.129 146.361 183.477 148.014 183.477 150.052V171.202C183.477 173.24 185.129 174.892 187.167 174.892H208.317C210.355 174.892 212.008 173.24 212.008 171.202V150.052C212.008 148.014 210.355 146.361 208.317 146.361Z" fill="white"/>
<path d="M274.453 113.197H154.161C151.979 113.197 150.211 114.966 150.211 117.147V137.778C150.211 139.96 151.979 141.728 154.161 141.728H274.453C276.635 141.728 278.403 139.96 278.403 137.778V117.147C278.403 114.966 276.635 113.197 274.453 113.197Z" fill="white"/>
<path d="M278.239 116.033H155.492C154.79 116.033 154.117 116.312 153.621 116.808C153.124 117.305 152.845 117.978 152.845 118.68V141.501C152.075 141.229 151.408 140.724 150.936 140.057C150.464 139.39 150.211 138.593 150.211 137.776V117.15C150.211 116.631 150.313 116.117 150.511 115.637C150.71 115.157 151.001 114.721 151.368 114.354C151.735 113.987 152.171 113.696 152.651 113.497C153.13 113.299 153.644 113.197 154.164 113.197H274.45C275.304 113.197 276.134 113.473 276.817 113.984C277.5 114.495 277.999 115.214 278.239 116.033Z" fill="#AFBDC3"/>
<path d="M241.583 146.361H220.433C218.394 146.361 216.742 148.014 216.742 150.052V171.202C216.742 173.24 218.394 174.892 220.433 174.892H241.583C243.621 174.892 245.273 173.24 245.273 171.202V150.052C245.273 148.014 243.621 146.361 241.583 146.361Z" fill="white"/>
<path d="M274.973 146.361H253.261C251.378 146.361 249.852 147.888 249.852 149.771V204.644C249.852 206.527 251.378 208.054 253.261 208.054H274.973C276.856 208.054 278.383 206.527 278.383 204.644V149.771C278.383 147.888 276.856 146.361 274.973 146.361Z" fill="#76BA41"/>
<path d="M175.051 179.525H153.901C151.863 179.525 150.211 181.178 150.211 183.216V204.366C150.211 206.404 151.863 208.056 153.901 208.056H175.051C177.09 208.056 178.742 206.404 178.742 204.366V183.216C178.742 181.178 177.09 179.525 175.051 179.525Z" fill="white"/>
<path d="M208.317 179.525H187.167C185.129 179.525 183.477 181.178 183.477 183.216V204.366C183.477 206.404 185.129 208.056 187.167 208.056H208.317C210.355 208.056 212.008 206.404 212.008 204.366V183.216C212.008 181.178 210.355 179.525 208.317 179.525Z" fill="white"/>
<path d="M241.583 179.525H220.433C218.394 179.525 216.742 181.178 216.742 183.216V204.366C216.742 206.404 218.394 208.056 220.433 208.056H241.583C243.621 208.056 245.273 206.404 245.273 204.366V183.216C245.273 181.178 243.621 179.525 241.583 179.525Z" fill="white"/>
<path d="M175.051 212.688H153.901C151.863 212.688 150.211 214.34 150.211 216.378V237.528C150.211 239.566 151.863 241.219 153.901 241.219H175.051C177.09 241.219 178.742 239.566 178.742 237.528V216.378C178.742 214.34 177.09 212.688 175.051 212.688Z" fill="white"/>
<path d="M208.317 212.688H187.167C185.129 212.688 183.477 214.34 183.477 216.378V237.528C183.477 239.566 185.129 241.219 187.167 241.219H208.317C210.355 241.219 212.008 239.566 212.008 237.528V216.378C212.008 214.34 210.355 212.688 208.317 212.688Z" fill="white"/>
<path d="M241.583 212.688H220.433C218.394 212.688 216.742 214.34 216.742 216.378V237.528C216.742 239.566 218.394 241.219 220.433 241.219H241.583C243.621 241.219 245.273 239.566 245.273 237.528V216.378C245.273 214.34 243.621 212.688 241.583 212.688Z" fill="white"/>
<path d="M274.692 212.688H253.542C251.504 212.688 249.852 214.34 249.852 216.378V237.528C249.852 239.566 251.504 241.219 253.542 241.219H274.692C276.73 241.219 278.383 239.566 278.383 237.528V216.378C278.383 214.34 276.73 212.688 274.692 212.688Z" fill="#E46449"/>
<path d="M175.051 245.852H153.901C151.863 245.852 150.211 247.504 150.211 249.542V270.692C150.211 272.73 151.863 274.383 153.901 274.383H175.051C177.09 274.383 178.742 272.73 178.742 270.692V249.542C178.742 247.504 177.09 245.852 175.051 245.852Z" fill="#E46449"/>
<path d="M208.317 245.852H187.167C185.129 245.852 183.477 247.504 183.477 249.542V270.692C183.477 272.73 185.129 274.383 187.167 274.383H208.317C210.355 274.383 212.008 272.73 212.008 270.692V249.542C212.008 247.504 210.355 245.852 208.317 245.852Z" fill="white"/>
<path d="M241.583 245.852H220.433C218.394 245.852 216.742 247.504 216.742 249.542V270.692C216.742 272.73 218.394 274.383 220.433 274.383H241.583C243.621 274.383 245.273 272.73 245.273 270.692V249.542C245.273 247.504 243.621 245.852 241.583 245.852Z" fill="#E46449"/>
<path d="M274.692 245.852H253.542C251.504 245.852 249.852 247.504 249.852 249.542V270.692C249.852 272.73 251.504 274.383 253.542 274.383H274.692C276.73 274.383 278.383 272.73 278.383 270.692V249.542C278.383 247.504 276.73 245.852 274.692 245.852Z" fill="#E46449"/>
<path d="M168.435 168.151C168.435 168.415 167.665 168.537 166.127 168.537C164.589 168.537 163.821 168.41 163.821 168.151V156.944L161.364 156.968C160.909 156.968 160.684 156.24 160.684 154.784C160.682 154.296 160.731 153.808 160.829 153.33C160.93 152.862 161.094 152.626 161.343 152.626H167.569C167.79 152.616 168.009 152.675 168.194 152.796C168.267 152.84 168.327 152.901 168.369 152.975C168.411 153.049 168.434 153.132 168.435 153.216V168.151Z" fill="#B3C9DB"/>
<path d="M201.384 168.607H193.839C193.31 168.607 192.937 168.093 192.725 167.061C192.633 166.641 192.579 166.214 192.561 165.785C192.536 165.586 192.584 165.385 192.696 165.218C196.093 161.715 197.791 159.332 197.789 158.07C197.803 157.897 197.78 157.722 197.723 157.558C197.666 157.394 197.576 157.243 197.458 157.115C197.164 156.877 196.789 156.764 196.413 156.797C195.923 156.797 195.438 156.886 194.98 157.062C194.579 157.203 194.2 157.402 193.855 157.652C193.294 156.996 192.876 156.229 192.629 155.402C192.557 155.17 192.519 154.929 192.516 154.687C192.514 154.472 192.553 154.26 192.629 154.059C192.749 153.668 193.315 153.294 194.321 152.948C195.349 152.593 196.429 152.414 197.517 152.418C200.911 152.418 202.608 153.926 202.608 156.942C202.608 158.277 202.153 159.63 201.244 161.001C200.367 162.337 199.297 163.535 198.067 164.556L202.658 164.376C202.734 165.178 202.772 165.875 202.772 166.468C202.788 166.991 202.662 167.508 202.409 167.966C202.316 168.159 202.17 168.321 201.989 168.434C201.808 168.547 201.598 168.607 201.384 168.607Z" fill="#B3C9DB"/>
<path d="M225.574 167.074C225.59 166.577 225.697 166.087 225.892 165.629C226.061 165.181 226.267 164.748 226.506 164.334C226.593 164.153 226.708 163.988 226.848 163.844C227.68 164.362 228.64 164.637 229.619 164.638C230.133 164.662 230.643 164.535 231.086 164.273C231.261 164.169 231.404 164.021 231.502 163.843C231.601 163.665 231.65 163.465 231.645 163.262C231.663 163.086 231.623 162.91 231.53 162.759C231.437 162.609 231.297 162.495 231.131 162.433C230.602 162.281 230.056 162.197 229.506 162.184H228.688C228.508 162.184 228.335 161.959 228.177 161.512C228.023 161.093 227.942 160.65 227.938 160.204C227.938 159.498 228.15 159.135 228.574 159.113L229.233 159.092C229.684 159.08 230.125 158.96 230.52 158.74C230.964 158.504 231.189 158.211 231.189 157.84C231.189 157.205 230.621 156.887 229.484 156.887C228.641 156.886 227.806 157.056 227.03 157.387C226.347 156.152 226.006 155.193 226.006 154.512C226.006 153.831 226.487 153.311 227.449 152.953C228.619 152.571 229.845 152.392 231.076 152.423C232.528 152.423 233.665 152.726 234.485 153.331C234.879 153.61 235.198 153.983 235.413 154.415C235.627 154.848 235.73 155.327 235.714 155.809C235.741 156.664 235.536 157.509 235.119 158.255C234.703 159.002 234.091 159.62 233.35 160.045C235.259 160.818 236.213 162.13 236.211 163.979C236.235 164.638 236.11 165.293 235.847 165.897C235.583 166.501 235.188 167.038 234.689 167.469C233.676 168.351 232.222 168.792 230.326 168.792C229.214 168.806 228.107 168.634 227.051 168.281C226.067 167.946 225.574 167.544 225.574 167.074Z" fill="#B3C9DB"/>
<path d="M265.42 171.996V175.813H269.262C269.527 175.813 269.73 176.033 269.852 176.472C269.977 176.905 269.977 177.364 269.852 177.796C269.73 178.235 269.535 178.455 269.262 178.455H265.42V182.344C265.42 182.609 265.201 182.813 264.761 182.935C264.547 182.995 264.325 183.026 264.102 183.025L263.443 182.935C263.003 182.813 262.784 182.617 262.784 182.344V178.442H258.919C258.654 178.442 258.45 178.222 258.328 177.783C258.203 177.35 258.203 176.891 258.328 176.459C258.45 176.02 258.646 175.8 258.919 175.8H262.784V171.996C262.784 171.731 263.003 171.524 263.443 171.405C263.657 171.344 263.879 171.312 264.102 171.313L264.761 171.405C265.201 171.524 265.42 171.723 265.42 171.996Z" fill="white"/>
<path d="M268.708 228.267H259.731C259.466 228.267 259.259 228.047 259.138 227.608C259.017 227.175 259.017 226.717 259.138 226.284C259.259 225.845 259.458 225.625 259.731 225.625H268.708C268.973 225.625 269.179 225.845 269.301 226.284C269.422 226.717 269.422 227.175 269.301 227.608C269.179 228.047 268.981 228.267 268.708 228.267Z" fill="white"/>
<path d="M232.791 260.053L235.034 257.81C235.224 257.617 235.208 257.323 234.983 256.926C234.874 256.733 234.739 256.555 234.584 256.397C234.425 256.24 234.247 256.105 234.054 255.994C233.657 255.769 233.363 255.753 233.17 255.946L230.928 258.189L228.685 255.946C228.492 255.753 228.198 255.769 227.801 255.994C227.607 256.104 227.429 256.239 227.272 256.397C227.115 256.555 226.98 256.733 226.869 256.926C226.644 257.323 226.628 257.617 226.821 257.81L229.064 260.053L226.821 262.295C226.628 262.488 226.644 262.782 226.869 263.179C227.089 263.569 227.411 263.891 227.801 264.111C228.198 264.336 228.492 264.352 228.685 264.159L230.928 261.916L233.17 264.159C233.363 264.352 233.657 264.336 234.054 264.111C234.445 263.893 234.768 263.57 234.986 263.179C235.211 262.782 235.227 262.488 235.036 262.295L232.791 260.053Z" fill="white"/>
<path d="M268.708 258.859H259.731C259.466 258.859 259.259 258.642 259.138 258.2C259.08 257.985 259.05 257.764 259.048 257.541C259.05 257.318 259.08 257.097 259.138 256.882C259.259 256.442 259.458 256.223 259.731 256.223H268.708C268.973 256.223 269.179 256.442 269.301 256.882C269.358 257.097 269.389 257.318 269.391 257.541C269.389 257.764 269.359 257.985 269.301 258.2C269.179 258.642 268.981 258.859 268.708 258.859ZM268.708 263.953H259.731C259.466 263.953 259.259 263.733 259.138 263.294C259.017 262.861 259.017 262.403 259.138 261.97C259.259 261.531 259.458 261.311 259.731 261.311H268.708C268.973 261.311 269.179 261.531 269.301 261.97C269.422 262.403 269.422 262.861 269.301 263.294C269.179 263.733 268.981 263.953 268.708 263.953Z" fill="white"/>
<path d="M170.417 195.01C170.567 195.01 170.643 195.582 170.645 196.725C170.646 197.869 170.57 198.441 170.417 198.441L168.916 198.465V201.329C168.916 201.496 168.606 201.618 167.984 201.692C167.449 201.762 166.911 201.8 166.372 201.806L165.44 201.761C164.667 201.7 164.28 201.565 164.28 201.351V198.534H159.756C159.325 198.08 158.967 197.562 158.697 196.998C158.379 196.372 158.22 195.917 158.22 195.635C158.209 195.403 158.257 195.173 158.358 194.965L163.335 186.144C163.397 186.022 163.863 185.934 164.733 185.879C165.603 185.824 166.516 185.794 167.473 185.789C168.429 185.789 168.905 185.826 168.905 185.903L168.926 195.018L170.417 195.01ZM164.939 195.031V190.282L162.292 195.031H164.939Z" fill="#B3C9DB"/>
<path d="M201.549 185.686C201.838 185.686 201.983 186.315 201.983 187.573C201.978 188.041 201.943 188.508 201.88 188.971C201.811 189.5 201.686 189.765 201.504 189.765H197.072L197.048 191.425H197.8C199.42 191.425 200.628 191.895 201.424 192.834C202.22 193.772 202.618 195.015 202.618 196.561C202.641 197.274 202.505 197.982 202.223 198.637C201.94 199.291 201.516 199.875 200.982 200.347C199.891 201.325 198.489 201.814 196.775 201.814C195.062 201.814 193.812 201.571 193.027 201.086C192.885 200.8 192.822 200.482 192.844 200.164C192.861 199.569 192.923 198.976 193.027 198.39C193.145 197.626 193.311 197.244 193.524 197.244C193.576 197.265 193.622 197.296 193.662 197.334C194.737 197.774 195.559 197.993 196.13 197.993C196.64 198.013 197.14 197.847 197.538 197.527C197.716 197.385 197.859 197.202 197.955 196.995C198.052 196.788 198.099 196.562 198.094 196.333C198.094 195.121 197.443 194.515 196.14 194.515L194.184 194.538C194.098 194.549 194.011 194.536 193.932 194.502C193.852 194.468 193.783 194.414 193.731 194.345C193.653 194.261 193.593 194.163 193.554 194.056C193.515 193.948 193.498 193.834 193.503 193.72V186.617C193.503 185.998 193.731 185.686 194.184 185.686H201.549Z" fill="#B3C9DB"/>
<path d="M165.817 234.477C165.741 234.721 164.938 234.843 163.408 234.843C161.875 234.843 161.025 234.774 160.837 234.636C160.81 234.619 160.788 234.596 160.772 234.568C160.757 234.541 160.748 234.509 160.747 234.477L164.544 223.34H159.929C159.474 223.34 159.246 222.605 159.246 221.135C159.245 220.646 159.295 220.159 159.394 219.681C159.492 219.21 159.659 218.974 159.905 218.974L167.863 218.953C168.469 218.953 168.961 219.287 169.341 219.954C169.514 220.267 169.645 220.603 169.727 220.952L165.817 234.477Z" fill="#B3C9DB"/>
<path d="M203.505 230.064C203.525 230.751 203.391 231.435 203.114 232.064C202.836 232.693 202.422 233.253 201.9 233.701C200.826 234.642 199.406 235.112 197.641 235.112C195.876 235.112 194.474 234.661 193.437 233.76C192.934 233.32 192.535 232.773 192.269 232.16C192.004 231.547 191.878 230.882 191.901 230.215C191.901 228.752 192.636 227.452 194.106 226.315C193.623 225.927 193.234 225.436 192.966 224.877C192.698 224.319 192.56 223.707 192.56 223.088C192.55 222.49 192.677 221.897 192.934 221.357C193.19 220.816 193.568 220.342 194.038 219.972C195.022 219.155 196.281 218.746 197.813 218.746C199.345 218.746 200.568 219.128 201.482 219.892C201.918 220.235 202.268 220.674 202.505 221.176C202.742 221.677 202.858 222.226 202.845 222.781C202.845 223.94 202.357 224.99 201.381 225.929C202.013 226.398 202.536 226.999 202.914 227.689C203.313 228.416 203.517 229.234 203.505 230.064ZM196.389 229.857C196.379 230.052 196.41 230.246 196.478 230.428C196.546 230.61 196.651 230.776 196.786 230.916C196.915 231.046 197.069 231.149 197.24 231.217C197.41 231.285 197.592 231.318 197.776 231.313C197.956 231.319 198.135 231.287 198.302 231.219C198.468 231.15 198.618 231.047 198.742 230.916C199.001 230.626 199.136 230.246 199.118 229.857C199.118 229.038 198.595 228.364 197.548 227.835C197.188 228.033 196.889 228.326 196.684 228.683C196.479 229.04 196.377 229.446 196.389 229.857ZM198.845 223.424C198.848 223.267 198.818 223.111 198.757 222.967C198.696 222.822 198.605 222.692 198.491 222.585C198.388 222.477 198.265 222.391 198.129 222.332C197.992 222.274 197.845 222.243 197.696 222.243C196.923 222.243 196.522 222.615 196.492 223.358C196.492 224.037 197.015 224.682 198.062 225.29C198.549 224.79 198.829 224.123 198.845 223.424Z" fill="#B3C9DB"/>
<path d="M197.749 268.266C196.865 268.291 195.987 268.116 195.18 267.754C194.373 267.391 193.658 266.852 193.089 266.174C191.884 264.78 191.281 262.742 191.281 260.059C191.281 257.376 191.888 255.347 193.1 253.97C193.681 253.3 194.403 252.769 195.215 252.413C196.027 252.057 196.908 251.886 197.794 251.913C199.711 251.913 201.26 252.595 202.443 253.959C203.625 255.324 204.216 257.377 204.216 260.12C204.216 262.863 203.614 264.905 202.408 266.246C201.828 266.904 201.109 267.426 200.304 267.776C199.499 268.125 198.626 268.292 197.749 268.266ZM197.749 256.286C197.163 256.286 196.67 256.616 196.272 257.274C195.873 257.932 195.672 258.868 195.668 260.083C195.668 261.295 195.861 262.224 196.248 262.868C196.634 263.512 197.135 263.834 197.749 263.834C198.363 263.834 198.863 263.508 199.25 262.855C199.636 262.202 199.83 261.27 199.83 260.059C199.83 258.846 199.628 257.915 199.226 257.263C198.824 256.612 198.331 256.29 197.749 256.297V256.286Z" fill="#01184A"/>
<path d="M227.247 230.929C228.091 231.121 228.95 231.235 229.815 231.271C230.381 231.273 230.931 231.081 231.371 230.726C231.835 230.36 232.102 229.794 232.166 229.021C231.576 229.205 230.964 229.312 230.347 229.338C228.759 229.338 227.531 228.897 226.664 228.015C225.798 227.132 225.365 225.874 225.367 224.239C225.367 222.61 225.864 221.287 226.858 220.268C227.851 219.25 229.211 218.743 230.937 218.746C232.667 218.746 234.028 219.351 235.02 220.562C236.011 221.773 236.507 223.562 236.507 225.929C236.507 228.883 235.978 231.153 234.919 232.738C233.86 234.323 232.295 235.117 230.225 235.12C227.648 235.12 226.36 234.688 226.36 233.823C226.38 233.22 226.469 232.622 226.625 232.039C226.836 231.297 227.032 230.929 227.247 230.929ZM230.906 222.836C230.695 222.824 230.485 222.86 230.29 222.941C230.095 223.021 229.921 223.145 229.78 223.302C229.507 223.639 229.366 224.063 229.383 224.496C229.374 224.713 229.41 224.93 229.491 225.131C229.571 225.333 229.693 225.516 229.849 225.666C230.169 225.966 230.594 226.127 231.033 226.114C231.45 226.133 231.863 226.021 232.213 225.794C232.213 224.748 232.115 223.996 231.917 223.533C231.844 223.324 231.707 223.144 231.525 223.019C231.343 222.894 231.126 222.83 230.906 222.836Z" fill="#B3C9DB"/>
<path d="M234.133 190.174C233.481 189.829 232.752 189.657 232.015 189.673C230.603 189.673 229.8 190.582 229.605 192.4C230.426 192.168 231.276 192.053 232.128 192.059C233.659 192.059 234.784 192.457 235.504 193.253C236.224 194.049 236.584 195.136 236.584 196.514C236.584 198.182 236.069 199.506 235.038 200.485C234.007 201.465 232.613 201.954 230.855 201.952C229.09 201.952 227.711 201.311 226.717 200.03C225.724 198.749 225.224 196.926 225.219 194.563C225.219 191.805 225.844 189.619 227.093 188.006C227.651 187.239 228.385 186.618 229.234 186.196C230.083 185.774 231.022 185.564 231.97 185.583C234.241 185.583 235.378 186.046 235.379 186.97C235.355 187.726 235.135 188.462 234.741 189.107C234.569 189.479 234.365 189.836 234.133 190.174ZM232.653 196.528C232.661 196.317 232.626 196.107 232.552 195.91C232.478 195.712 232.366 195.532 232.221 195.379C232.044 195.22 231.837 195.1 231.612 195.024C231.388 194.948 231.15 194.918 230.913 194.937C230.45 194.908 229.989 195.018 229.59 195.254C229.574 195.453 229.568 195.672 229.568 195.913C229.573 196.214 229.6 196.514 229.648 196.811C229.711 197.191 229.866 197.55 230.101 197.857C230.21 198.017 230.358 198.148 230.531 198.237C230.704 198.327 230.896 198.371 231.091 198.368C232.132 198.375 232.653 197.765 232.653 196.538V196.528Z" fill="#B3C9DB"/>
<path d="M168.915 261.431H159.938C159.673 261.431 159.466 261.211 159.345 260.772C159.224 260.339 159.224 259.881 159.345 259.448C159.466 259.009 159.665 258.789 159.938 258.789H168.915C169.18 258.789 169.386 259.009 169.508 259.448C169.629 259.881 169.629 260.339 169.508 260.772C169.386 261.211 169.188 261.431 168.915 261.431Z" fill="white"/>
<path d="M164.44 257.162C165.367 257.162 166.119 256.41 166.119 255.483C166.119 254.556 165.367 253.805 164.44 253.805C163.513 253.805 162.762 254.556 162.762 255.483C162.762 256.41 163.513 257.162 164.44 257.162Z" fill="white"/>
<path d="M164.44 266.357C165.367 266.357 166.119 265.605 166.119 264.678C166.119 263.751 165.367 263 164.44 263C163.513 263 162.762 263.751 162.762 264.678C162.762 265.605 163.513 266.357 164.44 266.357Z" fill="white"/>
<path d="M207.667 313.178C201.361 319.483 193.328 323.776 184.582 325.516C175.837 327.255 166.772 326.362 158.534 322.949C150.296 319.537 143.255 313.758 138.301 306.344C133.347 298.93 130.703 290.213 130.703 281.296C130.703 272.379 133.347 263.663 138.301 256.249C143.255 248.834 150.296 243.056 158.534 239.643C166.772 236.231 175.837 235.338 184.582 237.077C193.328 238.816 201.361 243.11 207.667 249.415C211.883 253.585 215.229 258.55 217.514 264.023C219.798 269.495 220.974 275.366 220.974 281.296C220.974 287.226 219.798 293.097 217.514 298.57C215.229 304.042 211.883 309.007 207.667 313.178Z" fill="#E46449"/>
<path d="M175.776 319.462C196.811 319.462 213.864 302.409 213.864 281.373C213.864 260.338 196.811 243.285 175.776 243.285C154.74 243.285 137.688 260.338 137.688 281.373C137.688 302.409 154.74 319.462 175.776 319.462Z" fill="#EF8456"/>
<path d="M193.739 279.667L189.475 282.274L175.337 268.135L179.618 265.546L193.739 279.667ZM166.981 290.577L169.778 273.797L172.816 270.725L176.787 274.695C177.5 275.409 178.266 275.817 179.083 275.921C179.911 276.013 180.74 275.863 181.569 275.472C182.42 275.081 183.226 274.505 183.985 273.746C184.768 272.963 185.367 272.18 185.781 271.398C186.218 270.615 186.391 269.833 186.299 269.05C186.207 268.267 185.775 267.491 185.004 266.719L180.792 262.507L185.953 259.279L189.199 262.524C191.029 264.354 192.22 266.167 192.772 267.962C193.336 269.769 193.319 271.547 192.721 273.297C192.122 275.046 190.994 276.75 189.337 278.407C187.875 279.868 186.408 280.956 184.935 281.67C183.485 282.383 181.977 282.671 180.412 282.533C178.858 282.406 177.236 281.808 175.544 280.737L172.747 295.86L172.505 296.102L166.981 290.577ZM200.075 273.4L195.776 275.938L184.59 264.751L188.854 262.179L200.075 273.4Z" fill="#FEBC7D"/>
<path d="M179.036 275.153C179.036 288.915 173.569 302.113 163.838 311.844C154.107 321.575 140.909 327.042 127.147 327.042C98.4887 327.042 75.2578 303.808 75.2578 275.153C75.2578 261.391 80.7247 248.193 90.4557 238.462C100.187 228.731 113.385 223.264 127.147 223.264C155.813 223.256 179.036 246.503 179.036 275.153Z" fill="#E46449"/>
<path d="M158.199 306.114C175.32 288.993 175.32 261.234 158.199 244.113C141.079 226.992 113.32 226.992 96.1993 244.113C79.0784 261.234 79.0784 288.993 96.1993 306.114C113.32 323.234 141.079 323.235 158.199 306.114Z" fill="#EF8456"/>
<path d="M228.033 293.699H120.637V310.738H228.033V293.699Z" fill="#F48D5A"/>
<path d="M227.947 293.699H191.691V310.738H227.947V293.699Z" fill="#E96C4D"/>
<path d="M127.13 296.834H124.191V307.585H127.13V296.834Z" fill="#E46449"/>
<path d="M134.099 296.834H131.16V307.585H134.099V296.834Z" fill="#E46449"/>
<path d="M141.06 296.834H138.121V307.585H141.06V296.834Z" fill="#E46449"/>
<path d="M148.028 296.834H145.09V307.585H148.028V296.834Z" fill="#E46449"/>
<path d="M154.997 296.834H152.059V307.585H154.997V296.834Z" fill="#E46449"/>
<path d="M161.982 296.834H159.043V307.585H161.982V296.834Z" fill="#E46449"/>
<path d="M168.962 296.834H166.023V307.585H168.962V296.834Z" fill="#E46449"/>
<path d="M175.943 296.834H173.004V307.585H175.943V296.834Z" fill="#E46449"/>
<path d="M182.927 296.834H179.988V307.585H182.927V296.834Z" fill="#E46449"/>
<path d="M189.907 296.834H186.969V307.585H189.907V296.834Z" fill="#E46449"/>
<path d="M196.892 296.834H193.953V307.585H196.892V296.834Z" fill="#723225"/>
<path d="M203.872 296.834H200.934V307.585H203.872V296.834Z" fill="#723225"/>
<path d="M210.853 296.834H207.914V307.585H210.853V296.834Z" fill="#723225"/>
<path d="M217.837 296.834H214.898V307.585H217.837V296.834Z" fill="#723225"/>
<path d="M224.818 296.834H221.879V307.585H224.818V296.834Z" fill="#723225"/>
<path d="M217.154 310.434H109.758V327.472H217.154V310.434Z" fill="#F48D5A"/>
<path d="M217.065 310.434H180.809V327.472H217.065V310.434Z" fill="#E96C4D"/>
<path d="M141.38 264.992L139.974 270.822H115.98L117.415 264.992H141.38ZM127.933 296.955L116.068 280.344L116.038 275.158H122.777C123.988 275.158 124.984 274.855 125.765 274.25C126.546 273.625 127.122 272.795 127.493 271.76C127.884 270.705 128.079 269.533 128.079 268.244C128.079 266.916 127.923 265.744 127.611 264.729C127.318 263.693 126.8 262.883 126.058 262.297C125.316 261.711 124.29 261.418 122.982 261.418H115.833L117.474 254.299H122.982C126.087 254.299 128.636 254.826 130.628 255.881C132.64 256.936 134.134 258.459 135.111 260.451C136.087 262.443 136.575 264.846 136.575 267.658C136.575 270.139 136.253 272.307 135.609 274.162C134.984 275.998 133.949 277.521 132.503 278.732C131.077 279.943 129.193 280.812 126.849 281.34L137.308 296.545V296.955H127.933ZM141.439 254.299L139.945 260.1H120.96L122.396 254.299H141.439Z" fill="#FEBC7D"/>
<path d="M116.364 313.617H113.426V324.368H116.364V313.617Z" fill="#E46449"/>
<path d="M123.337 313.617H120.398V324.368H123.337V313.617Z" fill="#E46449"/>
<path d="M130.294 313.617H127.355V324.368H130.294V313.617Z" fill="#E46449"/>
<path d="M137.263 313.617H134.324V324.368H137.263V313.617Z" fill="#E46449"/>
<path d="M144.235 313.617H141.297V324.368H144.235V313.617Z" fill="#E46449"/>
<path d="M151.193 313.617H148.254V324.368H151.193V313.617Z" fill="#E46449"/>
<path d="M158.161 313.617H155.223V324.368H158.161V313.617Z" fill="#E46449"/>
<path d="M165.122 313.617H162.184V324.368H165.122V313.617Z" fill="#E46449"/>
<path d="M172.091 313.617H169.152V324.368H172.091V313.617Z" fill="#E46449"/>
<path d="M179.06 313.617H176.121V324.368H179.06V313.617Z" fill="#E46449"/>
<path d="M186.021 313.617H183.082V324.368H186.021V313.617Z" fill="#723225"/>
<path d="M192.989 313.617H190.051V324.368H192.989V313.617Z" fill="#723225"/>
<path d="M199.97 313.617H197.031V324.368H199.97V313.617Z" fill="#723225"/>
<path d="M206.95 313.617H204.012V324.368H206.95V313.617Z" fill="#723225"/>
<path d="M213.935 313.617H210.996V324.368H213.935V313.617Z" fill="#723225"/>
<path d="M46.0063 187.738C43.7907 181.969 43.9572 175.558 46.4692 169.912C48.9811 164.267 53.6327 159.851 59.4008 157.635C65.1688 155.42 71.5807 155.586 77.226 158.098C82.8712 160.61 87.2874 165.262 89.503 171.03L74.6114 176.759C73.8904 174.972 72.4963 173.54 70.7295 172.772C68.9628 172.004 66.9649 171.961 65.1666 172.652C63.3683 173.343 61.9135 174.713 61.116 176.467C60.3185 178.221 60.242 180.217 60.9032 182.027L46.0063 187.738Z" fill="#E46449"/>
<path d="M85.6279 194.349L73.4102 184.09C74.2525 183.085 74.8107 181.872 75.0267 180.579C75.2427 179.285 75.1087 177.957 74.6385 176.733L89.5301 171.004C91.0211 174.889 91.4455 179.103 90.7594 183.208C90.0732 187.313 88.3015 191.159 85.6279 194.349Z" fill="#13417C"/>
<path d="M66.0273 202.59C61.6363 202.247 57.4326 200.665 53.9037 198.03C50.3749 195.394 47.6655 191.812 46.0898 187.699L60.9867 181.988C61.445 183.181 62.2066 184.234 63.1963 185.042C64.186 185.851 65.3695 186.387 66.6299 186.598C67.8903 186.809 69.1839 186.687 70.3829 186.245C71.5819 185.803 72.6448 185.056 73.4665 184.077L85.6842 194.336C83.3031 197.179 80.2766 199.412 76.8572 200.848C73.4378 202.284 69.7246 202.881 66.0273 202.59Z" fill="#EF8456"/>
<g style="mix-blend-mode:overlay">
<path d="M179.033 275.169C179.052 287.065 174.964 298.603 167.459 307.832L85.9375 243.606C90.7769 237.275 97.0121 232.145 104.158 228.617C111.303 225.088 119.167 223.257 127.136 223.264C155.81 223.272 179.033 246.519 179.033 275.169Z" fill="#606060"/>
</g>
<defs>
<filter id="filter0_d_14_192" x="416.574" y="29.8262" width="105.047" height="84.7552" filterUnits="userSpaceOnUse" color-interpolation-filters="sRGB">
<feFlood flood-opacity="0" result="BackgroundImageFix"/>
<feColorMatrix in="SourceAlpha" type="matrix" values="0 0 0 0 0 0 0 0 0 0 0 0 0 0 0 0 0 0 127 0" result="hardAlpha"/>
<feOffset dy="1"/>
<feGaussianBlur stdDeviation="0.5"/>
<feComposite in2="hardAlpha" operator="out"/>
<feColorMatrix type="matrix" values="0 0 0 0 0 0 0 0 0 0 0 0 0 0 0 0 0 0 0.08 0"/>
<feBlend mode="normal" in2="BackgroundImageFix" result="effect1_dropShadow_14_192"/>
<feBlend mode="normal" in="SourceGraphic" in2="effect1_dropShadow_14_192" result="shape"/>
</filter>
<linearGradient id="paint0_linear_14_192" x1="341.234" y1="156.242" x2="341.234" y2="328.762" gradientUnits="userSpaceOnUse">
<stop stop-color="#FFEAD5"/>
<stop offset="1" stop-color="#FFFEFD"/>
</linearGradient>
</defs>
</svg>
